<svg width="74" height="65" viewBox="0 0 74 65" fill="none" xmlns="http://www.w3.org/2000/svg">
<g filter="url(#filter0_d_180736_8728)">
<path d="M69.5 38.814C69.5 48.7551 61.4411 56.814 51.5 56.814L24.5 56.814C21.7386 56.814 19.5 54.5754 19.5 51.814L19.5 17.814C19.5 12.2911 23.9772 7.81396 29.5 7.81397L64.5 7.81397C67.2614 7.81397 69.5 10.0525 69.5 12.814L69.5 38.814Z" fill="#D7E9BB"/>
<path d="M28.49 10.814C24.9187 10.814 22.0114 13.7478 22.0114 17.3343C22.0114 19.6031 23.1765 21.6064 24.9358 22.7741C22.8109 23.4846 20.9723 24.8125 19.6238 26.5496C18.8782 25.9762 18.0451 25.515 17.147 25.1845C18.5089 24.1734 19.3989 22.5493 19.3989 20.7239C19.3989 17.6822 16.9388 15.1922 13.9155 15.1922C10.8922 15.1922 8.43208 17.6822 8.43208 20.7239C8.43208 22.5504 9.32277 24.1752 10.6858 25.1863C7.07721 26.5179 4.5 30.0042 4.5 34.1072V36.9894C4.50037 37.2091 4.58826 37.4196 4.74409 37.5743C4.89992 37.7294 5.11078 37.8158 5.3305 37.8151H17.9755C18.0061 37.8184 18.0368 37.8203 18.0674 37.8199H38.9133C38.9439 37.8203 38.9749 37.8184 39.0052 37.8151H51.6511C52.1057 37.8133 52.4739 37.4443 52.475 36.9894V34.1072C52.475 30.0042 49.9022 26.5179 46.2955 25.1859C47.6585 24.1752 48.5492 22.55 48.5492 20.7236C48.5492 17.6818 46.0892 15.1918 43.0658 15.1918C40.0426 15.1918 37.5824 17.6818 37.5824 20.7236C37.5824 22.5489 38.4728 24.1733 39.8346 25.1841C38.9347 25.5153 38.1013 25.978 37.3546 26.553C36.0067 24.8147 34.1707 23.485 32.0459 22.7741C33.8047 21.6064 34.9703 19.6031 34.9703 17.3343C34.9703 13.7478 32.0614 10.814 28.4902 10.814H28.49ZM28.49 12.4683C31.161 12.4683 33.3142 14.636 33.3142 17.3343C33.3142 20.0115 31.1945 22.1581 28.5531 22.1925C28.5321 22.1925 28.5114 22.1896 28.49 22.1896C28.4686 22.1896 28.4483 22.1925 28.4268 22.1925C25.7854 22.1586 23.6672 20.0116 23.6672 17.3343C23.6672 14.6356 25.8186 12.4683 28.4896 12.4683H28.49ZM13.9156 16.8464C16.0348 16.8464 17.7446 18.5665 17.7446 20.7238C17.7446 22.8668 16.057 24.5794 13.9576 24.6027C13.9436 24.6027 13.9299 24.6012 13.9155 24.6012C13.9015 24.6012 13.8878 24.6027 13.8734 24.6027C11.7741 24.5794 10.0865 22.8664 10.0865 20.7238C10.0865 18.5666 11.7962 16.8464 13.9155 16.8464H13.9156ZM43.0653 16.8464C45.1846 16.8464 46.8944 18.5665 46.8944 20.7238C46.8944 22.8668 45.2067 24.5794 43.1074 24.6027C43.0934 24.6027 43.0797 24.6012 43.0653 24.6012C43.0513 24.6012 43.0376 24.6027 43.0232 24.6027C40.9239 24.5794 39.2363 22.8664 39.2363 20.7238C39.2363 18.5666 40.946 16.8464 43.0653 16.8464H43.0653ZM28.4266 23.8468C28.4477 23.8472 28.4684 23.8498 28.4898 23.8498C28.5108 23.8498 28.5315 23.8468 28.5529 23.8468C33.8502 23.8808 38.0896 28.1566 38.0896 33.5092L38.0892 36.1651H18.8911V33.5092C18.8911 28.1562 23.1293 23.8808 28.4259 23.8468H28.4266ZM13.8522 26.259C13.8733 26.2593 13.894 26.2619 13.9154 26.2619C13.9368 26.2619 13.9571 26.259 13.9785 26.259C15.7702 26.2734 17.4054 26.8912 18.7074 27.9247C17.7757 29.5732 17.2369 31.476 17.2369 33.5097V36.1592H6.15369V34.1071C6.15369 29.757 9.57396 26.2929 13.852 26.2586L13.8522 26.259ZM43.002 26.259C43.0234 26.2593 43.0437 26.2619 43.0652 26.2619C43.0866 26.2619 43.1069 26.259 43.1283 26.259C47.4064 26.2929 50.8266 29.7575 50.8266 34.1075V36.1592H39.7377L39.7374 33.5097C39.7374 31.4772 39.2001 29.5758 38.2702 27.9277C39.5726 26.8926 41.2089 26.2733 43.0021 26.259H43.002Z" fill="#688042"/>
</g>
<defs>
<filter id="filter0_d_180736_8728" x="0.5" y="0.813965" width="73" height="64" filterUnits="userSpaceOnUse" color-interpolation-filters="sRGB">
<feFlood flood-opacity="0" result="BackgroundImageFix"/>
<feColorMatrix in="SourceAlpha" type="matrix" values="0 0 0 0 0 0 0 0 0 0 0 0 0 0 0 0 0 0 127 0" result="hardAlpha"/>
<feOffset dy="4"/>
<feGaussianBlur stdDeviation="2"/>
<feComposite in2="hardAlpha" operator="out"/>
<feColorMatrix type="matrix" values="0 0 0 0 0 0 0 0 0 0 0 0 0 0 0 0 0 0 0.25 0"/>
<feBlend mode="normal" in2="BackgroundImageFix" result="effect1_dropShadow_180736_8728"/>
<feBlend mode="normal" in="SourceGraphic" in2="effect1_dropShadow_180736_8728" result="shape"/>
</filter>
</defs>
</svg>
