<svg width="74" height="65" viewBox="0 0 74 65" fill="none" xmlns="http://www.w3.org/2000/svg">
<g filter="url(#filter0_d_180774_1676)">
<path d="M69.5 38.814C69.5 48.7551 61.4411 56.814 51.5 56.814L24.5 56.814C21.7386 56.814 19.5 54.5754 19.5 51.814L19.5 17.814C19.5 12.2911 23.9772 7.81396 29.5 7.81397L64.5 7.81397C67.2614 7.81397 69.5 10.0525 69.5 12.814L69.5 38.814Z" fill="#BBE9E9"/>
<g clip-path="url(#clip0_180774_1676)">
<path d="M41.25 31.0532V12.3032C41.25 10.7499 39.9902 9.49072 38.4375 9.49072H19.6875C17.0988 9.49072 15 11.5896 15 14.1782V35.7407C15 37.812 16.6787 39.4907 18.75 39.4907H40.3125C40.8307 39.4907 41.25 39.0714 41.25 38.5532C41.25 38.035 40.8281 37.6157 40.3125 37.6157H39.375V33.6929C40.4648 33.3032 41.25 32.272 41.25 31.0532ZM16.875 14.1782C16.875 12.6249 18.1342 11.3657 19.6875 11.3657H20.625V31.9907H18.75C18.0639 31.9907 17.4287 32.1893 16.875 32.5122V14.1782ZM37.5 37.6157H18.75C17.7164 37.6157 16.875 36.7743 16.875 35.7407C16.875 34.7071 17.7164 33.8657 18.75 33.8657H37.5V37.6157ZM38.4375 31.9907H22.5V11.3657H38.4375C38.9531 11.3657 39.375 11.7858 39.375 12.3032V31.0532C39.375 31.5688 38.9531 31.9907 38.4375 31.9907ZM35.625 16.9907H26.25C25.7344 16.9907 25.3125 17.4126 25.3125 17.9282C25.3125 18.4438 25.7344 18.8657 26.25 18.8657H35.625C36.1432 18.8657 36.5625 18.4464 36.5625 17.9282C36.5625 17.41 36.1406 16.9907 35.625 16.9907ZM35.625 22.6157H26.25C25.7344 22.6157 25.3125 23.0376 25.3125 23.5532C25.3125 24.0688 25.7344 24.4907 26.25 24.4907H35.625C36.1432 24.4907 36.5625 24.0714 36.5625 23.5532C36.5625 23.035 36.1406 22.6157 35.625 22.6157Z" fill="#3D7C7C"/>
</g>
</g>
<defs>
<filter id="filter0_d_180774_1676" x="0.5" y="0.813965" width="73" height="64" filterUnits="userSpaceOnUse" color-interpolation-filters="sRGB">
<feFlood flood-opacity="0" result="BackgroundImageFix"/>
<feColorMatrix in="SourceAlpha" type="matrix" values="0 0 0 0 0 0 0 0 0 0 0 0 0 0 0 0 0 0 127 0" result="hardAlpha"/>
<feOffset dy="4"/>
<feGaussianBlur stdDeviation="2"/>
<feComposite in2="hardAlpha" operator="out"/>
<feColorMatrix type="matrix" values="0 0 0 0 0 0 0 0 0 0 0 0 0 0 0 0 0 0 0.25 0"/>
<feBlend mode="normal" in2="BackgroundImageFix" result="effect1_dropShadow_180774_1676"/>
<feBlend mode="normal" in="SourceGraphic" in2="effect1_dropShadow_180774_1676" result="shape"/>
</filter>
<clipPath id="clip0_180774_1676">
<rect width="26.25" height="30" fill="white" transform="translate(15 9.49072)"/>
</clipPath>
</defs>
</svg>
