<svg width="66" height="57" viewBox="0 0 66 57" fill="none" xmlns="http://www.w3.org/2000/svg">
<path d="M65.5 38.814C65.5 48.7551 57.4411 56.814 47.5 56.814L20.5 56.814C17.7386 56.814 15.5 54.5754 15.5 51.814L15.5 17.814C15.5 12.2911 19.9772 7.81396 25.5 7.81397L60.5 7.81397C63.2614 7.81397 65.5 10.0525 65.5 12.814L65.5 38.814Z" fill="#F7AB7C"/>
<g clip-path="url(#clip0_180736_8737)">
<path d="M6.00002 20.3774C6.00002 20.0024 6.0941 19.6333 6.27363 19.2993L10.8258 10.9567C11.3186 10.0529 12.2637 9.49072 13.2949 9.49072H36.2051C37.2363 9.49072 38.1797 10.0529 38.6719 10.9567L43.2246 19.2993C43.4062 19.6333 43.5 20.0024 43.5 20.3774C43.5 21.6138 42.498 22.6157 41.2617 22.6157H39.75V38.5532C39.75 39.0688 39.3281 39.4907 38.8125 39.4907C38.2969 39.4907 37.875 39.0688 37.875 38.5532V22.6157H11.625V30.1157H26.625V25.4282C26.625 24.9126 27.0469 24.4907 27.5625 24.4907C28.0781 24.4907 28.5 24.9126 28.5 25.4282V36.6782C28.5 38.231 27.2402 39.4907 25.6875 39.4907H12.5625C11.0092 39.4907 9.75 38.231 9.75 36.6782V22.6157H8.24121C7.00313 22.6157 6.00002 21.6138 6.00002 20.3774ZM41.2617 20.7407C41.4609 20.7407 41.625 20.5767 41.625 20.3774C41.625 20.313 41.6074 20.2544 41.5781 20.2017L37.0312 11.8544C36.8613 11.5532 36.5508 11.3657 36.2051 11.3657H13.2949C12.9492 11.3657 12.6387 11.5532 12.4688 11.8544L7.91953 20.2017C7.89023 20.2544 7.875 20.313 7.875 20.3774C7.875 20.5767 8.03906 20.7407 8.24121 20.7407H41.2617ZM12.5625 37.6157H25.6875C26.2031 37.6157 26.625 37.1938 26.625 36.6782V31.9907H11.625V36.6782C11.625 37.1938 12.0469 37.6157 12.5625 37.6157Z" fill="#8B4B24"/>
</g>
<defs>
<clipPath id="clip0_180736_8737">
<rect width="37.5" height="30" fill="white" transform="translate(6 9.49072)"/>
</clipPath>
</defs>
</svg>
