<svg width="66" height="57" viewBox="0 0 66 57" fill="none" xmlns="http://www.w3.org/2000/svg">
<path d="M65.5 38.814C65.5 48.7551 57.4411 56.814 47.5 56.814L20.5 56.814C17.7386 56.814 15.5 54.5754 15.5 51.814L15.5 17.814C15.5 12.2911 19.9772 7.81396 25.5 7.81397L60.5 7.81397C63.2614 7.81397 65.5 10.0525 65.5 12.814L65.5 38.814Z" fill="#FEFCB0"/>
<path d="M28.8116 24.4586C28.5708 24.4586 28.3472 24.3924 28.1486 24.2859V24.2887C28.1486 24.6676 28.0014 25.0233 27.7342 25.2898C27.467 25.557 27.1115 25.7042 26.7331 25.7042C26.4888 25.7042 26.2624 25.6364 26.0617 25.5271C26.0414 25.8736 25.9029 26.1976 25.6557 26.445C25.3886 26.7121 25.0331 26.8594 24.6544 26.8594C23.9021 26.8594 23.2912 26.268 23.2472 25.5268C23.0144 25.6526 22.7513 25.7186 22.4798 25.7012C21.7398 25.6526 21.1602 25.0132 21.1602 24.2451V17.8785L20.4353 19.1345C20.1592 19.6148 19.6423 19.9131 19.0858 19.9131C18.8146 19.9131 18.5467 19.8419 18.3095 19.706C18.014 19.5347 17.8027 19.2598 17.7148 18.9309C17.6265 18.6017 17.6722 18.2575 17.843 17.9625C17.8432 17.9625 20.215 13.8553 20.3597 13.603C20.3769 13.5651 20.4259 13.4551 20.4676 13.3613C20.5074 13.2718 20.5416 13.1799 20.5743 13.0876C21.2896 11.0683 23.0606 9.81395 25.1965 9.81395C27.9702 9.81395 30.2268 12.2608 30.2268 15.2685L30.227 23.0429C30.227 23.4213 30.08 23.7768 29.813 24.0442C29.5459 24.3114 29.1904 24.4586 28.8115 24.4586L28.8116 24.4586ZM25.1965 10.5661C23.3612 10.5661 21.8984 11.6027 21.2833 13.3391C21.2439 13.4494 21.2029 13.5596 21.1551 13.6671C21.0163 13.9783 21.0163 13.9783 20.9772 14.023L20.972 14.0186C20.7784 14.384 20.203 15.3803 18.4942 18.339C18.424 18.4603 18.4054 18.6012 18.4412 18.7359C18.4775 18.8707 18.5645 18.9843 18.6849 19.0538C19.0585 19.2684 19.5702 19.1299 19.7832 18.7588L21.2107 16.2874C21.296 16.1401 21.4684 16.0678 21.6338 16.1125C21.7983 16.1566 21.9125 16.3057 21.9125 16.4758V24.2454C21.9125 24.6119 22.1891 24.9283 22.5291 24.9507C22.7251 24.9611 22.908 24.8954 23.0453 24.7582C23.1702 24.6334 23.239 24.467 23.239 24.2892V19.2078C23.239 19 23.4074 18.8315 23.6152 18.8315C23.823 18.8315 23.9915 18.9998 23.9915 19.2078L23.9912 25.4442C23.9912 25.8098 24.2888 26.1074 24.6544 26.1074C24.8321 26.1074 24.9989 26.0386 25.124 25.9137C25.2489 25.7886 25.3177 25.6218 25.3177 25.4442V19.2078C25.3177 19 25.4859 18.8315 25.6939 18.8315C25.9017 18.8315 26.0702 18.9998 26.0702 19.2078L26.0699 24.2307V24.2891C26.0699 24.6546 26.3675 24.9521 26.7334 24.9521C26.9108 24.9521 27.0771 24.8831 27.2029 24.7577C27.3278 24.6331 27.3966 24.4668 27.3966 24.2889V19.2075C27.3966 18.9997 27.5648 18.8313 27.7728 18.8313C27.9806 18.8313 28.1491 18.9995 28.1491 19.2075L28.1486 23.0431C28.1486 23.409 28.4462 23.7065 28.8116 23.7065C28.9894 23.7065 29.1558 23.6375 29.2806 23.5129C29.406 23.3875 29.4745 23.2207 29.4745 23.0431L29.4748 15.2687C29.4748 12.676 27.5556 10.5662 25.1965 10.5662L25.1965 10.5661Z" fill="#929042"/>
<path d="M14.0291 29.862L19.4888 26.5867C20.147 26.1913 20.994 26.3593 21.4162 26.9693C21.5703 27.1915 21.649 27.4504 21.6612 27.714C21.8648 27.6078 22.0863 27.5501 22.3117 27.5501C22.4272 27.5501 22.5431 27.5644 22.6576 27.5929C23.0244 27.6846 23.3335 27.9138 23.5279 28.238C23.7225 28.5626 23.7793 28.9431 23.6876 29.3095C23.603 29.6485 23.3969 29.9339 23.1102 30.1296C23.3107 30.2479 23.4836 30.4093 23.6066 30.6147C23.8012 30.9394 23.858 31.3197 23.7665 31.6865C23.6749 32.0529 23.4457 32.3619 23.121 32.5568L23.1191 32.558C23.3161 32.676 23.486 32.8358 23.6075 33.0381C23.8024 33.3628 23.8591 33.7433 23.7675 34.1101C23.6756 34.4767 23.4464 34.7858 23.1222 34.9804L16.4558 38.9797C15.2116 39.7258 13.7733 39.9834 12.4063 39.7042C11.0271 39.4224 9.88494 38.6296 9.19043 37.4719C8.09135 35.6401 8.25606 33.4759 9.61946 31.8241C9.68189 31.7487 9.74338 31.6719 9.79922 31.5923C9.85836 31.5082 9.92739 31.4092 9.95094 31.3753C10.0921 31.1232 12.3948 26.9743 12.3946 26.9748C12.6271 26.5552 13.063 26.3177 13.5125 26.3179C13.7222 26.3179 13.9349 26.3695 14.1312 26.4784C14.3682 26.6108 14.5673 26.8037 14.7065 27.0363C14.9928 27.5133 15.0029 28.1104 14.7334 28.5935L14.0291 29.862ZM14.0618 27.423C13.9888 27.3012 13.8884 27.2042 13.7657 27.1354C13.5119 26.995 13.1925 27.0864 13.0528 27.3392C11.405 30.3077 10.8433 31.3193 10.6266 31.6794L10.6315 31.6805C10.6134 31.7408 10.6134 31.7408 10.415 32.0243C10.3476 32.1202 10.2743 32.2123 10.1997 32.303C9.02729 33.7234 8.89116 35.5109 9.83518 37.0849C10.4199 38.0598 11.3864 38.7282 12.5566 38.9671C13.7395 39.2076 14.9863 38.9838 16.0684 38.3345L22.7354 34.335C22.8876 34.2439 22.9951 34.099 23.0379 33.9272C23.0808 33.7557 23.0542 33.5774 22.9628 33.4252C22.7748 33.1118 22.3665 33.0089 22.0531 33.1976L18.7642 35.1707C18.5861 35.2777 18.3547 35.2202 18.248 35.0419C18.141 34.8637 18.1988 34.6326 18.3769 34.5257L21.666 32.5525L22.7343 31.9117C22.8864 31.8203 22.9941 31.6754 23.037 31.5041C23.0799 31.3324 23.0532 31.1538 22.9618 31.0018C22.7736 30.6882 22.3653 30.5862 22.0522 30.7742L17.6948 33.3882C17.5162 33.4954 17.2856 33.4374 17.1786 33.2593C17.0717 33.0812 17.1296 32.8501 17.3075 32.7431L22.6553 29.535C22.8075 29.4436 22.915 29.2989 22.9578 29.1272C23.0007 28.9557 22.9741 28.7773 22.8829 28.6251C22.7917 28.4732 22.6468 28.3657 22.4751 28.3229C22.3024 28.28 22.1248 28.3066 21.973 28.3976L20.9831 28.9915C20.9828 28.9915 20.9828 28.9917 20.9826 28.9917H20.9824L16.6252 31.6057C16.4466 31.7131 16.2157 31.6552 16.109 31.4768C16.0021 31.2987 16.06 31.0676 16.2379 30.9606L20.5953 28.3467C20.7475 28.2553 20.8551 28.1104 20.898 27.9391C20.9451 27.7511 20.9093 27.5588 20.7976 27.3977C20.604 27.1176 20.1898 27.0431 19.8758 27.2318L13.2136 31.2285C13.0677 31.3157 12.8809 31.2945 12.7586 31.1765C12.6361 31.0582 12.6086 30.8723 12.691 30.7236L14.0764 28.2277C14.2154 27.9782 14.2099 27.67 14.0617 27.4231L14.0618 27.423Z" fill="#929042"/>
<path d="M40.1181 37.4716C39.4238 38.6295 38.2819 39.4221 36.9025 39.7039C35.5353 39.9826 34.0974 39.7256 32.853 38.9794L26.186 34.9799C25.8616 34.7853 25.6321 34.4762 25.5402 34.1091C25.449 33.7428 25.506 33.3623 25.7004 33.0381C25.8217 32.8355 25.9918 32.6757 26.189 32.5577L26.1871 32.5565C25.8627 32.3619 25.6333 32.0528 25.5419 31.6862C25.45 31.3196 25.507 30.9389 25.7016 30.6143C25.8269 30.4058 25.9987 30.2427 26.1947 30.1271C25.9101 29.9313 25.7051 29.6469 25.6208 29.3095C25.5289 28.9427 25.5859 28.5622 25.7805 28.238C25.9749 27.9136 26.2842 27.6843 26.6508 27.5927C26.7653 27.564 26.8815 27.5498 26.9965 27.5498C27.2222 27.5501 27.4436 27.6073 27.6472 27.7138C27.6597 27.4502 27.7381 27.1912 27.8922 26.9691C28.3146 26.3596 29.1609 26.1909 29.8201 26.5864L35.2796 29.8613L34.5759 28.5937C34.3059 28.1098 34.3158 27.5128 34.6021 27.0355C34.7415 26.8032 34.9408 26.6102 35.179 26.4766C35.3748 26.3683 35.5869 26.3169 35.796 26.3169C36.2453 26.3171 36.6817 26.5542 36.9139 26.9738C37.7235 28.4324 39.2511 31.1832 39.3585 31.3752C39.3813 31.4085 39.4504 31.5074 39.5095 31.5915C39.5658 31.6714 39.6266 31.7477 39.6895 31.8236C41.0527 33.476 41.2171 35.64 40.1181 37.4716L40.1181 37.4716ZM39.1091 32.3031C39.0341 32.2124 38.9606 32.1198 38.8937 32.0243C38.6902 31.7355 38.685 31.728 38.6697 31.6523C38.4317 31.2587 37.8512 30.2136 36.2555 27.3387C36.1156 27.0864 35.7975 26.9943 35.5443 27.1342C35.4196 27.204 35.3195 27.3013 35.2465 27.4231C35.0985 27.6698 35.0928 27.9779 35.2326 28.2282L36.6174 30.7234C36.7001 30.8723 36.6725 31.0579 36.5503 31.1762C36.4282 31.2947 36.2416 31.3154 36.0951 31.2283L29.4329 27.2315C29.1189 27.0433 28.7049 27.117 28.5108 27.3974C28.3991 27.5586 28.3635 27.7508 28.4102 27.9386C28.4531 28.1101 28.5607 28.2548 28.7132 28.3462C28.7136 28.3464 28.7139 28.3469 28.7143 28.3471L33.0703 30.9603C33.2484 31.0673 33.3062 31.2982 33.1992 31.4765C33.0922 31.6544 32.8616 31.7126 32.683 31.6054L27.3352 28.3973C27.1834 28.3064 27.0048 28.2795 26.8333 28.3226C26.6613 28.3655 26.5167 28.4729 26.4255 28.6254C26.3341 28.7773 26.3077 28.9557 26.3501 29.1272C26.393 29.2987 26.5007 29.4436 26.6529 29.535L27.6935 30.1591L32.0005 32.7432C32.1786 32.8501 32.2363 33.081 32.1293 33.2594C32.0224 33.4372 31.7917 33.4952 31.6131 33.3882L27.2562 30.7743C26.9429 30.5858 26.5348 30.688 26.3464 31.0019C26.255 31.154 26.2286 31.3324 26.271 31.5039C26.3139 31.6754 26.4215 31.8201 26.5739 31.9117L27.6422 32.5526L30.9308 34.5257C31.109 34.6327 31.1667 34.8635 31.0597 35.0419C30.9528 35.2198 30.7221 35.2782 30.5435 35.1708L27.2548 33.1976C27.1031 33.1067 26.9252 33.0798 26.7528 33.1229C26.5813 33.1658 26.4361 33.2733 26.345 33.4252C26.2538 33.5774 26.2272 33.756 26.2696 33.9273C26.3124 34.0988 26.4201 34.2434 26.5725 34.3351L33.2395 38.3346C34.3214 38.9837 35.5691 39.2084 36.7514 38.9671C37.9213 38.7282 38.8878 38.0598 39.4725 37.0849C40.4175 35.5106 40.2816 33.723 39.1095 32.303L39.1091 32.3031Z" fill="#929042"/>
</svg>
