<svg width="66" height="57" viewBox="0 0 66 57" fill="none" xmlns="http://www.w3.org/2000/svg">
<path d="M65.5 38.814C65.5 48.7551 57.4411 56.814 47.5 56.814L20.5 56.814C17.7386 56.814 15.5 54.5754 15.5 51.814L15.5 17.814C15.5 12.2911 19.9772 7.81396 25.5 7.81397L60.5 7.81397C63.2614 7.81397 65.5 10.0525 65.5 12.814L65.5 38.814Z" fill="#4A6F73" fill-opacity="0.5"/>
<g clip-path="url(#clip0_180774_1667)">
<path d="M38.0625 23.2603C37.4402 22.3228 35.6016 21.2095 35.6016 21.2095C36.1069 20.272 36.2977 19.3052 36.1582 18.3091C36.0187 17.313 35.6235 16.4563 34.957 15.731C34.2905 15.0056 33.4852 14.5298 32.5254 14.2954C32.1856 14.2123 31.8451 14.1707 31.5029 14.1707C30.8801 14.1707 30.2537 14.3092 29.625 14.5884C29.4712 13.1452 28.8563 11.9294 27.7793 10.9556C26.7023 9.98174 25.4414 9.49072 24 9.49072C22.5586 9.49072 21.2988 9.98145 20.2207 10.9556C19.1426 11.9297 18.5273 13.1458 18.375 14.5884C17.748 14.3095 17.1211 14.1706 16.4941 14.1706C16.1525 14.1706 15.8115 14.2124 15.4717 14.2954C14.5119 14.5297 13.7068 15.0055 13.04 15.7309C12.3732 16.4563 11.9783 17.3129 11.8389 18.309C11.6994 19.3051 11.9048 20.2719 12.4541 21.2094C11.3994 21.6415 10.5568 22.3227 9.93457 23.2602C9.3123 24.1977 9 25.229 9 26.3657C9 27.9255 9.54932 29.2591 10.6406 30.3501C11.7319 31.4411 13.0652 31.9907 14.625 31.9907H23.0625V38.5532C23.0625 39.0714 23.4879 39.4907 24.0059 39.4907C24.5238 39.4907 24.9375 39.0688 24.9375 38.5532V31.9907H33.375C34.9348 31.9907 36.2684 31.4414 37.3594 30.3501C38.4504 29.2588 39 27.9243 39 26.3657C39 25.229 38.6836 24.1978 38.0625 23.2603ZM36.0352 29.0259C35.291 29.77 34.4414 30.1157 33.375 30.1157H24.9375V28.6286L28.4127 25.1534C28.7789 24.7872 28.7789 24.1937 28.4127 23.828C28.0465 23.4624 27.4529 23.4618 27.0873 23.828L24.9375 25.979V17.9282C24.9375 17.41 24.5177 16.9901 23.9994 16.9901C23.4812 16.9901 23.0625 17.4126 23.0625 17.9282V22.7552L20.9824 20.1548C20.6583 19.7538 20.0695 19.686 19.6641 20.0083C19.2598 20.3306 19.1426 20.9224 19.5176 21.3267L23.0625 25.7563V30.1157H14.625C13.5557 30.1157 12.7113 29.7688 11.9666 29.0241C11.2219 28.2817 10.875 27.4321 10.875 26.3657C10.875 25.6069 11.0793 24.9302 11.4996 24.2974C11.9106 23.6786 12.4564 23.2362 13.1678 22.9444L15.167 22.1253L14.0748 20.2603C13.7373 19.6333 13.6178 19.147 13.6986 18.5669C13.7863 17.9394 14.0166 17.4407 14.4234 16.9983C14.842 16.5431 15.3176 16.2624 15.9199 16.1153C16.1133 16.0708 16.3066 16.0474 16.4941 16.0474C16.8571 16.0474 17.223 16.1314 17.6121 16.3039L19.9688 17.3481L20.2414 14.7894C20.3462 13.8062 20.7515 13.0081 21.4807 12.3483C22.2188 11.6769 23.0215 11.3657 24 11.3657C24.9785 11.3657 25.7824 11.6771 26.5213 12.346C27.2502 13.0058 27.6557 13.8044 27.7605 14.787L28.0312 17.3481L30.3832 16.3046C30.7724 16.132 31.1379 16.048 31.5012 16.048C31.6935 16.048 31.8823 16.0714 32.0782 16.1192C32.6805 16.2663 33.1557 16.5469 33.5747 17.0022C33.9813 17.4446 34.2116 17.9432 34.2995 18.5708C34.3816 19.1596 34.2672 19.7327 33.9493 20.3221L33.1061 21.8901L34.6266 22.8153C35.3292 23.2426 36.2708 23.9579 36.4981 24.3006C36.9199 24.9302 37.125 25.604 37.125 26.3657C37.125 27.4321 36.7793 28.2817 36.0352 29.0259Z" fill="#2A3B3D"/>
</g>
<defs>
<clipPath id="clip0_180774_1667">
<rect width="30" height="30" fill="white" transform="translate(9 9.49072)"/>
</clipPath>
</defs>
</svg>
