<svg width="66" height="57" viewBox="0 0 66 57" fill="none" xmlns="http://www.w3.org/2000/svg">
<path d="M65.5 38.814C65.5 48.7551 57.4411 56.814 47.5 56.814L20.5 56.814C17.7386 56.814 15.5 54.5754 15.5 51.814L15.5 17.814C15.5 12.2911 19.9772 7.81396 25.5 7.81397L60.5 7.81397C63.2614 7.81397 65.5 10.0525 65.5 12.814L65.5 38.814Z" fill="#E9BBE7"/>
<path d="M27.4164 19.8248C27.1043 19.8248 26.8507 19.5716 26.8507 19.2592V18.2979C26.8507 17.9858 27.1039 17.7322 27.4164 17.7322C27.7284 17.7322 27.982 17.9854 27.982 18.2979V19.2592C27.982 19.5716 27.7284 19.8248 27.4164 19.8248Z" fill="#9B3997"/>
<path d="M25.0381 19.8248C24.726 19.8248 24.4724 19.5716 24.4724 19.2592V18.2979C24.4724 17.9858 24.7256 17.7322 25.0381 17.7322C25.3501 17.7322 25.6037 17.9854 25.6037 18.2979V19.2592C25.6033 19.5716 25.3505 19.8248 25.0381 19.8248Z" fill="#9B3997"/>
<path d="M22.66 19.8248C22.348 19.8248 22.0944 19.5716 22.0944 19.2592V18.2979C22.0944 17.9858 22.3476 17.7322 22.66 17.7322C22.9721 17.7322 23.2257 17.9854 23.2257 18.2979V19.2592C23.2257 19.5716 22.9725 19.8248 22.66 19.8248Z" fill="#9B3997"/>
<path d="M27.4164 23.7561C27.1043 23.7561 26.8507 23.5028 26.8507 23.1904V22.2295C26.8507 21.9175 27.1039 21.6638 27.4164 21.6638C27.7284 21.6638 27.982 21.9171 27.982 22.2295V23.1904C27.982 23.5028 27.7284 23.7561 27.4164 23.7561Z" fill="#9B3997"/>
<path d="M25.0381 23.7561C24.726 23.7561 24.4724 23.5028 24.4724 23.1904V22.2295C24.4724 21.9175 24.7256 21.6638 25.0381 21.6638C25.3501 21.6638 25.6037 21.9171 25.6037 22.2295V23.1904C25.6033 23.5028 25.3505 23.7561 25.0381 23.7561Z" fill="#9B3997"/>
<path d="M22.66 23.7561C22.348 23.7561 22.0944 23.5028 22.0944 23.1904V22.2295C22.0944 21.9175 22.3476 21.6638 22.66 21.6638C22.9721 21.6638 23.2257 21.9171 23.2257 22.2295V23.1904C23.2257 23.5028 22.9725 23.7561 22.66 23.7561Z" fill="#9B3997"/>
<path d="M27.4164 27.6874C27.1043 27.6874 26.8507 27.4341 26.8507 27.1217V26.1604C26.8507 25.8484 27.1039 25.5947 27.4164 25.5947C27.7284 25.5947 27.982 25.848 27.982 26.1604V27.1217C27.982 27.4341 27.7284 27.6874 27.4164 27.6874Z" fill="#9B3997"/>
<path d="M25.0381 27.6874C24.726 27.6874 24.4724 27.4341 24.4724 27.1217V26.1604C24.4724 25.8484 24.7256 25.5947 25.0381 25.5947C25.3501 25.5947 25.6037 25.848 25.6037 26.1604V27.1217C25.6033 27.4341 25.3505 27.6874 25.0381 27.6874Z" fill="#9B3997"/>
<path d="M22.66 27.6874C22.348 27.6874 22.0944 27.4341 22.0944 27.1217V26.1604C22.0944 25.8484 22.3476 25.5947 22.66 25.5947C22.9721 25.5947 23.2257 25.848 23.2257 26.1604V27.1217C23.2257 27.4341 22.9725 27.6874 22.66 27.6874Z" fill="#9B3997"/>
<path d="M27.4164 31.6178C27.1043 31.6178 26.8507 31.3646 26.8507 31.0521V30.0908C26.8507 29.7788 27.1039 29.5251 27.4164 29.5251C27.7284 29.5251 27.982 29.7784 27.982 30.0908V31.0521C27.982 31.3646 27.7284 31.6178 27.4164 31.6178Z" fill="#9B3997"/>
<path d="M25.0381 31.6178C24.726 31.6178 24.4724 31.3646 24.4724 31.0521V30.0908C24.4724 29.7788 24.7256 29.5251 25.0381 29.5251C25.3501 29.5251 25.6037 29.7784 25.6037 30.0908V31.0521C25.6033 31.3646 25.3505 31.6178 25.0381 31.6178Z" fill="#9B3997"/>
<path d="M22.66 31.6178C22.348 31.6178 22.0944 31.3646 22.0944 31.0521V30.0908C22.0944 29.7788 22.3476 29.5251 22.66 29.5251C22.9721 29.5251 23.2257 29.7784 23.2257 30.0908V31.0521C23.2257 31.3646 22.9725 31.6178 22.66 31.6178Z" fill="#9B3997"/>
<path d="M27.4164 35.5488C27.1043 35.5488 26.8507 35.2956 26.8507 34.9831V34.0222C26.8507 33.7102 27.1039 33.4565 27.4164 33.4565C27.7284 33.4565 27.982 33.7098 27.982 34.0222V34.9831C27.982 35.2952 27.7284 35.5488 27.4164 35.5488Z" fill="#9B3997"/>
<path d="M25.0381 35.5488C24.726 35.5488 24.4724 35.2956 24.4724 34.9831V34.0222C24.4724 33.7102 24.7256 33.4565 25.0381 33.4565C25.3501 33.4565 25.6037 33.7098 25.6037 34.0222V34.9831C25.6033 35.2952 25.3505 35.5488 25.0381 35.5488Z" fill="#9B3997"/>
<path d="M22.66 35.5488C22.348 35.5488 22.0944 35.2956 22.0944 34.9831L22.0948 34.0222C22.0948 33.7102 22.348 33.4565 22.6604 33.4565C22.9725 33.4565 23.2261 33.7098 23.2261 34.0222V34.9831C23.2257 35.2952 22.9725 35.5488 22.66 35.5488Z" fill="#9B3997"/>
<path d="M6.50047 39.4611C6.50047 39.7731 6.75372 40.0268 7.06615 40.0268H41.5139C41.8259 40.0268 42.0796 39.7735 42.0796 39.4611C42.0796 39.1491 41.8263 38.8954 41.5139 38.8954H40.4682V22.6541C40.4682 22.3421 40.215 22.0885 39.9025 22.0885L30.6668 22.0889V10.3797C30.6668 10.1817 30.5635 9.99867 30.3946 9.8961C30.2262 9.79315 30.0156 9.78684 29.8404 9.87796L19.3401 15.3449C19.1527 15.4424 19.0359 15.6357 19.0359 15.8467V26.0744H8.87388C8.56186 26.0744 8.3082 26.3277 8.3082 26.6401V38.8955H7.06489C6.75287 38.8951 6.5 39.1484 6.5 39.4608L6.50047 39.4611ZM30.667 30.6562H39.3374V38.8959L30.667 38.8955V30.6562ZM30.667 26.7253H39.3374V29.5253L30.667 29.5249V26.7253ZM30.667 23.2196H39.3374V25.5948H30.667V23.2196ZM20.1667 16.1902L29.5353 11.3121V38.895H20.1667V16.1902ZM12.2359 34.3775C12.2359 33.2035 13.166 32.2481 14.3096 32.2481C15.4531 32.2481 16.3837 33.2031 16.3837 34.3775V38.8957H12.2359V34.3775ZM9.43952 27.2056H19.0358V38.8955H17.515V34.3773C17.515 32.5796 16.0776 31.117 14.3096 31.117C12.5424 31.117 11.105 32.5792 11.105 34.3773V38.8955H9.43952V27.2056Z" fill="#9B3997"/>
</svg>
