<svg width="840" height="478" viewBox="0 0 840 478" fill="none" xmlns="http://www.w3.org/2000/svg">
<path fill-rule="evenodd" clip-rule="evenodd" d="M-38.3351 -99.9803L-35.3115 -106.084L-32.2801 -112.246L-29.2354 -118.464L-26.1717 -124.739L-23.0825 -131.07L-19.9613 -137.455L-16.8008 -143.89L-13.5934 -150.373L-10.3316 -156.898L-7.00699 -163.46L-3.61188 -170.054L-0.139238 -176.673L3.41715 -183.312L7.06274 -189.966L10.8025 -196.629L14.6409 -203.298L18.5818 -209.967L22.6292 -216.631L26.7862 -223.286L31.0562 -229.926L35.4422 -236.545L39.947 -243.139L44.5732 -249.702L49.3232 -256.228L54.1994 -262.71L59.2036 -269.142L64.3377 -275.518L69.6031 -281.832L75.0009 -288.076L80.5319 -294.244L86.197 -300.329L91.9963 -306.325L97.9302 -312.223L103.999 -318.015L110.203 -323.693L116.542 -329.247L123.014 -334.67L129.62 -339.95L136.358 -345.079L143.225 -350.047L150.221 -354.843L157.343 -359.458L164.586 -363.882L171.949 -368.105L179.427 -372.117L187.016 -375.91L194.71 -379.474L202.505 -382.801L210.394 -385.882L218.371 -388.711L226.43 -391.28L234.562 -393.583L242.762 -395.615L251.02 -397.372L259.33 -398.85L267.682 -400.045L276.068 -400.955L284.48 -401.58L292.909 -401.919L301.346 -401.973L309.783 -401.742L318.211 -401.23L326.622 -400.44L335.007 -399.375L343.358 -398.04L351.668 -396.441L359.929 -394.583L368.134 -392.474L376.277 -390.122L384.35 -387.533L392.348 -384.717L400.266 -381.682L408.098 -378.437L415.84 -374.991L423.487 -371.353L431.036 -367.534L438.483 -363.541L445.826 -359.385L453.063 -355.074L460.19 -350.618L467.206 -346.025L474.11 -341.303L480.9 -336.46L487.576 -331.504L494.136 -326.442L500.581 -321.281L506.909 -316.028L513.122 -310.689L519.22 -305.275L525.205 -299.793L531.08 -294.255L536.848 -288.67L542.513 -283.048L548.08 -277.401L553.553 -271.74L558.938 -266.074L564.243 -260.414L569.473 -254.771L574.638 -249.154L579.744 -243.573L584.801 -238.038L589.818 -232.557L594.804 -227.14L599.771 -221.794L604.728 -216.528L609.689 -211.35L614.664 -206.267L619.665 -201.283L624.702 -196.401L629.784 -191.624L634.922 -186.95L640.122 -182.377L645.391 -177.902L650.734 -173.52L656.157 -169.224L661.662 -165.005L667.25 -160.856L672.921 -156.765L678.674 -152.721L684.505 -148.713L690.41 -144.727L696.384 -140.749L702.417 -136.768L708.502 -132.767L714.628 -128.735L720.783 -124.655L726.955 -120.515L733.128 -116.302L739.288 -112.002L745.419 -107.603L751.504 -103.094L757.525 -98.4637L763.464 -93.7025L769.303 -88.8018L775.023 -83.7541L780.605 -78.5528L786.031 -73.193L791.282 -67.6706L796.339 -61.9833L801.186 -56.1295L805.805 -50.1094L810.18 -43.9243L814.296 -37.5769L818.138 -31.0709L821.692 -24.4113L824.948 -17.6043L827.893 -10.6572L830.52 -3.57809L832.819 3.62385L834.786 10.9387L836.414 18.3556L837.701 25.8634L838.646 33.4501L839.249 41.1035L839.511 48.8111L839.436 56.56L839.028 64.3375L838.296 72.1306L837.245 79.9268L835.886 87.7134L834.229 95.4783L832.287 103.21L830.072 110.897L827.601 118.528L824.891 126.093L821.961 133.582L818.834 140.986L815.532 148.299L812.078 155.512L808.497 162.62L804.813 169.62L801.052 176.507L797.239 183.281L793.398 189.94L789.554 196.486L785.732 202.922L781.953 209.249L778.241 215.473L774.615 221.6L771.096 227.636L767.703 233.589L764.451 239.467L761.358 245.28L758.435 251.037L755.695 256.749L753.147 262.428L750.799 268.083L748.657 273.726L746.724 279.369L745.001 285.023L743.488 290.699L742.182 296.407L741.079 302.157L740.173 307.96L739.456 313.824L738.919 319.757L738.549 325.767L738.334 331.86L738.261 338.042L738.315 344.317L738.479 350.688L738.736 357.158L739.068 363.727L739.458 370.396L739.887 377.164L740.334 384.028L740.782 390.986L741.211 398.031L741.603 405.16L741.937 412.365L742.197 419.639L742.364 426.974L742.422 434.362L742.354 441.791L742.146 449.253L741.782 456.736L741.249 464.23L740.536 471.722L739.63 479.201L738.523 486.654L737.206 494.071L735.671 501.439L733.912 508.746L731.925 515.981L729.706 523.132L727.252 530.189L724.563 537.141L721.639 543.978L718.481 550.692L715.092 557.273L711.474 563.714L707.632 570.008L703.572 576.148L699.299 582.128L694.82 587.945L690.142 593.593L685.273 599.07L680.222 604.374L674.996 609.501L669.603 614.45L664.05 619.217L658.344 623.799L652.489 628.191L646.492 632.388L640.357 636.386L634.089 640.178L627.694 643.76L621.177 647.125L614.541 650.266L607.792 653.177L600.936 655.853L593.977 658.286L586.921 660.469L579.773 662.397L572.541 664.062L565.229 665.459L557.845 666.581L550.395 667.424L542.888 667.98L535.33 668.247L527.731 668.222L520.1 667.902L512.445 667.286L504.778 666.376L497.108 665.172L489.445 663.678L481.801 661.899L474.186 659.838L466.61 657.505L459.084 654.906L451.619 652.052L444.225 648.953L436.911 645.621L429.687 642.07L422.562 638.313L415.544 634.366L408.641 630.246L401.861 625.968L395.208 621.551L388.689 617.014L382.307 612.375L376.068 607.653L369.972 602.869L364.023 598.042L358.221 593.192L352.565 588.339L347.054 583.504L341.687 578.705L336.459 573.961L331.367 569.292L326.405 564.715L321.568 560.248L316.849 555.906L312.239 551.706L307.732 547.661L303.318 543.784L298.987 540.088L294.73 536.582L290.536 533.277L286.395 530.179L282.295 527.294L278.226 524.628L274.176 522.183L270.135 519.961L266.091 517.962L262.034 516.183L257.954 514.623L253.841 513.275L249.685 512.135L245.479 511.193L241.214 510.441L236.882 509.869L232.478 509.465L227.997 509.216L223.432 509.11L218.781 509.132L214.039 509.272L209.203 509.516L204.269 509.854L199.236 510.275L194.102 510.766L188.863 511.318L183.52 511.919L178.071 512.559L172.516 513.229L166.854 513.917L161.086 514.614L155.212 515.31L149.233 515.997L143.151 516.664L136.966 517.304L130.68 517.909L124.293 518.472L117.809 518.986L111.226 519.444L104.549 519.84L97.7789 520.166L90.9189 520.416L83.9725 520.583L76.9437 520.658L69.8371 520.635L62.6577 520.505L55.4112 520.263L48.1038 519.899L40.742 519.407L33.3331 518.779L25.8849 518.008L18.4053 517.088L10.9032 516.012L3.38736 514.772L-4.13257 513.365L-11.647 511.782L-19.1457 510.02L-26.6185 508.074L-34.0547 505.939L-41.4436 503.611L-48.7745 501.088L-56.0363 498.366L-63.2179 495.443L-70.3085 492.317L-77.2969 488.989L-84.1724 485.456L-90.9241 481.72L-97.5415 477.781L-104.014 473.641L-110.332 469.3L-116.485 464.763L-122.465 460.032L-128.261 455.111L-133.866 450.004L-139.272 444.716L-144.47 439.252L-149.455 433.618L-154.219 427.819L-158.756 421.864L-163.062 415.757L-167.133 409.508L-170.963 403.123L-174.55 396.61L-177.892 389.978L-180.986 383.235L-183.832 376.388L-186.428 369.447L-188.775 362.421L-190.874 355.317L-192.727 348.144L-194.335 340.912L-195.702 333.628L-196.831 326.301L-197.726 318.939L-198.391 311.551L-198.833 304.143L-199.057 296.723L-199.071 289.299L-198.881 281.878L-198.495 274.466L-197.921 267.069L-197.168 259.693L-196.243 252.343L-195.156 245.025L-193.916 237.741L-192.53 230.497L-191.007 223.295L-189.356 216.139L-187.585 209.032L-185.701 201.974L-183.711 194.969L-181.624 188.017L-179.444 181.12L-177.178 174.279L-174.832 167.493L-172.41 160.765L-169.918 154.092L-167.359 147.477L-164.739 140.918L-162.06 134.415L-159.326 127.967L-156.542 121.575L-153.71 115.237L-150.833 108.952L-147.914 102.72L-144.957 96.5389L-141.963 90.4081L-138.935 84.3261L-135.876 78.2916L-132.789 72.3029L-129.676 66.3585L-126.539 60.4564L-123.382 54.5948L-120.206 48.7714L-117.014 42.9839L-113.809 37.23L-110.593 31.5071L-107.369 25.8121L-104.14 20.1422L-100.908 14.4941L-97.6757 8.86442L-94.4456 3.24963L-91.22 -2.3541L-88.0013 -7.9506L-84.7915 -13.544L-81.5928 -19.1385L-78.4067 -24.7384L-75.2349 -30.3482L-72.0783 -35.9721L-68.9381 -41.6148L-65.8146 -47.2806L-62.708 -52.974L-59.6181 -58.6992L-56.5443 -64.4603L-53.4851 -70.2613L-50.4392 -76.1058L-47.4041 -81.9972L-44.3773 -87.9384L-41.3556 -93.9321L-38.3351 -99.9803Z" fill="#59959C"/>
</svg>
