<svg width="1009" height="662" viewBox="0 0 1009 662" fill="none" xmlns="http://www.w3.org/2000/svg">
<path fill-rule="evenodd" clip-rule="evenodd" d="M801.215 403.122L795.807 406.758L790.548 410.337L785.442 413.867L780.494 417.354L775.707 420.807L771.082 424.233L766.621 427.64L762.324 431.035L758.191 434.424L754.22 437.815L750.409 441.215L746.757 444.628L743.258 448.062L739.91 451.521L736.708 455.012L733.646 458.537L730.72 462.102L727.922 465.711L725.247 469.367L722.688 473.073L720.238 476.831L717.888 480.645L715.633 484.515L713.464 488.443L711.373 492.43L709.352 496.476L707.394 500.583L705.491 504.749L703.634 508.975L701.818 513.259L700.033 517.602L698.274 522.001L696.533 526.456L694.803 530.966L693.079 535.529L691.354 540.144L689.624 544.81L687.883 549.525L686.126 554.288L684.35 559.099L682.549 563.956L680.72 568.857L678.856 573.799L676.954 578.781L675.01 583.8L673.017 588.853L670.972 593.935L668.869 599.045L666.704 604.176L664.473 609.325L662.17 614.487L659.792 619.657L657.333 624.83L654.79 629.999L652.159 635.158L649.435 640.302L646.615 645.423L643.696 650.515L640.675 655.57L637.547 660.581L634.311 665.54L630.965 670.441L627.506 675.274L623.932 680.033L620.243 684.708L616.437 689.293L612.514 693.778L608.473 698.156L604.314 702.42L600.039 706.56L595.648 710.57L591.143 714.442L586.525 718.169L581.796 721.743L576.96 725.159L572.02 728.409L566.978 731.489L561.838 734.391L556.606 737.112L551.284 739.647L545.878 741.992L540.393 744.142L534.835 746.097L529.208 747.852L523.519 749.408L517.774 750.762L511.979 751.915L506.139 752.867L500.262 753.619L494.354 754.173L488.421 754.533L482.469 754.701L476.504 754.681L470.534 754.48L464.562 754.103L458.597 753.557L452.642 752.852L446.704 751.996L440.787 751L434.895 749.874L429.033 748.629L423.203 747.277L417.409 745.832L411.654 744.306L405.937 742.712L400.261 741.064L394.627 739.376L389.032 737.661L383.478 735.934L377.961 734.207L372.48 732.496L367.032 730.812L361.613 729.169L356.219 727.58L350.846 726.055L345.487 724.607L340.138 723.246L334.792 721.982L329.442 720.823L324.082 719.778L318.704 718.853L313.302 718.054L307.867 717.385L302.392 716.85L296.87 716.451L291.294 716.188L285.654 716.063L279.946 716.074L274.161 716.219L268.292 716.498L262.334 716.907L256.278 717.443L250.119 718.101L243.851 718.876L237.468 719.763L230.966 720.755L224.339 721.845L217.584 723.026L210.696 724.29L203.672 725.627L196.51 727.029L189.207 728.485L181.761 729.987L174.173 731.523L166.44 733.082L158.564 734.654L150.545 736.227L142.385 737.79L134.085 739.331L125.649 740.839L117.08 742.301L108.38 743.705L99.5562 745.041L90.6118 746.296L81.5529 747.459L72.3856 748.518L63.1166 749.463L53.753 750.282L44.3023 750.966L34.7727 751.503L25.1725 751.884L15.5106 752.1L5.79605 752.142L-3.96166 752.001L-13.7528 751.669L-23.5676 751.139L-33.3957 750.404L-43.227 749.458L-53.0512 748.295L-62.8577 746.91L-72.6361 745.298L-82.376 743.455L-92.067 741.379L-101.699 739.066L-111.261 736.514L-120.744 733.722L-130.138 730.69L-139.433 727.416L-148.62 723.901L-157.688 720.146L-166.629 716.151L-175.432 711.917L-184.086 707.444L-192.582 702.735L-200.908 697.791L-209.056 692.614L-217.015 687.207L-224.774 681.573L-232.325 675.715L-239.657 669.637L-246.761 663.344L-253.628 656.84L-260.25 650.13L-266.618 643.22L-272.724 636.117L-278.561 628.825L-284.121 621.353L-289.398 613.707L-294.385 605.894L-299.077 597.922L-303.468 589.8L-307.553 581.535L-311.328 573.136L-314.788 564.611L-317.929 555.969L-320.748 547.219L-323.241 538.37L-325.405 529.431L-327.238 520.412L-328.735 511.32L-329.896 502.166L-330.717 492.958L-331.198 483.708L-331.338 474.423L-331.137 465.114L-330.598 455.792L-329.723 446.465L-328.514 437.145L-326.977 427.84L-325.115 418.562L-322.935 409.319L-320.444 400.121L-317.65 390.978L-314.559 381.898L-311.182 372.89L-307.529 363.963L-303.61 355.125L-299.435 346.382L-295.017 337.743L-290.369 329.213L-285.502 320.799L-280.43 312.506L-275.167 304.34L-269.727 296.304L-264.125 288.404L-258.373 280.64L-252.489 273.018L-246.485 265.537L-240.378 258.2L-234.182 251.008L-227.911 243.96L-221.581 237.056L-215.206 230.295L-208.801 223.675L-202.379 217.194L-195.954 210.849L-189.539 204.636L-183.148 198.553L-176.792 192.593L-170.483 186.754L-164.233 181.029L-158.051 175.412L-151.949 169.899L-145.935 164.483L-140.017 159.157L-134.204 153.914L-128.503 148.748L-122.919 143.652L-117.458 138.619L-112.125 133.641L-106.923 128.712L-101.855 123.824L-96.9245 118.97L-92.1315 114.144L-87.4765 109.339L-82.9585 104.548L-78.5746 99.7665L-74.3209 94.989L-70.1922 90.2114L-66.1821 85.4301L-62.2833 80.6421L-58.4876 75.8452L-54.7859 71.038L-51.1687 66.2199L-47.6256 61.3908L-44.1463 56.5516L-40.7196 51.7037L-37.3346 46.8493L-33.98 41.9912L-30.6447 37.1329L-27.3176 32.2783L-23.988 27.4318L-20.6453 22.5985L-17.2795 17.7837L-13.881 12.9929L-10.4408 8.23207L-6.95069 3.50725L-3.403 -1.17542L0.209038 -5.80992L3.89142 -10.3903L7.6491 -14.9106L11.4863 -19.3654L15.406 -23.7497L19.4105 -28.0587L23.5007 -32.2885L27.6768 -36.4356L31.9379 -40.4976L36.2824 -44.4724L40.7083 -48.3581L45.2132 -52.1535L49.7947 -55.8575L54.4497 -59.4695L59.175 -62.9893L63.9672 -66.4169L68.8227 -69.7528L73.7377 -72.9979L78.7083 -76.1535L83.7304 -79.2211L88.8 -82.2025L93.913 -85.1001L99.0653 -87.9164L104.253 -90.6541L109.472 -93.3164L114.718 -95.9066L119.988 -98.4282L125.279 -100.885L130.586 -103.28L135.906 -105.619L141.237 -107.905L146.576 -110.141L151.921 -112.333L157.268 -114.485L162.617 -116.6L167.965 -118.682L173.311 -120.737L178.654 -122.767L183.992 -124.776L189.327 -126.768L194.656 -128.747L199.981 -130.715L205.301 -132.675L210.616 -134.631L215.928 -136.584L221.237 -138.537L226.545 -140.491L231.852 -142.449L237.16 -144.412L242.471 -146.38L247.787 -148.355L253.108 -150.336L258.438 -152.325L263.778 -154.32L269.13 -156.321L274.496 -158.328L279.878 -160.339L285.278 -162.354L290.699 -164.371L296.142 -166.388L301.61 -168.403L307.104 -170.415L312.625 -172.421L318.177 -174.418L323.76 -176.404L329.376 -178.375L335.027 -180.328L340.714 -182.259L346.438 -184.165L352.2 -186.04L358.001 -187.882L363.842 -189.685L369.724 -191.446L375.645 -193.159L381.607 -194.821L387.61 -196.427L393.653 -197.973L399.736 -199.455L405.857 -200.868L412.017 -202.208L418.214 -203.472L424.446 -204.655L430.714 -205.754L437.014 -206.766L443.346 -207.687L449.707 -208.513L456.096 -209.242L462.51 -209.871L468.948 -210.397L475.407 -210.817L481.885 -211.129L488.379 -211.33L494.887 -211.417L501.405 -211.387L507.931 -211.239L514.462 -210.969L520.994 -210.577L527.525 -210.06L534.053 -209.418L540.573 -208.65L547.083 -207.758L553.581 -206.741L560.064 -205.601L566.531 -204.34L572.978 -202.959L579.405 -201.461L585.81 -199.849L592.191 -198.126L598.548 -196.296L604.88 -194.362L611.187 -192.329L617.468 -190.2L623.724 -187.98L629.955 -185.674L636.162 -183.286L642.347 -180.82L648.51 -178.282L654.653 -175.676L660.778 -173.006L666.887 -170.277L672.983 -167.493L679.068 -164.658L685.144 -161.775L691.215 -158.849L697.283 -155.883L703.351 -152.88L709.422 -149.842L715.499 -146.772L721.584 -143.672L727.682 -140.543L733.794 -137.387L739.924 -134.204L746.073 -130.995L752.244 -127.76L758.438 -124.498L764.659 -121.208L770.906 -117.89L777.182 -114.543L783.487 -111.163L789.821 -107.748L796.184 -104.297L802.577 -100.806L808.997 -97.2719L815.445 -93.6913L821.918 -90.0605L828.414 -86.3758L834.93 -82.6329L841.463 -78.8277L848.009 -74.9558L854.564 -71.0122L861.121 -66.9917L867.674 -62.8886L874.215 -58.6974L880.735 -54.4122L887.226 -50.0271L893.677 -45.5364L900.077 -40.9348L906.415 -36.2168L912.679 -31.3776L918.856 -26.4127L924.934 -21.3179L930.899 -16.0897L936.739 -10.7251L942.439 -5.22156L947.986 0.422591L953.366 6.20854L958.565 12.1367L963.572 18.207L968.371 24.4183L972.95 30.769L977.297 37.2568L981.399 43.8786L985.246 50.6308L988.824 57.5088L992.125 64.5076L995.138 71.6217L997.854 78.8448L1000.26 86.1699L1002.36 93.5899L1004.14 101.097L1005.59 108.683L1006.7 116.338L1007.49 124.055L1007.93 131.823L1008.02 139.633L1007.78 147.475L1007.19 155.338L1006.26 163.213L1004.99 171.088L1003.38 178.953L1001.43 186.798L999.162 194.612L996.569 202.385L993.663 210.108L990.451 217.77L986.943 225.362L983.148 232.875L979.078 240.3L974.744 247.629L970.16 254.854L965.337 261.968L960.292 268.965L955.037 275.837L949.587 282.581L943.958 289.19L938.166 295.662L932.227 301.992L926.157 308.177L919.972 314.216L913.689 320.107L907.325 325.849L900.894 331.442L894.415 336.888L887.903 342.187L881.373 347.342L874.842 352.355L868.324 357.229L861.833 361.968L855.384 366.576L848.99 371.059L842.664 375.421L836.419 379.669L830.265 383.809L824.213 387.847L818.274 391.79L812.455 395.645L806.767 399.42L801.215 403.122Z" fill="#59959C"/>
</svg>
