<svg width="466" height="466" viewBox="0 0 466 466" fill="none" xmlns="http://www.w3.org/2000/svg">
<path d="M349.35 55.6021C349.35 55.6021 280.764 17.2446 202.097 46.3786C123.431 75.5127 73.2315 151.371 30.9824 211.805C-11.2667 272.239 -4.85201 342.075 44.6687 381.849C94.1895 421.622 139.045 383.039 216.165 393.905C293.284 404.77 312.052 419.242 383.126 386.764C454.2 354.286 483.167 253.852 445.845 169.58C408.523 85.3074 349.35 55.6021 349.35 55.6021Z" fill="#59959C"/>
<path opacity="0.8" d="M349.35 55.6021C349.35 55.6021 280.764 17.2446 202.097 46.3786C123.431 75.5127 73.2315 151.371 30.9824 211.805C-11.2667 272.239 -4.85201 342.075 44.6687 381.849C94.1895 421.622 139.045 383.039 216.165 393.905C293.284 404.77 312.052 419.242 383.126 386.764C454.2 354.286 483.167 253.852 445.845 169.58C408.523 85.3074 349.35 55.6021 349.35 55.6021Z" fill="white"/>
<path d="M411.76 162.368C405.893 159.166 403.227 161.832 401.049 159.166C398.871 156.5 406.916 149.562 390.909 142.624C390.909 142.624 389.85 127.688 367.976 127.152C346.101 126.616 352.052 142.1 346.101 145.825C340.151 149.55 338.627 143.695 332.76 147.432C326.893 151.169 329.559 158.631 324.763 159.702C319.966 160.773 313.564 154.941 307.696 158.631C301.829 162.32 301.829 165.569 299.151 165.569C296.474 165.569 291.154 163.439 287.952 165.569C284.751 167.699 281.014 170.329 281.014 170.329H416.033C416.033 170.329 417.639 165.569 411.76 162.368Z" fill="#59959C"/>
<path opacity="0.5" d="M411.76 162.368C405.893 159.166 403.227 161.832 401.049 159.166C398.871 156.5 406.916 149.562 390.909 142.624C390.909 142.624 389.85 127.688 367.976 127.152C346.101 126.616 352.052 142.1 346.101 145.825C340.151 149.55 338.627 143.695 332.76 147.432C326.893 151.169 329.559 158.631 324.763 159.702C319.966 160.773 313.564 154.941 307.696 158.631C301.829 162.32 301.829 165.569 299.151 165.569C296.474 165.569 291.154 163.439 287.952 165.569C284.751 167.699 281.014 170.329 281.014 170.329H416.033C416.033 170.329 417.639 165.569 411.76 162.368Z" fill="#59959C"/>
<path d="M207.417 94.1263C203.942 92.234 202.359 93.8168 201.098 92.234C199.836 90.6511 204.573 86.5452 195.147 82.4274C195.147 82.4274 194.516 73.5729 181.556 73.2635C168.596 72.9541 172.035 82.118 168.596 84.3316C165.156 86.5452 164.168 83.0701 160.681 85.2718C157.194 87.4735 158.789 91.9126 155.921 92.5553C153.053 93.198 149.28 89.699 145.805 91.9126C142.33 94.1263 142.33 96.0304 140.747 96.0304C139.164 96.0304 135.986 94.757 134.106 96.0304C132.226 97.3039 130 98.8748 130 98.8748H209.952C209.952 98.8748 210.904 96.0661 207.417 94.1263Z" fill="#59959C"/>
<path opacity="0.5" d="M207.417 94.1263C203.942 92.234 202.359 93.8168 201.098 92.234C199.836 90.6511 204.573 86.5452 195.147 82.4274C195.147 82.4274 194.516 73.5729 181.556 73.2635C168.596 72.9541 172.035 82.118 168.596 84.3316C165.156 86.5452 164.168 83.0701 160.681 85.2718C157.194 87.4735 158.789 91.9126 155.921 92.5553C153.053 93.198 149.28 89.699 145.805 91.9126C142.33 94.1263 142.33 96.0304 140.747 96.0304C139.164 96.0304 135.986 94.757 134.106 96.0304C132.226 97.3039 130 98.8748 130 98.8748H209.952C209.952 98.8748 210.904 96.0661 207.417 94.1263Z" fill="#59959C"/>
<path d="M256.176 357.773C246.179 352.31 241.633 356.856 237.991 352.31C234.349 347.764 247.988 335.958 220.723 324.14C220.723 324.14 218.902 298.683 181.639 297.779C144.377 296.874 154.362 323.224 144.365 329.591C134.368 335.958 131.642 325.949 121.645 332.316C111.648 338.683 116.183 351.358 108.007 353.226C99.8306 355.095 88.9649 345.038 78.9203 351.406C68.8757 357.773 68.9233 363.223 64.3771 363.223C59.8308 363.223 50.7383 359.582 45.3352 363.223C39.9321 366.865 33.5173 371.4 33.5173 371.4H263.448C263.448 371.4 266.173 363.223 256.176 357.773Z" fill="#59959C"/>
<path opacity="0.5" d="M256.176 357.773C246.179 352.31 241.633 356.856 237.991 352.31C234.349 347.764 247.988 335.958 220.723 324.14C220.723 324.14 218.902 298.683 181.639 297.779C144.377 296.874 154.362 323.224 144.365 329.591C134.368 335.958 131.642 325.949 121.645 332.316C111.648 338.683 116.183 351.358 108.007 353.226C99.8306 355.095 88.9649 345.038 78.9203 351.406C68.8757 357.773 68.9233 363.223 64.3771 363.223C59.8308 363.223 50.7383 359.582 45.3352 363.223C39.9321 366.865 33.5173 371.4 33.5173 371.4H263.448C263.448 371.4 266.173 363.223 256.176 357.773Z" fill="#59959C"/>
<g opacity="0.5">
<path d="M411.76 162.368C405.893 159.166 403.227 161.832 401.049 159.166C398.871 156.5 406.916 149.562 390.909 142.624C390.909 142.624 389.85 127.688 367.976 127.152C346.101 126.616 352.052 142.1 346.101 145.825C340.151 149.55 338.627 143.695 332.76 147.432C326.893 151.169 329.559 158.631 324.763 159.702C319.966 160.773 313.564 154.941 307.696 158.631C301.829 162.32 301.829 165.569 299.151 165.569C296.474 165.569 291.154 163.439 287.952 165.569C284.751 167.699 281.014 170.329 281.014 170.329H416.033C416.033 170.329 417.639 165.569 411.76 162.368Z" fill="white"/>
<path opacity="0.5" d="M411.76 162.368C405.893 159.166 403.227 161.832 401.049 159.166C398.871 156.5 406.916 149.562 390.909 142.624C390.909 142.624 389.85 127.688 367.976 127.152C346.101 126.616 352.052 142.1 346.101 145.825C340.151 149.55 338.627 143.695 332.76 147.432C326.893 151.169 329.559 158.631 324.763 159.702C319.966 160.773 313.564 154.941 307.696 158.631C301.829 162.32 301.829 165.569 299.151 165.569C296.474 165.569 291.154 163.439 287.952 165.569C284.751 167.699 281.014 170.329 281.014 170.329H416.033C416.033 170.329 417.639 165.569 411.76 162.368Z" fill="white"/>
</g>
<g opacity="0.5">
<path d="M207.417 94.1263C203.942 92.234 202.359 93.8168 201.098 92.234C199.836 90.6511 204.573 86.5452 195.147 82.4274C195.147 82.4274 194.516 73.5729 181.556 73.2635C168.596 72.9541 172.035 82.118 168.596 84.3316C165.156 86.5452 164.168 83.0701 160.681 85.2718C157.194 87.4735 158.789 91.9126 155.921 92.5553C153.053 93.198 149.28 89.699 145.805 91.9126C142.33 94.1263 142.33 96.0304 140.747 96.0304C139.164 96.0304 135.986 94.757 134.106 96.0304C132.226 97.3039 130 98.8748 130 98.8748H209.952C209.952 98.8748 210.904 96.0661 207.417 94.1263Z" fill="white"/>
<path opacity="0.5" d="M207.417 94.1263C203.942 92.234 202.359 93.8168 201.098 92.234C199.836 90.6511 204.573 86.5452 195.147 82.4274C195.147 82.4274 194.516 73.5729 181.556 73.2635C168.596 72.9541 172.035 82.118 168.596 84.3316C165.156 86.5452 164.168 83.0701 160.681 85.2718C157.194 87.4735 158.789 91.9126 155.921 92.5553C153.053 93.198 149.28 89.699 145.805 91.9126C142.33 94.1263 142.33 96.0304 140.747 96.0304C139.164 96.0304 135.986 94.757 134.106 96.0304C132.226 97.3039 130 98.8748 130 98.8748H209.952C209.952 98.8748 210.904 96.0661 207.417 94.1263Z" fill="white"/>
</g>
<g opacity="0.5">
<path d="M256.176 357.773C246.179 352.31 241.633 356.856 237.991 352.31C234.349 347.764 247.988 335.958 220.723 324.14C220.723 324.14 218.902 298.683 181.639 297.779C144.377 296.874 154.362 323.224 144.365 329.591C134.368 335.958 131.642 325.949 121.645 332.316C111.648 338.683 116.183 351.358 108.007 353.226C99.8306 355.095 88.9649 345.038 78.9203 351.406C68.8757 357.773 68.9233 363.223 64.3771 363.223C59.8308 363.223 50.7383 359.582 45.3352 363.223C39.9321 366.865 33.5173 371.4 33.5173 371.4H263.448C263.448 371.4 266.173 363.223 256.176 357.773Z" fill="white"/>
<path opacity="0.5" d="M256.176 357.773C246.179 352.31 241.633 356.856 237.991 352.31C234.349 347.764 247.988 335.958 220.723 324.14C220.723 324.14 218.902 298.683 181.639 297.779C144.377 296.874 154.362 323.224 144.365 329.591C134.368 335.958 131.642 325.949 121.645 332.316C111.648 338.683 116.183 351.358 108.007 353.226C99.8306 355.095 88.9649 345.038 78.9203 351.406C68.8757 357.773 68.9233 363.223 64.3771 363.223C59.8308 363.223 50.7383 359.582 45.3352 363.223C39.9321 366.865 33.5173 371.4 33.5173 371.4H263.448C263.448 371.4 266.173 363.223 256.176 357.773Z" fill="white"/>
</g>
<path d="M88.1675 319.011C88.1675 319.011 82.2883 313.857 76.2068 312.096C70.1253 310.335 63.1156 310.299 57.0579 308.645C51.0002 306.99 47.3822 305.598 47.3822 305.598L47.0728 311.073L87.9176 322.105L115.862 314.369L118.646 308.692C115.601 310.11 112.408 311.183 109.125 311.894C103.044 313.334 96.2365 313.334 92.4638 314.786C88.6912 316.238 88.1675 319.011 88.1675 319.011Z" fill="white" stroke="#263238" stroke-linecap="round" stroke-linejoin="round"/>
<path d="M46.5015 306.836C54.4856 309.278 62.6696 311.01 70.9584 312.013C77.1926 312.859 83.1121 315.266 88.1675 319.011C92.2796 316.382 97.0136 314.888 101.89 314.679C107.754 314.234 113.54 313.055 119.111 311.168L117.361 314.738L87.3463 320.617L45.8826 309.787L46.5015 306.836Z" fill="white" stroke="#263238" stroke-linecap="round" stroke-linejoin="round"/>
<path d="M45.3709 308.073C51.7146 310.505 58.3619 312.054 65.1268 312.679C76.1711 313.512 87.858 319.011 87.858 319.011C92.3783 316.731 97.3413 315.464 102.401 315.297C108.08 315.248 113.73 314.485 119.218 313.024C119.047 313.594 119.004 314.195 119.092 314.784C119.181 315.372 119.398 315.934 119.729 316.428L87.7509 323.236L45.1566 310.858L45.3709 308.073Z" fill="white" stroke="#263238" stroke-linecap="round" stroke-linejoin="round"/>
<path d="M44.8472 310.347L86.418 320.76V322.188L89.917 322.283V320.641L120.658 315.785C120.658 315.785 122.003 315.476 120.86 316.976C119.717 318.475 99.9258 335.756 99.9258 335.756L77.9563 338.017L44.633 330.698L44.8472 310.347Z" fill="#59959C"/>
<mask id="mask0_180779_11801" style="mask-type:luminance" maskUnits="userSpaceOnUse" x="44" y="310" width="78" height="29">
<path d="M44.8472 310.347L86.418 320.76V322.188L89.917 322.283V320.641L120.658 315.785C120.658 315.785 122.003 315.476 120.86 316.976C119.717 318.475 99.9258 335.756 99.9258 335.756L77.9563 338.017L44.633 330.698L44.8472 310.347Z" fill="white"/>
</mask>
<g mask="url(#mask0_180779_11801)">
<path opacity="0.3" d="M86.4178 322.212V320.76L44.847 310.347L44.6447 330.769L77.9561 338.088L78.5511 338.029L87.3461 322.236L86.4178 322.212Z" fill="black"/>
</g>
<path d="M44.8472 310.347L86.418 320.76V322.188L89.917 322.283V320.641L120.658 315.785C120.658 315.785 122.003 315.476 120.86 316.976C119.717 318.475 99.9258 335.756 99.9258 335.756L77.9563 338.017L44.633 330.698L44.8472 310.347Z" stroke="#263238" stroke-linecap="round" stroke-linejoin="round"/>
<path d="M86.418 322.212L77.2303 338.088L78.9917 338.195L89.917 322.307L86.418 322.212Z" fill="#59959C" stroke="#263238" stroke-linecap="round" stroke-linejoin="round"/>
<path d="M84.9422 419.004C84.9422 419.004 82.9428 423.193 80.277 425.11C77.6111 427.026 74.2074 427.93 71.5177 429.775C70.0568 430.763 68.6578 431.84 67.3285 433L66.2574 429.358L84.2758 416.945L99.2117 418.754L101.521 422.229C99.8519 421.664 98.1144 421.328 96.3554 421.23C93.154 421.004 89.8336 421.837 87.7271 421.325C87.1201 421.168 86.5555 420.879 86.0739 420.477C85.5924 420.076 85.2058 419.573 84.9422 419.004Z" fill="white" stroke="#263238" stroke-linecap="round" stroke-linejoin="round"/>
<path d="M66.674 432.274C70.0971 429.7 73.8073 427.531 77.7302 425.812C80.763 424.318 83.2761 421.946 84.9423 419.004C87.224 420.193 89.8296 420.611 92.3686 420.194C95.3575 419.783 98.3941 419.872 101.354 420.456L99.8901 418.231L84.2758 417.993L65.8766 430.334L66.674 432.274Z" fill="white" stroke="#263238" stroke-linecap="round" stroke-linejoin="round"/>
<path d="M65.9123 431.584C68.5169 429.235 71.5193 427.369 74.7787 426.074C80.0152 424.169 84.7995 419.04 84.7995 419.04C87.2517 419.998 89.9235 420.25 92.5114 419.766C95.3216 419.108 98.2237 418.935 101.092 419.254C100.732 418.516 100.619 417.681 100.771 416.874L84.0378 416.208L65.3411 429.739L65.9123 431.584Z" fill="white" stroke="#263238" stroke-linecap="round" stroke-linejoin="round"/>
<path d="M65.2339 430.12L83.7521 418.028L83.5022 417.064L85.2041 416.564L85.4778 417.671L101.283 417.195C101.283 417.195 101.985 417.195 101.175 416.338C100.366 415.481 87.8461 406.234 87.8461 406.234L76.7423 407.424L61.7231 416.41L65.2339 430.12Z" fill="#59959C"/>
<mask id="mask1_180779_11801" style="mask-type:luminance" maskUnits="userSpaceOnUse" x="61" y="406" width="41" height="25">
<path d="M65.2339 430.12L83.7521 418.028L83.5022 417.064L85.2041 416.564L85.4778 417.671L101.283 417.195C101.283 417.195 101.985 417.195 101.175 416.338C100.366 415.481 87.8461 406.234 87.8461 406.234L76.7423 407.424L61.7231 416.41L65.2339 430.12Z" fill="white"/>
</mask>
<g mask="url(#mask1_180779_11801)">
<path opacity="0.3" d="M83.5498 417.064L83.7997 418.028L65.2815 430.12L61.735 416.374L76.7542 407.389L77.0518 407.353L84.002 416.933L83.5498 417.064Z" fill="black"/>
</g>
<path d="M65.2339 430.12L83.7521 418.028L83.5022 417.064L85.2041 416.564L85.4778 417.671L101.283 417.195C101.283 417.195 101.985 417.195 101.175 416.338C100.366 415.481 87.8461 406.234 87.8461 406.234L76.7423 407.424L61.7231 416.41L65.2339 430.12Z" stroke="#263238" stroke-linecap="round" stroke-linejoin="round"/>
<path d="M83.5498 417.064L76.4091 407.472L77.2422 407.187L85.2517 416.565L83.5498 417.064Z" fill="#59959C" stroke="#263238" stroke-linecap="round" stroke-linejoin="round"/>
<path d="M361.835 290.9L395.444 324.937L323.68 345.157L318.931 311.037L361.835 290.9Z" fill="#59959C" stroke="#263238" stroke-linecap="round" stroke-linejoin="round"/>
<path d="M391.576 329.853L317.348 351.667L323.335 312.441L360.787 295.732L391.576 329.853Z" fill="white" stroke="#263238" stroke-linecap="round" stroke-linejoin="round"/>
<path d="M362.549 297.85L390.16 333.554L320.514 353.774L328.607 310.858L362.549 297.85Z" fill="white"/>
<mask id="mask2_180779_11801" style="mask-type:luminance" maskUnits="userSpaceOnUse" x="320" y="297" width="71" height="57">
<path d="M362.549 297.85L390.16 333.554L320.514 353.774L328.607 310.858L362.549 297.85Z" fill="white"/>
</mask>
<g mask="url(#mask2_180779_11801)">
<path opacity="0.17" d="M362.549 297.85L390.16 333.554L320.514 353.774L328.607 310.858L362.549 297.85Z" fill="black"/>
</g>
<path d="M362.549 297.85L390.16 333.554L320.514 353.774L328.607 310.858L362.549 297.85Z" stroke="#263238" stroke-linecap="round" stroke-linejoin="round"/>
<path d="M362.549 297.85L349.886 341.813L300.46 356.773L319.455 316.309L362.549 297.85Z" fill="white" stroke="#263238" stroke-linecap="round" stroke-linejoin="round"/>
<path d="M346.375 338.302L298.711 354.309L297.295 347.621L341.448 331.792L346.375 338.302Z" fill="white" stroke="#263238" stroke-linecap="round" stroke-linejoin="round"/>
<path d="M361.323 291.864L392.98 324.759L391.576 329.853L362.549 297.85L346.375 338.302L341.448 331.792L361.323 291.864Z" fill="white" stroke="#263238" stroke-linecap="round" stroke-linejoin="round"/>
<path d="M361.835 290.9L341.627 333.03L295.01 348.859L318.931 311.037L361.835 290.9Z" fill="#59959C"/>
<mask id="mask3_180779_11801" style="mask-type:luminance" maskUnits="userSpaceOnUse" x="295" y="290" width="67" height="59">
<path d="M361.835 290.9L341.627 333.03L295.01 348.859L318.931 311.037L361.835 290.9Z" fill="white"/>
</mask>
<g mask="url(#mask3_180779_11801)">
<path opacity="0.3" d="M361.835 290.9L341.627 333.03L295.01 348.859L318.931 311.037L361.835 290.9Z" fill="black"/>
</g>
<path d="M361.835 290.9L341.627 333.03L295.01 348.859L318.931 311.037L361.835 290.9Z" stroke="#263238" stroke-linecap="round" stroke-linejoin="round"/>
<path d="M317.003 314.917L354.504 297.803" stroke="#263238" stroke-linecap="round" stroke-linejoin="round"/>
<path d="M205.691 413.208L240.11 370.864L169.107 367.532L163.454 403.104L205.691 413.208Z" fill="#59959C" stroke="#263238" stroke-linecap="round" stroke-linejoin="round"/>
<path d="M236.385 366.818L162.966 362.474L167.87 400.641L204.775 408.591L236.385 366.818Z" fill="white" stroke="#263238" stroke-linecap="round" stroke-linejoin="round"/>
<path d="M206.584 406.032L235.075 363.414L166.18 359.582L173.094 400.974L206.584 406.032Z" fill="white"/>
<mask id="mask4_180779_11801" style="mask-type:luminance" maskUnits="userSpaceOnUse" x="166" y="359" width="70" height="48">
<path d="M206.584 406.032L235.075 363.414L166.18 359.582L173.094 400.974L206.584 406.032Z" fill="white"/>
</mask>
<g mask="url(#mask4_180779_11801)">
<path opacity="0.17" d="M206.584 406.032L235.075 363.414L166.18 359.582L173.094 400.974L206.584 406.032Z" fill="black"/>
</g>
<path d="M206.584 406.032L235.075 363.414L166.18 359.582L173.094 400.974L206.584 406.032Z" stroke="#263238" stroke-linecap="round" stroke-linejoin="round"/>
<path d="M206.584 406.032L195.147 364.663L146.269 361.343L164.121 397.653L206.584 406.032Z" fill="white" stroke="#263238" stroke-linecap="round" stroke-linejoin="round"/>
<path d="M191.541 369.055L144.448 364.247L142.865 371.328L186.459 376.791L191.541 369.055Z" fill="white" stroke="#263238" stroke-linecap="round" stroke-linejoin="round"/>
<path d="M205.192 412.363L237.646 371.626L236.385 366.818L206.584 406.032L191.541 369.055L186.459 376.791L205.192 412.363Z" fill="white" stroke="#263238" stroke-linecap="round" stroke-linejoin="round"/>
<path d="M205.691 413.208L186.662 375.505L140.616 370.626L163.454 403.104L205.691 413.208Z" fill="#59959C"/>
<mask id="mask5_180779_11801" style="mask-type:luminance" maskUnits="userSpaceOnUse" x="140" y="370" width="66" height="44">
<path d="M205.691 413.208L186.662 375.505L140.616 370.626L163.454 403.104L205.691 413.208Z" fill="white"/>
</mask>
<g mask="url(#mask5_180779_11801)">
<path opacity="0.3" d="M205.691 413.208L186.662 375.505L140.616 370.626L163.454 403.104L205.691 413.208Z" fill="black"/>
</g>
<path d="M205.691 413.208L186.662 375.505L140.616 370.626L163.454 403.104L205.691 413.208Z" stroke="#263238" stroke-linecap="round" stroke-linejoin="round"/>
<path d="M159.943 398.415L197.444 406.306" stroke="#263238" stroke-linecap="round" stroke-linejoin="round"/>
<path d="M233.6 128.473C233.6 128.473 218.009 136.006 211.773 145.134C205.537 154.263 207.358 171.115 216.962 176.565C226.566 182.016 260.092 202.034 283.739 199.178C307.387 196.321 303.745 172.15 291.796 162.534C279.848 152.918 263.733 144.349 263.733 144.349C263.733 144.349 262.96 139.16 261.913 137.339C260.865 135.518 248.928 123.796 233.6 128.473Z" fill="#263238" stroke="#263238" stroke-linecap="round" stroke-linejoin="round"/>
<path d="M296.89 168.223C261.496 157.393 238.182 176.78 230.874 184.206C245.513 191.811 267.078 201.153 283.739 199.142C303.519 196.75 304.197 179.434 296.89 168.223Z" fill="white" stroke="#263238" stroke-linecap="round" stroke-linejoin="round"/>
<path d="M272.826 165.366C272.826 165.366 293.617 182.028 286.334 198.618" stroke="#263238" stroke-linecap="round" stroke-linejoin="round"/>
<path d="M204.585 121.213L196.254 160.071H202.954L219.473 129.449C219.473 129.449 216.248 119.63 204.585 121.213Z" fill="white" stroke="#263238" stroke-linecap="round" stroke-linejoin="round"/>
<path d="M309.291 102.362C302.472 94.031 293.463 86.3072 276.956 84.9861C276.956 84.9861 262.888 84.5458 243.751 92.6862C228.792 99.0414 212.808 112.918 204.585 121.249C211.94 123.117 216.319 126.128 219.485 129.485C222.746 126.378 225.59 123.677 227.685 121.975C234.73 116.25 245.072 111.419 245.072 111.419C245.072 111.419 233.85 126.807 231.648 130.77C229.446 134.733 230.993 141.112 242.645 142.873C254.296 144.635 257.164 142.433 261.782 139.791C266.399 137.149 272.124 134.733 274.325 134.733C278.725 135.045 283.092 133.779 286.643 131.163C292.356 127.2 294.784 115.989 296.759 115.108C298.116 114.501 310.124 130.163 319.479 141.921L320.288 141.505C324.358 139.41 327.536 135.138 329.714 131.377C322.144 120.321 313.706 107.765 309.291 102.362Z" fill="#59959C" stroke="#263238" stroke-linecap="round" stroke-linejoin="round"/>
<path d="M269.863 92.3767C269.863 92.3767 265.197 103.6 274.54 107.848" stroke="#263238" stroke-linecap="round" stroke-linejoin="round"/>
<path d="M245.072 111.383L255.212 108.384" stroke="#263238" stroke-linecap="round" stroke-linejoin="round"/>
<path d="M244.942 130.96C244.942 130.96 251.332 136.601 266.292 130.222" stroke="#263238" stroke-linecap="round" stroke-linejoin="round"/>
<path d="M303.317 110.835C299.627 111.323 296.759 115.12 296.759 115.12C301.016 114.213 305.345 113.683 309.696 113.537" stroke="#263238" stroke-linecap="round" stroke-linejoin="round"/>
<path d="M245.406 112.311C245.406 112.311 252.273 112.311 258.902 112.061" stroke="#263238" stroke-linecap="round" stroke-linejoin="round"/>
<path d="M249.083 128.009C249.083 128.009 249.821 132.436 259.39 131.936" stroke="#263238" stroke-linecap="round" stroke-linejoin="round"/>
<path d="M274.54 88.723C274.54 88.723 273.004 96.6373 274.099 100.815C275.194 104.992 279.157 109.836 282.026 104.778C284.894 99.7197 286.417 94.0666 286.417 91.365C286.417 88.6635 276.515 83.665 274.54 88.723Z" fill="white" stroke="#263238" stroke-linecap="round" stroke-linejoin="round"/>
<path d="M296.759 78.8213C296.759 78.8213 302.912 77.5003 308.196 70.6809C313.48 63.8615 306.661 62.9927 304.459 56.3995C302.258 49.8062 310.005 51.9961 298.794 40.559C287.583 29.122 269.315 33.0851 260.711 36.8221C252.106 40.559 252.38 53.1029 246.203 53.9836C240.026 54.8642 237.396 48.9256 229.922 48.9256C222.448 48.9256 214.522 56.8398 217.605 63.4331C220.687 70.0263 226.626 67.182 227.066 66.0751C227.506 64.9683 223.984 66.3013 223.757 62.9927C223.531 59.6842 231.672 61.4575 234.1 65.8609C236.063 69.4313 232.457 74.5012 232.576 78.25C232.826 85.7716 242.038 90.5796 247.953 91.615C255.938 93.0075 265.65 92.5195 272.886 88.5564C281.776 83.677 277.646 73.561 284.192 70.9189C290.737 68.2769 294.093 72.2399 294.093 72.2399L296.759 78.8213Z" fill="#263238" stroke="#263238" stroke-linecap="round" stroke-linejoin="round"/>
<path d="M229.53 53.0078C228.396 52.5154 227.149 52.3448 225.925 52.5149C224.701 52.685 223.547 53.189 222.591 53.9718" stroke="white" stroke-linecap="round" stroke-linejoin="round"/>
<path d="M288.226 59.1726C288.226 59.1726 288.226 46.0813 279.038 43.4154C269.851 40.7496 259.354 52.6031 254.046 60.0771C248.738 67.551 240.955 65.7658 235.23 57.8873C234.692 57.1277 234.095 56.4115 233.445 55.7451" stroke="white" stroke-linecap="round" stroke-linejoin="round"/>
<path d="M236.158 83.7246C240.919 86.7832 244.489 87.6639 251.475 85.4741C258.461 83.2843 257.604 71.9068 263.722 65.7896C269.839 59.6724 280.788 61.8503 280.788 61.8503C280.788 61.8503 268.542 55.2809 258.913 62.2787C249.285 69.2766 250.154 81.0945 241.407 83.2843" stroke="white" stroke-linecap="round" stroke-linejoin="round"/>
<path d="M294.355 60.5292C294.355 60.5292 302.686 58.3394 302.234 50.9011" stroke="white" stroke-linecap="round" stroke-linejoin="round"/>
<path d="M225.804 144.861C225.804 144.861 248.417 147.717 259.842 155.572" stroke="white" stroke-linecap="round" stroke-linejoin="round"/>
<path d="M289.583 63.3616C288.174 62.9577 286.679 62.9673 285.276 63.3893C283.873 63.8113 282.621 64.6279 281.669 65.7418C277.932 69.693 278.098 71.6924 274.98 74.1559C274.05 74.969 272.878 75.4527 271.645 75.5323C270.412 75.6119 269.188 75.2829 268.161 74.5963C266.84 73.9417 265.304 74.3821 264.864 77.4526C264.424 80.5231 268.601 82.9509 269.268 82.9509C269.93 82.9869 270.59 83.0624 271.243 83.177C271.243 83.177 271.243 88.6754 274.98 91.972C278.717 95.2686 286.203 100.553 291.261 99.4578C296.319 98.3629 298.294 86.6998 298.294 80.7611C298.109 74.7396 296.923 68.7909 294.784 63.1593C293.236 59.6841 289.583 63.3616 289.583 63.3616Z" fill="white" stroke="#263238" stroke-linecap="round" stroke-linejoin="round"/>
<path d="M285.406 76.7266C285.406 77.9167 284.977 78.9402 284.43 78.9402C283.882 78.9402 283.442 77.9524 283.442 76.7266C283.442 75.5008 283.882 74.5249 284.43 74.5249C284.977 74.5249 285.406 75.5127 285.406 76.7266Z" fill="#263238"/>
<path d="M293.248 75.9888C293.248 77.1789 292.808 78.2024 292.272 78.2024C291.737 78.2024 291.285 77.2146 291.285 75.9888C291.285 74.763 291.725 73.7871 292.272 73.7871C292.82 73.7871 293.248 74.7749 293.248 75.9888Z" fill="#263238"/>
<path d="M280.74 72.2638C280.74 72.2638 282.204 70.0621 285.893 71.0737" stroke="#263238" stroke-linecap="round" stroke-linejoin="round"/>
<path d="M290.059 71.0737C290.059 71.0737 292.51 68.3722 294.724 71.0737" stroke="#263238" stroke-linecap="round" stroke-linejoin="round"/>
<path d="M289.821 75.9888C289.821 75.9888 290.059 80.904 291.535 80.904C293.01 80.904 292.51 83.1057 290.547 83.8435" stroke="#263238" stroke-linecap="round" stroke-linejoin="round"/>
<path d="M288.583 88.7587C288.583 88.7587 284.168 90.7224 282.454 86.2952" stroke="#263238" stroke-linecap="round" stroke-linejoin="round"/>
<path d="M289.619 197.393C289.619 197.393 264.626 175.471 238.729 168.009C212.832 160.547 183.032 164.058 157.147 157.048C131.262 150.038 116.361 140.386 116.361 140.386L115.04 163.629L288.797 210.567L407.666 177.672L419.508 153.549C419.508 153.549 405.036 160.999 379.151 167.14C353.266 173.281 324.263 173.269 308.018 179.374C291.773 185.48 289.619 197.393 289.619 197.393Z" fill="white" stroke="#263238" stroke-linecap="round" stroke-linejoin="round"/>
<path d="M112.41 145.635C112.41 145.635 141.401 163.189 206.715 169.33C249.738 173.364 289.619 197.393 289.619 197.393C307.094 186.22 327.212 179.864 347.934 178.97C382.15 177.661 421.186 164.058 421.186 164.058L413.748 179.374L286.108 204.367L109.78 158.309L112.41 145.635Z" fill="white" stroke="#263238" stroke-linecap="round" stroke-linejoin="round"/>
<path d="M107.59 150.906C132.265 162.051 158.675 168.863 185.662 171.043C232.588 174.554 288.297 197.357 288.297 197.357C288.297 197.357 317.681 181.576 350.184 181.576C374.324 181.37 398.343 178.127 421.674 171.924C420.948 174.348 420.769 176.903 421.147 179.405C421.526 181.907 422.454 184.295 423.864 186.396L287.857 215.375L106.71 162.712L107.59 150.906Z" fill="white" stroke="#263238" stroke-linecap="round" stroke-linejoin="round"/>
<path d="M108.471 161.32L282.156 204.855V210.996L297.069 211.436V204.367L427.779 183.754C427.779 183.754 433.48 182.433 428.66 189.014C423.84 195.596 339.615 268.847 339.615 268.847L246.191 278.499L104.508 247.401L105.353 163.724C105.355 163.345 105.444 162.971 105.613 162.631C105.782 162.291 106.025 161.994 106.326 161.762C106.626 161.531 106.976 161.37 107.347 161.294C107.719 161.217 108.103 161.226 108.471 161.32Z" fill="#59959C"/>
<mask id="mask6_180779_11801" style="mask-type:luminance" maskUnits="userSpaceOnUse" x="104" y="161" width="327" height="118">
<path d="M108.471 161.32L282.156 204.855V210.996L297.069 211.436V204.367L427.779 183.754C427.779 183.754 433.48 182.433 428.66 189.014C423.84 195.596 339.615 268.847 339.615 268.847L246.191 278.499L104.508 247.401L105.353 163.724C105.355 163.345 105.444 162.971 105.613 162.631C105.782 162.291 106.025 161.994 106.326 161.762C106.626 161.531 106.976 161.37 107.347 161.294C107.719 161.217 108.103 161.226 108.471 161.32Z" fill="white"/>
</mask>
<g mask="url(#mask6_180779_11801)">
<path opacity="0.3" d="M282.156 210.996V204.855L105.388 160.558L104.52 247.401L246.191 278.547L248.726 278.285L286.12 211.115L282.156 210.996Z" fill="black"/>
</g>
<path d="M108.471 161.32L282.156 204.855V210.996L297.069 211.436V204.367L427.779 183.754C427.779 183.754 433.48 182.433 428.66 189.014C423.84 195.596 339.615 268.847 339.615 268.847L246.191 278.499L104.508 247.401L105.353 163.724C105.355 163.345 105.444 162.971 105.613 162.631C105.782 162.291 106.025 161.994 106.326 161.762C106.626 161.531 106.976 161.37 107.347 161.294C107.719 161.217 108.103 161.226 108.471 161.32Z" stroke="#263238" stroke-linecap="round" stroke-linejoin="round"/>
<path d="M282.156 210.996L243.121 278.547L250.583 278.975L297.069 211.436L282.156 210.996Z" fill="#59959C" stroke="#263238" stroke-linecap="round" stroke-linejoin="round"/>
<path d="M412.439 186.515C412.439 186.515 424.09 188.693 421.662 196.464L428.66 189.038C428.66 189.038 431.861 185.051 430.397 184.278C428.934 183.504 412.439 186.515 412.439 186.515Z" fill="#263238"/>
<path d="M124.573 165.736C124.573 165.736 108.09 170.294 105.531 182.612L105.388 163.724C105.388 163.724 105.888 160.88 108.495 161.344C111.101 161.808 124.573 165.736 124.573 165.736Z" fill="#263238"/>
<path d="M104.674 241.617L112.958 249.508L104.52 247.401L104.674 241.617Z" fill="#263238"/>
<path d="M333.653 269.407L344.888 263.885L338.973 269.014L333.653 269.407Z" fill="#263238"/>
<path d="M329.714 131.389L361.323 169.282L353.361 170.544L319.479 141.981C319.479 141.981 328.25 136.232 329.714 131.389Z" fill="white" stroke="#263238" stroke-linecap="round" stroke-linejoin="round"/>
<path d="M189.542 156.595C189.542 156.595 187.959 154.679 187.554 156.393C187.149 158.107 183.567 164.057 186.364 164.474C189.161 164.89 190.744 158.095 190.744 158.095L189.542 156.595Z" fill="white" stroke="#263238" stroke-linecap="round" stroke-linejoin="round"/>
<path d="M193.326 156.369C193.326 156.369 191.731 154.453 191.339 156.155C190.946 157.857 187.352 163.819 190.149 164.248C192.945 164.676 194.54 157.857 194.54 157.857L193.326 156.369Z" fill="white" stroke="#263238" stroke-linecap="round" stroke-linejoin="round"/>
<path d="M197.123 156.227C197.123 156.227 195.23 154.096 194.742 155.989C194.254 157.881 189.982 164.498 193.326 164.974C196.67 165.45 198.527 157.833 198.527 157.833L197.123 156.227Z" fill="white" stroke="#263238" stroke-linecap="round" stroke-linejoin="round"/>
<path d="M200.431 156.941L206.81 163.082H199.253L200.431 156.941Z" fill="white" stroke="#263238" stroke-linecap="round" stroke-linejoin="round"/>
<path d="M200.431 156.941C200.431 156.941 198.539 154.81 198.051 156.703C197.563 158.595 193.291 165.212 196.635 165.676C199.979 166.14 201.836 158.535 201.836 158.535L200.431 156.941Z" fill="white" stroke="#263238" stroke-linecap="round" stroke-linejoin="round"/>
<path d="M369.904 162.451C369.904 162.451 371.177 160.309 371.844 161.927C372.51 163.546 376.973 168.878 374.295 169.734C371.618 170.591 368.964 164.117 368.964 164.117L369.904 162.451Z" fill="white" stroke="#263238" stroke-linecap="round" stroke-linejoin="round"/>
<path d="M366.167 162.808C366.167 162.808 367.44 160.666 368.107 162.284C368.773 163.903 373.248 169.234 370.558 170.091C367.869 170.948 365.227 164.474 365.227 164.474L366.167 162.808Z" fill="white" stroke="#263238" stroke-linecap="round" stroke-linejoin="round"/>
<path d="M362.406 163.272C362.406 163.272 363.941 160.892 364.703 162.665C365.465 164.438 370.654 170.329 367.512 171.317C364.37 172.305 361.264 165.129 361.264 165.129L362.406 163.272Z" fill="white" stroke="#263238" stroke-linecap="round" stroke-linejoin="round"/>
<path d="M359.252 164.498L353.909 171.567L361.383 170.377L359.252 164.498Z" fill="white" stroke="#263238" stroke-linecap="round" stroke-linejoin="round"/>
<path d="M359.252 164.498C359.252 164.498 360.776 162.118 361.549 163.891C362.323 165.664 367.5 171.543 364.358 172.531C361.216 173.519 358.11 166.354 358.11 166.354L359.252 164.498Z" fill="white" stroke="#263238" stroke-linecap="round" stroke-linejoin="round"/>
<path d="M142.437 228.062L150.054 226.872L142.437 225.682C141.766 225.58 141.146 225.266 140.666 224.787C140.186 224.307 139.873 223.686 139.771 223.016L138.581 215.387L137.391 223.016C137.29 223.685 136.978 224.304 136.501 224.784C136.023 225.263 135.405 225.578 134.737 225.682L127.108 226.872L134.737 228.062C135.403 228.171 136.018 228.487 136.495 228.966C136.971 229.444 137.285 230.061 137.391 230.728L138.581 238.356L139.771 230.728C139.878 230.059 140.193 229.441 140.672 228.963C141.151 228.484 141.768 228.169 142.437 228.062Z" fill="white"/>
<path d="M85.5373 279.737L93.166 278.547L85.5373 277.357C84.8695 277.248 84.2528 276.932 83.7743 276.454C83.2959 275.975 82.9801 275.358 82.8715 274.691L81.6814 267.062L80.4913 274.691C80.3879 275.361 80.0737 275.98 79.5944 276.46C79.115 276.939 78.4954 277.253 77.8254 277.357L70.1967 278.547L77.8254 279.737C78.4954 279.84 79.115 280.154 79.5944 280.634C80.0737 281.113 80.3879 281.733 80.4913 282.403L81.6814 290.031L82.8715 282.403C82.9801 281.735 83.2959 281.118 83.7743 280.64C84.2528 280.161 84.8695 279.845 85.5373 279.737Z" fill="#59959C"/>
<path opacity="0.5" d="M85.5373 279.737L93.166 278.547L85.5373 277.357C84.8695 277.248 84.2528 276.932 83.7743 276.454C83.2959 275.975 82.9801 275.358 82.8715 274.691L81.6814 267.062L80.4913 274.691C80.3879 275.361 80.0737 275.98 79.5944 276.46C79.115 276.939 78.4954 277.253 77.8254 277.357L70.1967 278.547L77.8254 279.737C78.4954 279.84 79.115 280.154 79.5944 280.634C80.0737 281.113 80.3879 281.733 80.4913 282.403L81.6814 290.031L82.8715 282.403C82.9801 281.735 83.2959 281.118 83.7743 280.64C84.2528 280.161 84.8695 279.845 85.5373 279.737Z" fill="white"/>
<path d="M275.48 311.549L283.109 310.359L275.48 309.168C274.812 309.066 274.193 308.753 273.714 308.276C273.235 307.799 272.92 307.182 272.814 306.514L271.624 298.886L270.434 306.514C270.328 307.182 270.013 307.799 269.534 308.276C269.055 308.753 268.436 309.066 267.768 309.168L260.139 310.359L267.768 311.549C268.436 311.651 269.055 311.964 269.534 312.441C270.013 312.918 270.328 313.535 270.434 314.203L271.624 321.831L272.814 314.203C272.92 313.535 273.235 312.918 273.714 312.441C274.193 311.964 274.812 311.651 275.48 311.549Z" fill="#59959C"/>
<path opacity="0.5" d="M275.48 311.549L283.109 310.359L275.48 309.168C274.812 309.066 274.193 308.753 273.714 308.276C273.235 307.799 272.92 307.182 272.814 306.514L271.624 298.886L270.434 306.514C270.328 307.182 270.013 307.799 269.534 308.276C269.055 308.753 268.436 309.066 267.768 309.168L260.139 310.359L267.768 311.549C268.436 311.651 269.055 311.964 269.534 312.441C270.013 312.918 270.328 313.535 270.434 314.203L271.624 321.831L272.814 314.203C272.92 313.535 273.235 312.918 273.714 312.441C274.193 311.964 274.812 311.651 275.48 311.549Z" fill="white"/>
<path d="M75.7784 239.154L80.8245 238.356L75.7784 237.559C75.3357 237.491 74.9262 237.283 74.6095 236.967C74.2927 236.65 74.0852 236.24 74.017 235.798L73.2316 230.763L72.4342 235.798C72.366 236.24 72.1585 236.65 71.8417 236.967C71.525 237.283 71.1155 237.491 70.6728 237.559L65.6267 238.356L70.6728 239.154C71.1155 239.222 71.525 239.429 71.8417 239.746C72.1585 240.063 72.366 240.472 72.4342 240.915L73.2316 245.949L74.017 240.915C74.0852 240.472 74.2927 240.063 74.6095 239.746C74.9262 239.429 75.3357 239.222 75.7784 239.154Z" fill="#59959C"/>
<path opacity="0.5" d="M75.7784 239.154L80.8245 238.356L75.7784 237.559C75.3357 237.491 74.9262 237.283 74.6095 236.967C74.2927 236.65 74.0852 236.24 74.017 235.798L73.2316 230.763L72.4342 235.798C72.366 236.24 72.1585 236.65 71.8417 236.967C71.525 237.283 71.1155 237.491 70.6728 237.559L65.6267 238.356L70.6728 239.154C71.1155 239.222 71.525 239.429 71.8417 239.746C72.1585 240.063 72.366 240.472 72.4342 240.915L73.2316 245.949L74.017 240.915C74.0852 240.472 74.2927 240.063 74.6095 239.746C74.9262 239.429 75.3357 239.222 75.7784 239.154Z" fill="white"/>
<path d="M403.132 250.293L408.178 249.508L403.132 248.71C402.69 248.64 402.281 248.432 401.965 248.116C401.648 247.8 401.44 247.391 401.37 246.949L400.573 241.903L399.788 246.949C399.718 247.391 399.51 247.8 399.193 248.116C398.877 248.432 398.468 248.64 398.026 248.71L392.98 249.508L398.026 250.293C398.468 250.363 398.877 250.571 399.193 250.888C399.51 251.204 399.718 251.613 399.788 252.055L400.573 257.101L401.37 252.055C401.44 251.613 401.648 251.204 401.965 250.888C402.281 250.571 402.69 250.363 403.132 250.293Z" fill="#59959C"/>
<path opacity="0.5" d="M403.132 250.293L408.178 249.508L403.132 248.71C402.69 248.64 402.281 248.432 401.965 248.116C401.648 247.8 401.44 247.391 401.37 246.949L400.573 241.903L399.788 246.949C399.718 247.391 399.51 247.8 399.193 248.116C398.877 248.432 398.468 248.64 398.026 248.71L392.98 249.508L398.026 250.293C398.468 250.363 398.877 250.571 399.193 250.888C399.51 251.204 399.718 251.613 399.788 252.055L400.573 257.101L401.37 252.055C401.44 251.613 401.648 251.204 401.965 250.888C402.281 250.571 402.69 250.363 403.132 250.293Z" fill="white"/>
<path d="M172.523 208.354L177.462 207.58L172.523 206.806C172.09 206.739 171.689 206.535 171.379 206.225C171.069 205.915 170.865 205.514 170.797 205.081L170.012 200.13L169.238 205.081C169.169 205.513 168.964 205.913 168.655 206.223C168.345 206.533 167.945 206.737 167.513 206.806L162.562 207.58L167.513 208.354C167.945 208.423 168.345 208.627 168.655 208.937C168.964 209.247 169.169 209.647 169.238 210.079L169.964 215.078L170.75 210.127C170.811 209.678 171.017 209.262 171.337 208.941C171.658 208.621 172.074 208.415 172.523 208.354Z" fill="white"/>
<path d="M336.152 257.22L341.103 256.434L336.152 255.661C335.719 255.591 335.32 255.387 335.01 255.077C334.7 254.767 334.496 254.368 334.426 253.935L333.653 248.984L332.879 253.935C332.81 254.368 332.605 254.767 332.296 255.077C331.986 255.387 331.586 255.591 331.154 255.661L326.203 256.434L331.154 257.22C331.587 257.288 331.988 257.491 332.298 257.801C332.608 258.112 332.811 258.512 332.879 258.945L333.653 263.884L334.426 258.945C334.494 258.512 334.698 258.112 335.008 257.801C335.318 257.491 335.719 257.288 336.152 257.22Z" fill="white"/>
</svg>
