<svg width="115" height="101" viewBox="0 0 115 101" fill="none" xmlns="http://www.w3.org/2000/svg">
<ellipse cx="3.67335" cy="4.58023" rx="3.67335" ry="3.80435" fill="white" fill-opacity="0.2"/>
<ellipse cx="3.67335" cy="23.0583" rx="3.67335" ry="3.80435" fill="white" fill-opacity="0.2"/>
<ellipse cx="3.67335" cy="41.5368" rx="3.67335" ry="3.80435" fill="white" fill-opacity="0.2"/>
<ellipse cx="3.67335" cy="60.0148" rx="3.67335" ry="3.80435" fill="white" fill-opacity="0.2"/>
<ellipse cx="3.67335" cy="78.4933" rx="3.67335" ry="3.80435" fill="white" fill-opacity="0.2"/>
<ellipse cx="3.67335" cy="96.9713" rx="3.67335" ry="3.80435" fill="white" fill-opacity="0.2"/>
<ellipse cx="21.5153" cy="4.58023" rx="3.67335" ry="3.80435" fill="white" fill-opacity="0.2"/>
<ellipse cx="21.5153" cy="23.0583" rx="3.67335" ry="3.80435" fill="white" fill-opacity="0.2"/>
<ellipse cx="21.5153" cy="41.5368" rx="3.67335" ry="3.80435" fill="white" fill-opacity="0.2"/>
<ellipse cx="21.5153" cy="60.0148" rx="3.67335" ry="3.80435" fill="white" fill-opacity="0.2"/>
<ellipse cx="21.5153" cy="78.4933" rx="3.67335" ry="3.80435" fill="white" fill-opacity="0.2"/>
<ellipse cx="21.5153" cy="96.9713" rx="3.67335" ry="3.80435" fill="white" fill-opacity="0.2"/>
<ellipse cx="39.3573" cy="4.58023" rx="3.67335" ry="3.80435" fill="white" fill-opacity="0.2"/>
<ellipse cx="39.3573" cy="23.0583" rx="3.67335" ry="3.80435" fill="white" fill-opacity="0.2"/>
<ellipse cx="39.3573" cy="41.5368" rx="3.67335" ry="3.80435" fill="white" fill-opacity="0.2"/>
<ellipse cx="39.3573" cy="60.0148" rx="3.67335" ry="3.80435" fill="white" fill-opacity="0.2"/>
<ellipse cx="39.3573" cy="78.4933" rx="3.67335" ry="3.80435" fill="white" fill-opacity="0.2"/>
<ellipse cx="39.3573" cy="96.9713" rx="3.67335" ry="3.80435" fill="white" fill-opacity="0.2"/>
<ellipse cx="57.1994" cy="4.58023" rx="3.67335" ry="3.80435" fill="white" fill-opacity="0.2"/>
<ellipse cx="57.1994" cy="23.0583" rx="3.67335" ry="3.80435" fill="white" fill-opacity="0.2"/>
<ellipse cx="57.1994" cy="41.5368" rx="3.67335" ry="3.80435" fill="white" fill-opacity="0.2"/>
<ellipse cx="57.1994" cy="60.0148" rx="3.67335" ry="3.80435" fill="white" fill-opacity="0.2"/>
<ellipse cx="57.1994" cy="78.4933" rx="3.67335" ry="3.80435" fill="white" fill-opacity="0.2"/>
<ellipse cx="57.1994" cy="96.9713" rx="3.67335" ry="3.80435" fill="white" fill-opacity="0.2"/>
<ellipse cx="75.0413" cy="4.58023" rx="3.67335" ry="3.80435" fill="white" fill-opacity="0.2"/>
<ellipse cx="75.0413" cy="23.0583" rx="3.67335" ry="3.80435" fill="white" fill-opacity="0.2"/>
<ellipse cx="75.0413" cy="41.5368" rx="3.67335" ry="3.80435" fill="white" fill-opacity="0.2"/>
<ellipse cx="75.0413" cy="60.0148" rx="3.67335" ry="3.80435" fill="white" fill-opacity="0.2"/>
<ellipse cx="75.0413" cy="78.4933" rx="3.67335" ry="3.80435" fill="white" fill-opacity="0.2"/>
<ellipse cx="75.0413" cy="96.9713" rx="3.67335" ry="3.80435" fill="white" fill-opacity="0.2"/>
<ellipse cx="92.8833" cy="4.58023" rx="3.67335" ry="3.80435" fill="white" fill-opacity="0.2"/>
<ellipse cx="92.8833" cy="23.0583" rx="3.67335" ry="3.80435" fill="white" fill-opacity="0.2"/>
<ellipse cx="92.8833" cy="41.5368" rx="3.67335" ry="3.80435" fill="white" fill-opacity="0.2"/>
<ellipse cx="92.8833" cy="60.0148" rx="3.67335" ry="3.80435" fill="white" fill-opacity="0.2"/>
<ellipse cx="92.8833" cy="78.4933" rx="3.67335" ry="3.80435" fill="white" fill-opacity="0.2"/>
<ellipse cx="92.8833" cy="96.9713" rx="3.67335" ry="3.80435" fill="white" fill-opacity="0.2"/>
<ellipse cx="110.725" cy="4.58023" rx="3.67335" ry="3.80435" fill="white" fill-opacity="0.2"/>
<ellipse cx="110.725" cy="23.0583" rx="3.67335" ry="3.80435" fill="white" fill-opacity="0.2"/>
<ellipse cx="110.725" cy="41.5368" rx="3.67335" ry="3.80435" fill="white" fill-opacity="0.2"/>
<ellipse cx="110.725" cy="60.0148" rx="3.67335" ry="3.80435" fill="white" fill-opacity="0.2"/>
<ellipse cx="110.725" cy="78.4933" rx="3.67335" ry="3.80435" fill="white" fill-opacity="0.2"/>
<ellipse cx="110.725" cy="96.9713" rx="3.67335" ry="3.80435" fill="white" fill-opacity="0.2"/>
</svg>
