<svg width="381" height="282" viewBox="0 0 381 282" fill="none" xmlns="http://www.w3.org/2000/svg">
<path fill-rule="evenodd" clip-rule="evenodd" d="M-118.471 341.248L-120.192 338.275L-121.934 335.283L-123.696 332.27L-125.477 329.232L-127.274 326.169L-129.085 323.076L-130.906 319.954L-132.734 316.798L-134.565 313.608L-136.394 310.381L-138.216 307.115L-140.027 303.81L-141.824 300.464L-143.601 297.077L-145.357 293.647L-147.087 290.175L-148.789 286.659L-150.459 283.1L-152.094 279.497L-153.692 275.852L-155.248 272.163L-156.761 268.431L-158.227 264.657L-159.643 260.842L-161.005 256.985L-162.311 253.089L-163.556 249.154L-164.739 245.181L-165.856 241.172L-166.904 237.128L-167.879 233.051L-168.78 228.943L-169.601 224.805L-170.341 220.64L-170.995 216.45L-171.56 212.238L-172.032 208.007L-172.407 203.76L-172.681 199.499L-172.852 195.228L-172.915 190.952L-172.866 186.674L-172.704 182.397L-172.423 178.126L-172.022 173.866L-171.498 169.621L-170.849 165.395L-170.071 161.193L-169.165 157.02L-168.127 152.88L-166.958 148.779L-165.657 144.72L-164.223 140.709L-162.657 136.751L-160.959 132.849L-159.131 129.007L-157.174 125.231L-155.09 121.523L-152.881 117.889L-150.55 114.33L-148.099 110.851L-145.533 107.454L-142.855 104.141L-140.068 100.917L-137.178 97.7815L-134.188 94.7373L-131.103 91.7857L-127.928 88.9277L-124.669 86.1641L-121.329 83.4953L-117.915 80.9216L-114.431 78.4428L-110.883 76.0586L-107.276 73.7683L-103.615 71.5712L-99.9049 69.4661L-96.1504 67.4519L-92.3562 65.5272L-88.527 63.6905L-84.6671 61.9402L-80.7805 60.2747L-76.8713 58.6923L-72.943 57.1913L-68.9991 55.7699L-65.0429 54.4266L-61.0773 53.1596L-57.1052 51.9672L-53.1298 50.847L-49.1544 49.7963L-45.1824 48.8115L-41.2172 47.889L-37.2622 47.0245L-33.3209 46.2134L-29.3963 45.4508L-25.4914 44.7316L-21.6093 44.0502L-17.7523 43.4011L-13.9228 42.7785L-10.123 42.1763L-6.35449 41.5885L-2.61888 41.0087L1.08264 40.4306L4.74916 39.8476L8.37999 39.2529L11.9748 38.6395L15.5335 38.0005L19.0565 37.329L22.5449 36.619L26.0003 35.8653L29.4249 35.0634L32.8213 34.2096L36.1925 33.3013L39.5419 32.3366L42.8733 31.3147L46.1905 30.2356L49.4979 29.1003L52.7996 27.9109L56.0999 26.6702L59.4032 25.382L62.7137 24.0511L66.0353 22.6828L69.3722 21.2834L72.7278 19.8601L76.1055 18.4203L79.5084 16.9724L82.9389 15.5252L86.3992 14.0881L89.891 12.6706L93.4156 11.2829L96.9735 9.93498L100.565 8.6373L104.189 7.40013L107.846 6.23382L111.533 5.14856L115.249 4.15427L118.991 3.26065L122.756 2.47702L126.54 1.8122L130.34 1.27453L134.151 0.87181L137.968 0.611189L141.786 0.499114L145.6 0.541306L149.405 0.742728L153.193 1.1076L156.961 1.6392L160.7 2.34005L164.406 3.21179L168.073 4.2551L171.694 5.46986L175.263 6.85505L178.775 8.40883L182.226 10.1285L185.608 12.0105L188.919 14.0507L192.152 16.2439L195.305 18.5847L198.374 21.0666L201.355 23.6828L204.247 26.4258L207.046 29.2878L209.751 32.2606L212.362 35.3352L214.878 38.5021L217.299 41.7508L219.628 45.0704L221.865 48.4494L224.015 51.8764L226.081 55.3393L228.068 58.8266L229.98 62.3264L231.823 65.8276L233.605 69.3189L235.33 72.7899L237.008 76.2305L238.644 79.6313L240.247 82.9835L241.826 86.2793L243.388 89.5112L244.942 92.673L246.495 95.759L248.057 98.7644L249.635 101.685L251.238 104.519L252.873 107.264L254.547 109.918L256.267 112.481L258.04 114.956L259.871 117.342L261.765 119.643L263.727 121.862L265.76 124.003L267.867 126.07L270.052 128.069L272.315 130.006L274.657 131.887L277.078 133.719L279.577 135.509L282.153 137.264L284.804 138.992L287.525 140.701L290.314 142.398L293.167 144.091L296.076 145.788L299.039 147.496L302.047 149.223L305.094 150.975L308.172 152.761L311.276 154.585L314.395 156.455L317.523 158.375L320.651 160.351L323.769 162.387L326.871 164.489L329.947 166.658L332.988 168.898L335.987 171.213L338.935 173.602L341.824 176.069L344.645 178.613L347.393 181.236L350.059 183.936L352.638 186.713L355.122 189.566L357.507 192.493L359.786 195.492L361.956 198.561L364.012 201.697L365.951 204.896L367.769 208.156L369.465 211.472L371.037 214.841L372.483 218.26L373.803 221.723L374.997 225.227L376.064 228.767L377.006 232.34L377.824 235.941L378.52 239.567L379.094 243.212L379.548 246.874L379.88 250.549L380.091 254.234L380.181 257.924L380.149 261.616L379.993 265.306L379.713 268.991L379.308 272.667L378.777 276.331L378.117 279.977L377.328 283.604L376.408 287.205L375.357 290.778L374.172 294.318L372.854 297.82L371.401 301.281L369.813 304.695L368.088 308.059L366.227 311.368L364.231 314.617L362.101 317.801L359.837 320.917L357.443 323.96L354.922 326.927L352.277 329.813L349.512 332.614L346.632 335.328L343.642 337.952L340.548 340.483L337.357 342.919L334.076 345.258L330.711 347.499L327.272 349.642L323.765 351.685L320.199 353.63L316.584 355.476L312.927 357.226L309.239 358.881L305.528 360.443L301.803 361.915L298.075 363.301L294.351 364.605L290.641 365.83L286.954 366.982L283.298 368.066L279.682 369.088L276.114 370.053L272.601 370.969L269.15 371.842L265.768 372.678L262.462 373.485L259.236 374.27L256.096 375.041L253.046 375.805L250.09 376.57L247.23 377.343L244.469 378.13L241.809 378.94L239.251 379.78L236.794 380.655L234.439 381.572L232.184 382.538L230.027 383.556L227.967 384.634L225.999 385.775L224.12 386.983L222.327 388.261L220.613 389.612L218.975 391.04L217.406 392.544L215.9 394.125L214.452 395.785L213.053 397.522L211.698 399.335L210.38 401.222L209.092 403.182L207.828 405.213L206.581 407.312L205.347 409.479L204.12 411.71L202.893 414.004L201.664 416.358L200.426 418.77L199.175 421.237L197.906 423.757L196.615 426.327L195.299 428.944L193.953 431.606L192.573 434.308L191.157 437.049L189.7 439.825L188.201 442.635L186.656 445.474L185.062 448.341L183.418 451.233L181.722 454.148L179.97 457.083L178.161 460.034L176.293 462.998L174.364 465.971L172.372 468.949L170.315 471.929L168.191 474.905L166 477.872L163.739 480.827L161.409 483.764L159.007 486.677L156.534 489.562L153.989 492.413L151.372 495.224L148.683 497.989L145.922 500.704L143.09 503.362L140.188 505.958L137.217 508.486L134.178 510.94L131.073 513.315L127.903 515.605L124.672 517.806L121.381 519.913L118.034 521.919L114.632 523.821L111.179 525.615L107.679 527.295L104.134 528.859L100.549 530.302L96.9263 531.621L93.2711 532.812L89.5871 533.874L85.8784 534.803L82.1494 535.598L78.4041 536.258L74.6471 536.779L70.8828 537.163L67.1154 537.407L63.3494 537.512L59.5891 537.478L55.8388 537.306L52.1026 536.996L48.3848 536.549L44.6892 535.967L41.0198 535.253L37.3802 534.407L33.7741 533.432L30.2048 532.332L26.6755 531.109L23.1892 529.767L19.7486 528.309L16.3563 526.739L13.0146 525.061L9.72554 523.28L6.49082 521.399L3.31196 519.423L0.190091 517.358L-2.87389 515.207L-5.87941 512.978L-8.82612 510.673L-11.714 508.299L-14.5431 505.86L-17.3138 503.362L-20.0269 500.809L-22.6829 498.206L-25.2829 495.558L-27.8279 492.868L-30.3191 490.141L-32.7577 487.381L-35.145 484.591L-37.4824 481.775L-39.7712 478.935L-42.0126 476.075L-44.208 473.197L-46.3586 470.302L-48.4657 467.394L-50.5305 464.474L-52.5543 461.543L-54.5383 458.604L-56.4837 455.657L-58.3918 452.704L-60.2638 449.747L-62.1009 446.785L-63.9044 443.821L-65.6753 440.854L-67.4151 437.886L-69.125 434.918L-70.8063 431.95L-72.4603 428.982L-74.0885 426.016L-75.6924 423.052L-77.2735 420.091L-78.8334 417.132L-80.3737 414.177L-81.8963 411.226L-83.4029 408.279L-84.8956 405.336L-86.3761 402.398L-87.8467 399.465L-89.3095 396.537L-90.7667 393.614L-92.2205 390.695L-93.6732 387.782L-95.127 384.874L-96.5844 381.97L-98.0476 379.069L-99.5189 376.172L-101 373.277L-102.494 370.384L-104.003 367.492L-105.527 364.598L-107.07 361.704L-108.632 358.805L-110.215 355.902L-111.82 352.992L-113.448 350.074L-115.099 347.145L-116.774 344.204L-118.471 341.248Z" fill="#DEEAEB"/>
</svg>
