<svg width="442" height="330" viewBox="0 0 442 330" fill="none" xmlns="http://www.w3.org/2000/svg">
<path d="M220.766 329.809C315.327 329.809 391.984 325.333 391.984 319.813C391.984 314.292 315.327 309.816 220.766 309.816C126.206 309.816 49.5488 314.292 49.5488 319.813C49.5488 325.333 126.206 329.809 220.766 329.809Z" fill="#F5F5F5"/>
<path d="M308.411 96.5647L299.651 93.0325C299.651 93.0325 288.091 114.111 284.78 115.18C280.276 116.628 270.951 120.655 265.423 121.361C264.672 122.244 263.445 124.991 263.56 125.988C270.986 128.47 287.305 125.176 290.802 122.58C298.759 116.69 308.411 96.5647 308.411 96.5647Z" fill="#FFD8D2"/>
<path d="M311.104 91.7698C312.738 97.8011 303.889 109.934 303.889 109.934L292.295 103.435C292.295 103.435 294.467 98.4458 297.116 93.3681C301.364 85.1644 309.241 84.8907 311.104 91.7698Z" fill="#D7E9BB"/>
<path opacity="0.2" d="M311.104 91.7698C312.738 97.8011 303.889 109.934 303.889 109.934L292.295 103.435C292.295 103.435 294.467 98.4458 297.116 93.3681C301.364 85.1644 309.241 84.8907 311.104 91.7698Z" fill="black"/>
<path opacity="0.2" d="M296.896 106.031L301.461 108.592L302.265 94.5779C299.607 96.6178 297.734 102.764 296.896 106.031Z" fill="black"/>
<path d="M303.474 87.2308C303.474 87.2308 294.449 107.312 299.712 144.701H335.274C335.839 139.243 333.967 112.61 340.74 86.8952C336.839 86.1329 332.892 85.6284 328.924 85.3852C323.892 85.0936 318.847 85.0936 313.815 85.3852C310.327 85.7394 306.87 86.3564 303.474 87.2308Z" fill="#D7E9BB"/>
<path opacity="0.2" d="M303.474 87.2308C303.474 87.2308 294.449 107.312 299.712 144.701H335.274C335.839 139.243 333.967 112.61 340.74 86.8952C336.839 86.1329 332.892 85.6284 328.924 85.3852C323.892 85.0936 318.847 85.0936 313.815 85.3852C310.327 85.7394 306.87 86.3564 303.474 87.2308Z" fill="black"/>
<g style="mix-blend-mode:multiply">
<path d="M295.226 320.607C295.173 321.561 308.658 322.329 325.339 322.329C342.02 322.329 355.602 321.561 355.655 320.607C355.708 319.654 342.232 318.894 325.542 318.894C308.852 318.894 295.288 319.663 295.226 320.607Z" fill="#E8ECF1"/>
</g>
<path d="M318.964 295.548L312.657 297.99L318.09 312.025L324.397 309.584L318.964 295.548Z" fill="#FFD8D2"/>
<path d="M347.089 313.817H340.439L338.002 298.425H344.652L347.089 313.817Z" fill="#FFD8D2"/>
<path d="M339.98 313.048H347.451C347.581 313.049 347.706 313.095 347.804 313.179C347.903 313.263 347.969 313.38 347.99 313.508L348.952 319.415C348.972 319.563 348.961 319.714 348.917 319.858C348.874 320.001 348.801 320.133 348.702 320.245C348.603 320.358 348.481 320.447 348.344 320.508C348.208 320.569 348.06 320.6 347.91 320.599C345.305 320.554 344.051 320.395 340.766 320.395C338.744 320.395 334.585 320.607 331.777 320.607C328.968 320.607 328.783 317.852 329.94 317.596C335.132 316.475 337.146 314.947 338.876 313.463C339.182 313.195 339.574 313.048 339.98 313.048Z" fill="#263238"/>
<path d="M317.904 310.77L324.968 308.704C325.094 308.668 325.229 308.677 325.349 308.728C325.47 308.78 325.569 308.871 325.63 308.986L328.28 314.285C328.341 314.419 328.373 314.565 328.372 314.713C328.371 314.861 328.338 315.007 328.275 315.141C328.212 315.274 328.12 315.393 328.007 315.487C327.893 315.582 327.76 315.651 327.617 315.689C325.048 316.395 323.326 316.828 320.111 317.764C317.895 318.409 315.634 319.459 313.444 320.157C311.925 320.643 308.358 320.66 306.512 320.66C303.783 320.66 303.174 317.782 304.349 317.649C307.307 317.322 307.704 317.472 309.338 316.651C312.011 315.483 314.434 313.81 316.473 311.724C316.858 311.285 317.351 310.956 317.904 310.77Z" fill="#263238"/>
<path d="M266.536 121.326L259.224 118.262L256.213 126.368C259.21 126.825 262.258 126.825 265.255 126.368L266.536 121.326Z" fill="#FFD8D2"/>
<path d="M253.784 118.05L253.59 123.437L256.213 126.351L259.224 118.244L253.784 118.05Z" fill="#FFD8D2"/>
<path d="M319.829 296.74L313.502 299.183L316.304 306.44L322.631 303.998L319.829 296.74Z" fill="#CF6F64"/>
<path d="M344.652 298.425H338.002L339.265 306.364H345.914L344.652 298.425Z" fill="#CF6F64"/>
<path opacity="0.2" d="M298.582 134.589C298.715 136.188 298.865 137.821 299.059 139.499L325.498 130.916C329.627 129.692 333.215 127.098 335.671 123.56C335.777 121.202 335.909 118.721 336.112 116.133C336.201 114.879 336.307 113.59 336.422 112.283C336.536 110.976 336.695 109.528 336.863 108.133L298.582 134.589Z" fill="black"/>
<path d="M307.219 105.625L306.335 105.519C306.856 101.104 310.15 97.6245 313.621 97.7128V98.5959C310.583 98.5341 307.687 101.669 307.219 105.625Z" fill="white"/>
<path d="M311.925 113.776H311.775V112.893C314.813 113.007 317.665 109.837 318.133 105.89L319.016 105.996C318.548 110.314 315.36 113.776 311.925 113.776Z" fill="white"/>
<path d="M328.43 68.3684C327.185 73.2341 325.719 82.1442 328.924 85.3851C328.924 85.3851 326.681 90.3214 317.648 90.3214C309.391 90.3214 313.815 85.3851 313.815 85.3851C319.308 84.0958 319.405 80.0867 318.681 76.2895L328.43 68.3684Z" fill="#FFD8D2"/>
<path d="M324.456 71.6006L318.69 76.2897C318.868 77.1622 318.972 78.0486 318.999 78.9389C320.685 80.6167 324.067 76.3691 324.412 74.1968C324.587 73.3416 324.602 72.4613 324.456 71.6006Z" fill="#CF6F64"/>
<path d="M308.773 68.3066C309.174 69.0021 309.714 69.6073 310.36 70.0844C311.006 70.5615 311.743 70.9003 312.526 71.0795C314.645 71.5475 315.705 69.5959 315.122 67.6355C314.601 65.8694 312.861 63.4939 310.707 63.9002C310.245 63.9952 309.813 64.1995 309.447 64.4959C309.08 64.7923 308.79 65.1721 308.601 65.6036C308.412 66.0351 308.328 66.5057 308.358 66.976C308.388 67.4463 308.53 67.9026 308.773 68.3066Z" fill="#CF6F64"/>
<path d="M312.279 52.7381C308.976 54.2482 307.81 67.3705 311.961 69.3133C316.111 71.256 318.531 49.8682 312.279 52.7381Z" fill="#263238"/>
<path d="M329.436 61.0478C328.642 67.6355 328.553 71.5121 325.021 74.8854C323.927 76.0049 322.544 76.8 321.026 77.1832C319.508 77.5663 317.914 77.5224 316.419 77.0565C314.924 76.5906 313.587 75.7206 312.556 74.5428C311.525 73.3649 310.839 71.9249 310.574 70.3818C309.506 64.4653 310.98 54.6897 317.586 52.067C318.974 51.4549 320.5 51.2251 322.006 51.4014C323.513 51.5778 324.945 52.1539 326.154 53.0701C327.363 53.9862 328.305 55.2091 328.882 56.6118C329.459 58.0145 329.651 59.5461 329.436 61.0478Z" fill="#FFD8D2"/>
<path d="M318.584 56.1468C323.476 54.9017 327.07 54.054 325.781 58.1249C324.076 63.5646 322.028 68.8277 324.774 69.0661C326.452 69.2162 333.869 66.0725 332.925 62.8846C332.103 60.1118 335.574 59.3524 336.192 57.9483C338.479 52.8618 331.936 53.533 333.101 50.4422C334.267 47.3515 327.803 42.371 324.271 44.8524C318.522 48.8616 308.658 48.7997 313.842 42.2032C317.559 37.4965 310.927 38.459 310.927 38.459C310.927 38.459 314.937 40.8345 308.19 44.508C301.055 48.4289 307.598 58.9638 318.584 56.1468Z" fill="#263238"/>
<path d="M332.033 68.3066C331.067 69.7041 329.616 70.6925 327.962 71.0795C325.781 71.5475 324.942 69.5959 325.763 67.6355C326.496 65.8694 328.509 63.4939 330.593 63.9002C332.677 64.3064 333.154 66.5758 332.033 68.3066Z" fill="#FFD8D2"/>
<path d="M299.712 144.701C299.712 144.701 293.743 198.126 293.275 218.401C292.798 239.489 313.506 305.286 313.506 305.286L324.103 300.871C324.103 300.871 311.74 240.752 313.506 220.044C315.378 197.464 323.114 144.736 323.114 144.736L299.712 144.701Z" fill="#D7E9BB"/>
<path opacity="0.2" d="M314.548 159.368C309.788 169.241 312.994 188.766 315.572 200.334C316.553 192.166 317.718 183.3 318.822 175.096C318.716 162.486 317.736 152.745 314.548 159.368Z" fill="black"/>
<path d="M323.635 297.374C323.688 297.374 324.889 300.747 324.889 300.747L312.667 305.887L310.742 302.302L323.635 297.374Z" fill="#D7E9BB"/>
<path d="M312.331 144.701C312.331 144.701 316.897 195.512 319.917 214.542C323.237 235.392 336.254 304.827 336.254 304.827H348.431C348.431 304.827 341.137 237.078 339.76 216.432C338.258 194.038 335.274 144.701 335.274 144.701H312.331Z" fill="#D7E9BB"/>
<path d="M348.617 301.657C348.67 301.657 349.023 305.056 349.023 305.056H335.636L334.682 301.153L348.617 301.657Z" fill="#D7E9BB"/>
<path opacity="0.2" d="M343.954 297.63C343.926 297.63 343.9 297.621 343.879 297.603C343.857 297.585 343.844 297.56 343.839 297.533C343.769 296.915 337.19 235.718 335.954 217.174C334.611 197.058 331.909 152.436 331.883 151.986C331.881 151.971 331.883 151.957 331.888 151.943C331.893 151.929 331.9 151.916 331.91 151.905C331.92 151.894 331.932 151.886 331.946 151.88C331.959 151.874 331.974 151.871 331.989 151.871C332.018 151.871 332.045 151.882 332.067 151.902C332.088 151.921 332.101 151.948 332.103 151.977C332.103 152.427 334.832 197.013 336.174 217.165C337.411 235.709 343.989 296.862 344.051 297.524C344.054 297.539 344.053 297.554 344.05 297.568C344.046 297.582 344.039 297.596 344.03 297.607C344.021 297.619 344.009 297.629 343.996 297.636C343.983 297.642 343.969 297.647 343.954 297.648V297.63Z" fill="black"/>
<path d="M319.334 62.8847C319.334 63.4234 318.999 63.8561 318.645 63.8561C318.292 63.8561 318.036 63.4234 318.071 62.8847C318.107 62.346 318.407 61.9133 318.76 61.9133C319.113 61.9133 319.37 62.3549 319.334 62.8847Z" fill="#263238"/>
<path d="M313.276 62.8847C313.276 63.4234 312.932 63.8561 312.588 63.8561C312.243 63.8561 311.978 63.4234 312.005 62.8847C312.031 62.346 312.349 61.9133 312.702 61.9133C313.056 61.9133 313.312 62.3549 313.276 62.8847Z" fill="#263238"/>
<path d="M315.184 63.1584C314.447 64.8033 313.497 66.3442 312.358 67.7416C313.241 68.6246 314.892 68.2184 314.892 68.2184L315.184 63.1584Z" fill="#DF5753"/>
<path d="M315.343 70.4702C315.322 70.4702 315.302 70.4661 315.283 70.458C315.264 70.4499 315.247 70.438 315.233 70.4231C315.219 70.4082 315.208 70.3906 315.201 70.3714C315.194 70.3521 315.191 70.3317 315.193 70.3112C315.195 70.2683 315.214 70.2278 315.245 70.1982C315.276 70.1687 315.317 70.1522 315.36 70.1523C316.036 70.1569 316.704 70.0103 317.315 69.723C317.926 69.4357 318.465 69.0151 318.893 68.4921C318.923 68.4654 318.962 68.4507 319.003 68.4507C319.044 68.4507 319.083 68.4654 319.113 68.4921C319.142 68.5217 319.158 68.5613 319.158 68.6025C319.158 68.6437 319.142 68.6832 319.113 68.7129C318.656 69.2687 318.08 69.715 317.427 70.0191C316.775 70.3232 316.063 70.4773 315.343 70.4702Z" fill="#263238"/>
<path d="M320.412 61.2598C320.369 61.2815 320.322 61.2928 320.275 61.2928C320.227 61.2928 320.18 61.2815 320.138 61.2598C319.807 61.0462 319.432 60.9134 319.04 60.8719C318.649 60.8305 318.254 60.8817 317.886 61.0213C317.85 61.0393 317.811 61.0498 317.771 61.0524C317.731 61.055 317.691 61.0495 317.653 61.0364C317.615 61.0232 317.58 61.0026 317.551 60.9757C317.521 60.9489 317.497 60.9163 317.48 60.88C317.447 60.8015 317.446 60.7132 317.478 60.634C317.509 60.5548 317.57 60.491 317.648 60.4562C318.109 60.2676 318.61 60.1932 319.106 60.2394C319.603 60.2855 320.081 60.4507 320.5 60.7211C320.534 60.7441 320.563 60.7736 320.585 60.8079C320.607 60.8422 320.623 60.8806 320.63 60.9208C320.637 60.9611 320.637 61.0024 320.628 61.0424C320.619 61.0824 320.603 61.1203 320.579 61.1538C320.535 61.2044 320.476 61.2412 320.412 61.2598Z" fill="#263238"/>
<path d="M310.936 59.4937C310.889 59.4823 310.846 59.4578 310.813 59.4231C310.783 59.3943 310.76 59.36 310.744 59.322C310.728 59.2841 310.72 59.2434 310.72 59.2023C310.72 59.1612 310.728 59.1205 310.744 59.0826C310.76 59.0447 310.783 59.0103 310.813 58.9815C311.151 58.6019 311.573 58.3056 312.044 58.1157C312.516 57.9257 313.025 57.8473 313.532 57.8865C313.573 57.8928 313.612 57.9074 313.647 57.9293C313.682 57.9512 313.711 57.98 313.735 58.0139C313.758 58.0479 313.774 58.0862 313.782 58.1266C313.789 58.167 313.789 58.2085 313.78 58.2486C313.761 58.3304 313.713 58.4024 313.644 58.4512C313.576 58.5 313.492 58.5221 313.409 58.5135C313.008 58.4882 312.606 58.5546 312.234 58.7076C311.862 58.8606 311.53 59.0962 311.263 59.3966C311.223 59.4413 311.171 59.474 311.113 59.4911C311.056 59.5083 310.994 59.5092 310.936 59.4937Z" fill="#263238"/>
<path d="M344.157 95.5845L334.973 93.1384C334.973 93.1384 325.966 115.312 322.778 116.752C318.451 118.73 307.492 125.582 302.83 128.823C302.574 129.927 302.777 132.85 303.36 133.653C311.307 132.205 326.522 126.351 329.701 123.375C336.951 116.584 344.157 95.5845 344.157 95.5845Z" fill="#FFD8D2"/>
<path d="M337.746 314.214C337.298 314.25 336.851 314.128 336.483 313.87C336.37 313.767 336.285 313.636 336.237 313.491C336.189 313.345 336.179 313.19 336.21 313.04C336.215 312.946 336.246 312.855 336.299 312.777C336.352 312.7 336.425 312.638 336.51 312.598C337.252 312.218 339.327 313.534 339.565 313.684C339.591 313.7 339.612 313.725 339.623 313.753C339.634 313.782 339.635 313.814 339.627 313.843C339.62 313.874 339.604 313.902 339.583 313.926C339.561 313.949 339.534 313.966 339.503 313.976C338.928 314.117 338.339 314.197 337.746 314.214ZM336.863 312.836C336.796 312.822 336.727 312.822 336.66 312.836C336.626 312.854 336.598 312.88 336.579 312.913C336.56 312.946 336.552 312.984 336.554 313.022C336.53 313.125 336.534 313.232 336.565 313.333C336.596 313.433 336.653 313.524 336.731 313.596C337.075 313.905 337.94 313.94 339.08 313.72C338.401 313.273 337.637 312.972 336.837 312.836H336.863Z" fill="#D7E9BB"/>
<path d="M339.459 313.975C339.436 313.983 339.412 313.983 339.389 313.975C338.726 313.605 337.481 312.148 337.667 311.406C337.694 311.288 337.761 311.183 337.855 311.108C337.95 311.033 338.067 310.991 338.188 310.991C338.306 310.975 338.427 310.985 338.541 311.02C338.655 311.055 338.761 311.114 338.85 311.194C339.583 311.821 339.627 313.746 339.627 313.843C339.631 313.872 339.626 313.902 339.611 313.927C339.597 313.953 339.575 313.973 339.548 313.984C339.518 313.99 339.487 313.987 339.459 313.975ZM338.276 311.282H338.214C338.011 311.282 337.985 311.397 337.976 311.441C337.87 311.874 338.656 312.978 339.309 313.499C339.306 312.753 339.075 312.025 338.647 311.415C338.544 311.325 338.412 311.278 338.276 311.282Z" fill="#D7E9BB"/>
<path d="M314.301 313.11C313.76 313.299 313.172 313.299 312.632 313.11C312.509 313.044 312.405 312.947 312.329 312.83C312.254 312.713 312.209 312.578 312.199 312.439C312.188 312.352 312.199 312.263 312.231 312.181C312.264 312.099 312.317 312.027 312.384 311.971C313.091 311.335 315.979 311.971 316.305 312.095C316.336 312.103 316.364 312.121 316.383 312.147C316.402 312.172 316.412 312.204 316.411 312.236C316.413 312.269 316.404 312.302 316.387 312.33C316.369 312.358 316.344 312.381 316.314 312.395C315.664 312.689 314.99 312.928 314.301 313.11ZM312.861 312.059C312.76 312.08 312.666 312.125 312.588 312.192C312.559 312.213 312.538 312.242 312.525 312.274C312.513 312.307 312.51 312.343 312.517 312.377C312.523 312.47 312.552 312.56 312.601 312.638C312.65 312.717 312.719 312.782 312.799 312.828C313.268 313.075 314.354 312.881 315.758 312.289C314.812 312.05 313.833 311.973 312.861 312.059Z" fill="#D7E9BB"/>
<path d="M316.288 312.395H316.217C315.334 312.236 313.568 311.22 313.515 310.461C313.515 310.284 313.594 310.037 314.018 309.896C314.161 309.845 314.313 309.823 314.465 309.832C314.617 309.841 314.765 309.881 314.901 309.949C315.855 310.417 316.358 312.112 316.385 312.192C316.391 312.218 316.39 312.246 316.382 312.273C316.375 312.299 316.36 312.323 316.341 312.342C316.327 312.364 316.309 312.382 316.288 312.395ZM314.195 310.161H314.106C313.833 310.258 313.833 310.373 313.833 310.408C313.833 310.867 315.113 311.706 316.005 311.989C315.8 311.279 315.365 310.658 314.769 310.223C314.591 310.132 314.387 310.11 314.195 310.161Z" fill="#D7E9BB"/>
<path d="M303.58 128.302L294.37 132.541L293.301 135.19L296.701 137.477C296.701 137.477 303.059 136.789 304.87 132.7L303.58 128.302Z" fill="#FFD8D2"/>
<path d="M303.969 133.804C303.763 132.034 303.179 130.329 302.256 128.805L303.713 127.71C304.809 129.466 305.508 131.44 305.762 133.495L303.969 133.804Z" fill="#263238"/>
<path d="M305.541 129.556C305.735 129.862 305.831 130.221 305.815 130.584C305.798 130.946 305.67 131.295 305.449 131.582C305.227 131.87 304.922 132.082 304.576 132.19C304.23 132.298 303.858 132.297 303.513 132.186C303.167 132.076 302.864 131.861 302.644 131.572C302.425 131.283 302.299 130.934 302.285 130.571C302.272 130.208 302.37 129.85 302.567 129.545C302.764 129.241 303.05 129.004 303.386 128.867C303.763 128.675 304.202 128.639 304.605 128.768C305.009 128.897 305.345 129.181 305.541 129.556Z" fill="#263238"/>
<path d="M288.144 135.967L289.372 137.203L297.637 133.671L294.37 132.541L288.144 135.967Z" fill="#FFD8D2"/>
<path opacity="0.2" d="M323.635 297.374C323.688 297.374 324.889 300.747 324.889 300.747L312.667 305.887L310.742 302.302L323.635 297.374Z" fill="black"/>
<path opacity="0.2" d="M348.617 301.657C348.67 301.657 349.023 305.056 349.023 305.056H335.636L334.682 301.153L348.617 301.657Z" fill="black"/>
<path d="M346.55 93.0414C348.979 100.874 339.486 111.586 339.486 111.586L326.372 106.234C327.927 101.707 329.719 97.265 331.741 92.9266C335.768 84.2461 344.095 85.138 346.55 93.0414Z" fill="#D7E9BB"/>
<path opacity="0.2" d="M346.55 93.0414C348.979 100.874 339.486 111.586 339.486 111.586L326.372 106.234C327.927 101.707 329.719 97.265 331.741 92.9266C335.768 84.2461 344.095 85.138 346.55 93.0414Z" fill="black"/>
<path d="M216.245 14.5632H210.602V15.4728H216.245V14.5632Z" fill="#D7E9BB"/>
<path d="M289.291 50.5628L288.608 65.7185L289.516 65.7594L290.199 50.6038L289.291 50.5628Z" fill="#D7E9BB"/>
<path d="M287.535 18.6431H183.333L173.637 235.63H277.839L287.535 18.6431Z" fill="#D7E9BB"/>
<path opacity="0.56" d="M284.427 21.6277H180.225L170.529 238.615H274.731L284.427 21.6277Z" fill="#FAFAFA"/>
<path opacity="0.07" d="M281.318 24.6038H177.117L167.412 241.591H271.613L281.318 24.6038Z" fill="#D7E9BB"/>
<path d="M269.459 119.242H180.516L179.775 135.844H268.717L269.459 119.242Z" fill="white"/>
<path d="M229.429 107.126H181.055L180.728 114.553H229.103L229.429 107.126Z" fill="#D7E9BB"/>
<path d="M267.454 164.049H178.512L177.77 180.65H266.712L267.454 164.049Z" fill="white"/>
<path opacity="0.47" d="M251.144 203.071H191.334L190.442 222.967H250.252L251.144 203.071Z" fill="#D7E9BB"/>
<path d="M247.144 226.057H187.334C187.308 226.064 187.28 226.064 187.254 226.057C187.245 226.032 187.245 226.004 187.254 225.978L188.137 206.074C188.137 206.06 188.14 206.047 188.145 206.034C188.151 206.022 188.159 206.011 188.169 206.002C188.179 205.993 188.19 205.986 188.203 205.981C188.216 205.977 188.23 205.975 188.243 205.977H248.053C248.064 205.971 248.076 205.968 248.089 205.968C248.101 205.968 248.113 205.971 248.124 205.977C248.13 205.987 248.133 205.999 248.133 206.012C248.133 206.024 248.13 206.036 248.124 206.047L247.258 225.996C247.248 226.016 247.231 226.033 247.211 226.044C247.19 226.055 247.167 226.06 247.144 226.057ZM187.44 225.846H247.038L247.921 206.153H188.323L187.44 225.846Z" fill="white"/>
<path d="M218.983 151.933H179.05L178.724 159.368H218.647L218.983 151.933Z" fill="#D7E9BB"/>
<path d="M250.005 65.6134C249.776 70.445 248.058 75.0874 245.086 78.9035C242.886 81.7859 240.054 84.126 236.809 85.744C233.564 87.362 229.991 88.215 226.365 88.2375C223.435 88.2598 220.531 87.682 217.832 86.5396C215.134 85.3972 212.698 83.7144 210.674 81.5949C208.651 79.4754 207.083 76.964 206.066 74.2155C205.05 71.467 204.607 68.5395 204.765 65.6134C205.076 59.5414 207.694 53.8175 212.085 49.6121C216.476 45.4067 222.308 43.0376 228.387 42.9892C231.32 42.9619 234.227 43.5362 236.929 44.6766C239.63 45.817 242.07 47.4994 244.096 49.6197C246.122 51.74 247.691 54.2533 248.708 57.0042C249.724 59.755 250.165 62.6851 250.005 65.6134Z" fill="white"/>
<path d="M252.133 47.7224C252.075 49.0071 251.618 50.2418 250.826 51.2546C250.24 52.0202 249.486 52.6417 248.623 53.0718C247.76 53.5018 246.81 53.729 245.846 53.736C244.911 53.7417 243.99 53.5185 243.162 53.086C242.333 52.6534 241.624 52.0247 241.095 51.2546C240.394 50.2141 240.047 48.9755 240.106 47.7224C240.191 46.1103 240.888 44.5914 242.055 43.4756C243.221 42.3598 244.77 41.731 246.384 41.7175C247.163 41.7104 247.935 41.8629 248.653 42.1654C249.37 42.468 250.018 42.9144 250.557 43.477C251.096 44.0395 251.513 44.7064 251.784 45.4366C252.055 46.1667 252.174 46.9446 252.133 47.7224Z" fill="#D7E9BB"/>
<path d="M190.098 127.543C190.055 128.254 189.745 128.923 189.228 129.415C188.712 129.906 188.029 130.184 187.316 130.192C186.972 130.196 186.63 130.129 186.313 129.996C185.995 129.863 185.709 129.666 185.47 129.418C185.232 129.17 185.047 128.875 184.927 128.553C184.807 128.23 184.755 127.886 184.773 127.543C184.811 126.83 185.12 126.158 185.637 125.666C186.154 125.173 186.84 124.897 187.554 124.893C187.898 124.891 188.239 124.958 188.556 125.092C188.873 125.225 189.159 125.422 189.397 125.67C189.635 125.918 189.82 126.212 189.94 126.534C190.061 126.856 190.114 127.199 190.098 127.543Z" fill="#263238"/>
<path d="M202.001 127.543C201.961 128.255 201.651 128.925 201.134 129.417C200.618 129.909 199.933 130.186 199.22 130.192C198.876 130.195 198.536 130.127 198.219 129.994C197.903 129.86 197.617 129.663 197.38 129.415C197.143 129.167 196.958 128.873 196.839 128.551C196.719 128.229 196.667 127.886 196.685 127.543C196.723 126.831 197.032 126.161 197.547 125.669C198.062 125.176 198.746 124.899 199.458 124.893C199.802 124.889 200.144 124.956 200.461 125.089C200.778 125.222 201.065 125.419 201.304 125.667C201.542 125.915 201.727 126.21 201.847 126.533C201.967 126.855 202.019 127.199 202.001 127.543Z" fill="#263238"/>
<path d="M213.914 127.543C213.873 128.255 213.563 128.925 213.047 129.417C212.53 129.909 211.846 130.186 211.132 130.192C210.788 130.195 210.448 130.127 210.131 129.994C209.814 129.86 209.528 129.663 209.29 129.415C209.051 129.167 208.867 128.873 208.746 128.551C208.626 128.229 208.572 127.886 208.589 127.543C208.629 126.83 208.939 126.16 209.456 125.668C209.973 125.176 210.657 124.899 211.371 124.893C211.715 124.889 212.056 124.956 212.374 125.089C212.691 125.222 212.978 125.419 213.216 125.667C213.455 125.915 213.639 126.21 213.759 126.533C213.879 126.855 213.932 127.199 213.914 127.543Z" fill="#263238"/>
<path d="M188.093 172.349C188.051 173.061 187.74 173.73 187.224 174.222C186.708 174.713 186.024 174.991 185.311 174.999C184.968 175.001 184.627 174.934 184.31 174.801C183.993 174.667 183.707 174.47 183.469 174.222C183.231 173.974 183.046 173.68 182.925 173.358C182.805 173.036 182.751 172.693 182.768 172.349C182.808 171.637 183.118 170.967 183.635 170.475C184.152 169.983 184.836 169.706 185.55 169.7C185.894 169.697 186.234 169.765 186.551 169.898C186.868 170.032 187.154 170.229 187.392 170.477C187.63 170.725 187.815 171.019 187.936 171.341C188.056 171.663 188.11 172.006 188.093 172.349Z" fill="#263238"/>
<path d="M199.997 172.349C199.956 173.06 199.648 173.729 199.133 174.221C198.618 174.713 197.936 174.991 197.224 174.999C196.88 175.003 196.538 174.936 196.221 174.803C195.904 174.67 195.617 174.473 195.378 174.225C195.14 173.977 194.955 173.682 194.835 173.36C194.715 173.037 194.663 172.693 194.681 172.349C194.721 171.637 195.031 170.967 195.548 170.475C196.064 169.983 196.749 169.706 197.462 169.7C197.806 169.697 198.146 169.765 198.463 169.898C198.779 170.032 199.065 170.229 199.302 170.477C199.539 170.725 199.724 171.019 199.843 171.341C199.963 171.663 200.015 172.007 199.997 172.349Z" fill="#263238"/>
<path d="M211.936 172.349C211.895 173.062 211.585 173.732 211.069 174.224C210.552 174.716 209.868 174.993 209.154 174.999C208.811 175 208.47 174.932 208.154 174.798C207.838 174.664 207.552 174.467 207.314 174.219C207.077 173.972 206.892 173.678 206.771 173.357C206.65 173.035 206.595 172.692 206.611 172.349C206.653 171.638 206.964 170.969 207.48 170.477C207.996 169.985 208.68 169.708 209.393 169.7C209.737 169.696 210.078 169.763 210.395 169.896C210.713 170.029 211 170.225 211.238 170.474C211.476 170.722 211.661 171.017 211.781 171.339C211.901 171.662 211.954 172.006 211.936 172.349Z" fill="#263238"/>
<path d="M223.822 172.349C223.779 173.061 223.469 173.73 222.953 174.222C222.436 174.713 221.753 174.991 221.04 174.999C220.697 175 220.357 174.932 220.04 174.798C219.724 174.664 219.438 174.467 219.201 174.219C218.963 173.972 218.778 173.678 218.657 173.357C218.536 173.035 218.481 172.693 218.497 172.349C218.539 171.638 218.85 170.969 219.366 170.477C219.882 169.986 220.566 169.708 221.279 169.7C221.622 169.697 221.963 169.765 222.28 169.898C222.597 170.032 222.883 170.229 223.121 170.477C223.359 170.725 223.544 171.019 223.665 171.341C223.785 171.663 223.839 172.006 223.822 172.349Z" fill="#263238"/>
<path d="M235.779 172.349C235.736 173.061 235.426 173.73 234.909 174.222C234.393 174.713 233.71 174.991 232.997 174.999C232.653 175.003 232.311 174.936 231.994 174.803C231.677 174.67 231.39 174.473 231.151 174.225C230.913 173.977 230.728 173.682 230.608 173.36C230.488 173.037 230.436 172.693 230.454 172.349C230.494 171.637 230.804 170.967 231.321 170.475C231.837 169.983 232.522 169.706 233.235 169.7C233.579 169.697 233.92 169.765 234.237 169.898C234.554 170.032 234.84 170.229 235.078 170.477C235.316 170.725 235.501 171.019 235.621 171.341C235.742 171.663 235.795 172.006 235.779 172.349Z" fill="#263238"/>
<path d="M233.971 64.435C237.667 60.8206 237.864 55.0271 234.409 51.4948C230.955 47.9626 225.159 48.0293 221.463 51.6437C217.766 55.2582 217.57 61.0517 221.025 64.5839C224.479 68.1161 230.275 68.0495 233.971 64.435Z" fill="#D7E9BB"/>
<path d="M245.086 78.9034C242.886 81.7858 240.054 84.1259 236.809 85.7439C233.564 87.3619 229.991 88.2149 226.365 88.2374C222.849 88.2672 219.379 87.4314 216.262 85.8036C213.145 84.1758 210.477 81.8061 208.492 78.9034C212.784 74.6294 219.574 71.8389 227.098 71.8389C234.622 71.8389 241.174 74.6294 245.086 78.9034Z" fill="#D7E9BB"/>
<path opacity="0.1" d="M233.971 64.435C237.667 60.8206 237.864 55.0271 234.409 51.4948C230.955 47.9626 225.159 48.0293 221.463 51.6437C217.766 55.2582 217.57 61.0517 221.025 64.5839C224.479 68.1161 230.275 68.0495 233.971 64.435Z" fill="white"/>
<path opacity="0.1" d="M245.086 78.9034C242.886 81.7858 240.054 84.1259 236.809 85.7439C233.564 87.3619 229.991 88.2149 226.365 88.2374C222.849 88.2672 219.379 87.4314 216.262 85.8036C213.145 84.1758 210.477 81.8061 208.492 78.9034C212.784 74.6294 219.574 71.8389 227.098 71.8389C234.622 71.8389 241.174 74.6294 245.086 78.9034Z" fill="white"/>
<path d="M115.161 139.844C114.322 141.681 113.439 143.703 112.67 145.663C111.902 147.624 111.116 149.646 110.436 151.659C109.048 155.627 107.99 159.703 107.275 163.846L107.081 165.144C107.062 165.367 107.083 165.591 107.142 165.806C107.351 166.538 107.679 167.23 108.114 167.855C109.248 169.472 110.563 170.953 112.035 172.27C113.586 173.713 115.213 175.072 116.909 176.341C118.605 177.648 120.388 178.92 122.146 180.121L120.494 183.22C116.298 181.392 112.315 179.109 108.617 176.412C106.644 174.973 104.863 173.287 103.319 171.396C102.403 170.27 101.689 168.994 101.208 167.625C100.929 166.77 100.786 165.876 100.784 164.976C100.784 164.764 100.784 164.455 100.784 164.305V163.872L100.873 162.989C101.379 158.388 102.346 153.85 103.76 149.443C104.449 147.271 105.182 145.107 106.021 142.997C106.86 140.886 107.725 138.82 108.794 136.674L115.161 139.844Z" fill="#FFD8D2"/>
<path d="M120.901 179.573L127.144 176.412L125.528 183.264C125.528 183.264 121.245 184.465 119.258 182.381L120.901 179.573Z" fill="#FFD8D2"/>
<path d="M132.857 177.533L131.197 183.202L125.528 183.264L127.144 176.412L132.857 177.533Z" fill="#FFD8D2"/>
<path d="M141.67 106.782C142.004 108.006 142.469 109.19 143.057 110.314C142.885 110.509 142.664 110.654 142.417 110.733C142.169 110.812 141.905 110.823 141.653 110.765L141.67 106.782Z" fill="#DF5753"/>
<path d="M141.485 106.835C141.851 106.835 142.147 106.38 142.147 105.819C142.147 105.259 141.851 104.804 141.485 104.804C141.119 104.804 140.823 105.259 140.823 105.819C140.823 106.38 141.119 106.835 141.485 106.835Z" fill="#263238"/>
<path d="M141.291 104.839L142.633 104.459C142.633 104.459 141.979 105.501 141.291 104.839Z" fill="#263238"/>
<path d="M124.424 113.264C125.228 117.37 126.031 124.902 123.152 127.649C123.152 127.649 124.283 131.817 131.921 131.817C140.319 131.817 135.93 127.649 135.93 127.649C131.347 126.554 131.462 123.154 132.266 119.957L124.424 113.264Z" fill="#FFD8D2"/>
<path d="M122.19 103.903C122.614 110.765 122.649 113.679 126.111 117.202C131.33 122.501 139.666 120.487 141.299 113.67C142.774 107.488 141.838 97.3155 135.118 94.5868C133.643 93.9792 132.037 93.7579 130.453 93.9438C128.868 94.1298 127.357 94.7169 126.063 95.6496C124.769 96.5823 123.734 97.8298 123.056 99.2741C122.378 100.718 122.08 102.312 122.19 103.903Z" fill="#FFD8D2"/>
<path d="M122.87 96.1851C119.426 97.439 114.834 96.503 116.635 107.126C118.543 118.376 115.611 122.077 115.611 122.077C115.611 122.077 128.672 124.858 142.006 121.909C142.006 121.909 137.935 114.791 139.074 109.546C140.531 102.923 139.383 100.477 139.383 100.477C139.383 100.477 127.709 94.4189 122.87 96.1851Z" fill="#263238"/>
<path d="M137.44 107.48C137.444 108.784 137.818 110.061 138.518 111.162C139.454 112.592 140.558 112.045 140.831 110.526C141.079 109.193 140.893 106.835 139.701 105.917C138.509 104.998 137.458 105.899 137.44 107.48Z" fill="#FFD8D2"/>
<path d="M119.876 97.342C118.887 94.5603 123.603 90.2775 133.581 92.0436C143.56 93.8097 143.993 102.119 143.993 102.119L141.979 99.7174L142.068 102.243L131.815 104.212L119.876 97.342Z" fill="#263238"/>
<path d="M120.724 128.117C120.665 127.714 120.766 127.303 121.005 126.973C121.244 126.643 121.603 126.42 122.004 126.351C125.113 125.838 132.177 124.796 135.727 125.291C138.376 125.662 139.065 127.198 139.18 128.461C139.198 128.682 139.168 128.905 139.093 129.113C139.018 129.322 138.899 129.512 138.744 129.671C138.59 129.83 138.403 129.954 138.196 130.035C137.989 130.116 137.768 130.151 137.546 130.139L122.199 129.45C121.837 129.432 121.492 129.289 121.224 129.046C120.955 128.803 120.778 128.475 120.724 128.117Z" fill="#D7E9BB"/>
<path opacity="0.6" d="M120.724 128.117C120.665 127.714 120.766 127.303 121.005 126.973C121.244 126.643 121.603 126.42 122.004 126.351C125.113 125.838 132.177 124.796 135.727 125.291C138.376 125.662 139.065 127.198 139.18 128.461C139.198 128.682 139.168 128.905 139.093 129.113C139.018 129.322 138.899 129.512 138.744 129.671C138.59 129.83 138.403 129.954 138.196 130.035C137.989 130.116 137.768 130.151 137.546 130.139L122.199 129.45C121.837 129.432 121.492 129.289 121.224 129.046C120.955 128.803 120.778 128.475 120.724 128.117Z" fill="black"/>
<path d="M129.599 282.388L135.295 286.345L144.823 273.425L139.127 269.478L129.599 282.388Z" fill="#FFD8D2"/>
<path d="M116.317 282.132L122.331 285.559L130.764 271.897L124.751 268.471L116.317 282.132Z" fill="#FFD8D2"/>
<path d="M144.814 273.425L139.904 280.084L134.208 276.136L139.118 269.478L144.814 273.425Z" fill="#CF6F64"/>
<path d="M124.742 268.471L130.764 271.906L126.42 278.944L120.397 275.509L124.742 268.471Z" fill="#CF6F64"/>
<path d="M134.403 171.246C134.403 171.246 156.638 199.266 152.461 226.067C149.097 247.711 129.581 277.019 129.581 277.019L120.406 272.463C126.873 259.504 132.392 246.093 136.919 232.336C138.315 228.065 138.723 223.533 138.111 219.081C137.499 214.63 135.884 210.375 133.387 206.639C122.119 190.188 104.069 199.981 116.211 171.246H134.403Z" fill="#D7E9BB"/>
<path opacity="0.6" d="M134.403 171.246C134.403 171.246 156.638 199.266 152.461 226.067C149.097 247.711 129.581 277.019 129.581 277.019L120.406 272.463C126.873 259.504 132.392 246.093 136.919 232.336C138.315 228.065 138.723 223.533 138.111 219.081C137.499 214.63 135.884 210.375 133.387 206.639C122.119 190.188 104.069 199.981 116.211 171.246H134.403Z" fill="black"/>
<path opacity="0.4" d="M145.309 189.243L142.076 186.028C142.076 186.284 148.337 224.936 150.095 235.798C151.132 232.625 151.926 229.378 152.47 226.084C154.537 212.935 150.218 199.504 145.309 189.243Z" fill="black"/>
<path d="M144.328 171.246C144.328 171.246 171.103 206.463 171.862 227.577C172.489 245.238 142.721 279.457 142.721 279.457L134.067 273.858C134.067 273.858 151.49 249.556 155.879 229.705C154.183 210.03 118.331 171.246 118.331 171.246H144.328Z" fill="#D7E9BB"/>
<path opacity="0.6" d="M144.328 171.246C144.328 171.246 171.103 206.463 171.862 227.577C172.489 245.238 142.721 279.457 142.721 279.457L134.067 273.858C134.067 273.858 151.49 249.556 155.879 229.705C154.183 210.03 118.331 171.246 118.331 171.246H144.328Z" fill="black"/>
<path d="M111.205 129.221C108.343 129.901 105.597 140.303 105.597 140.303L116.785 147.774C116.785 147.774 120.512 139.544 119.205 135.941C117.854 132.188 114.799 128.364 111.205 129.221Z" fill="#D7E9BB"/>
<path opacity="0.2" d="M113.395 135.923L112.617 144.992L116.777 147.783C117.925 145.197 118.775 142.489 119.311 139.711L113.395 135.923Z" fill="black"/>
<path d="M147.64 129.424C147.64 129.424 150.942 130.58 144.328 171.237H116.194C116.671 159.757 116.679 152.692 111.204 129.221C115.144 128.409 119.137 127.883 123.152 127.649C127.406 127.344 131.676 127.344 135.93 127.649C141.423 128.152 147.64 129.424 147.64 129.424Z" fill="#D7E9BB"/>
<path d="M150.501 135.923C151.137 137.689 151.808 139.588 152.514 141.416C153.221 143.244 153.892 145.125 154.607 146.979L156.771 152.525L157.318 153.911L157.601 154.6L157.733 154.944C157.733 155.006 157.733 155.006 157.733 154.997C157.572 154.77 157.36 154.583 157.115 154.45C156.766 154.244 156.372 154.126 155.967 154.105C155.631 154.095 155.296 154.158 154.987 154.291C154.581 154.476 154.581 154.556 154.589 154.547C154.663 154.488 154.728 154.42 154.784 154.344C155.273 153.702 155.696 153.013 156.047 152.286C156.462 151.474 156.859 150.608 157.256 149.734C158.033 147.968 158.749 146.14 159.464 144.295C160.179 142.449 160.859 140.586 161.522 138.705L163.535 133.071L166.935 133.954C166.264 137.981 165.398 141.901 164.356 145.893C163.853 147.88 163.261 149.849 162.59 151.836C162.254 152.834 161.884 153.823 161.46 154.838C161.018 155.941 160.474 156.999 159.835 158C159.6 158.337 159.34 158.655 159.058 158.953C158.607 159.441 158.06 159.828 157.451 160.093C156.91 160.325 156.325 160.433 155.737 160.411C155.079 160.386 154.438 160.195 153.874 159.854C153.209 159.439 152.657 158.866 152.267 158.185C152.135 157.956 152.02 157.726 151.94 157.558L151.772 157.223L151.437 156.534L150.766 155.165C149.883 153.328 149 151.474 148.231 149.611C147.463 147.747 146.651 145.858 145.891 143.959C145.132 142.06 144.452 140.162 143.807 138.113L150.501 135.923Z" fill="#FFD8D2"/>
<path d="M147.64 129.424C151.022 130.227 154.828 140.224 154.828 140.224L144.77 148.781C144.77 148.781 138.262 137.884 139.577 134.289C140.946 130.545 143.224 128.373 147.64 129.424Z" fill="#D7E9BB"/>
<path d="M165.133 129.909L168.666 126.96L171.121 130.784L169.31 133.971C169.31 133.971 166.431 136.621 163.888 135.27C163.485 134.362 163.388 133.348 163.612 132.381C163.837 131.414 164.371 130.546 165.133 129.909Z" fill="#FFD8D2"/>
<path d="M175.041 126.969L174.776 127.931L169.187 128.867L168.639 126.96L175.041 126.969Z" fill="#FFD8D2"/>
<path d="M143.41 279.907L133.325 273.39L135.136 270.246L146.465 277.214L143.41 279.907Z" fill="#D7E9BB"/>
<path d="M126.278 285.099C125.394 284.991 124.543 284.69 123.788 284.216C123.757 284.205 123.73 284.185 123.711 284.158C123.692 284.131 123.681 284.099 123.681 284.066C123.681 284.033 123.692 284.001 123.711 283.974C123.73 283.947 123.757 283.927 123.788 283.916C124.062 283.828 126.437 283.095 127.126 283.66C127.204 283.724 127.262 283.808 127.297 283.903C127.331 283.998 127.339 284.1 127.32 284.199C127.308 284.358 127.255 284.511 127.167 284.644C127.079 284.777 126.959 284.885 126.817 284.958C126.652 285.048 126.467 285.097 126.278 285.099ZM124.291 284.128C125.395 284.693 126.278 284.896 126.702 284.684C126.795 284.633 126.872 284.559 126.928 284.47C126.983 284.38 127.015 284.278 127.02 284.172C127.02 284.031 127.02 283.969 126.941 283.934C126.57 283.633 125.245 283.863 124.274 284.128H124.291Z" fill="#263238"/>
<path d="M123.85 284.278C123.803 284.277 123.759 284.258 123.726 284.225C123.713 284.201 123.706 284.173 123.706 284.146C123.706 284.118 123.713 284.091 123.726 284.066C123.726 283.987 124.3 282.07 125.201 281.638C125.316 281.585 125.441 281.558 125.568 281.558C125.694 281.558 125.819 281.585 125.934 281.638C126.058 281.677 126.165 281.756 126.239 281.864C126.313 281.971 126.348 282.1 126.34 282.229C126.278 283.024 124.662 284.119 123.921 284.305L123.85 284.278ZM125.563 281.867C125.477 281.87 125.393 281.891 125.316 281.929C124.768 282.194 124.318 283.227 124.097 283.854C124.874 283.527 125.943 282.662 125.978 282.176C125.978 282.097 125.978 282 125.775 281.911C125.709 281.876 125.637 281.852 125.563 281.841V281.867Z" fill="#263238"/>
<path d="M138.88 288.914C137.882 288.914 136.495 287.634 135.736 286.848C135.717 286.821 135.706 286.789 135.706 286.755C135.706 286.722 135.717 286.69 135.736 286.663C135.753 286.634 135.778 286.611 135.808 286.595C135.837 286.58 135.87 286.572 135.904 286.574C136.257 286.574 139.321 287.033 139.754 287.899C139.8 287.976 139.824 288.065 139.824 288.155C139.824 288.245 139.8 288.333 139.754 288.411C139.689 288.546 139.591 288.662 139.469 288.748C139.347 288.835 139.205 288.889 139.056 288.906L138.88 288.914ZM136.319 286.972C137.431 288.049 138.412 288.649 138.968 288.579C139.065 288.566 139.158 288.53 139.238 288.473C139.318 288.416 139.383 288.34 139.427 288.252C139.447 288.222 139.458 288.187 139.458 288.151C139.458 288.114 139.447 288.079 139.427 288.049C139.198 287.572 137.564 287.166 136.319 286.972Z" fill="#263238"/>
<path d="M136.416 286.927C136.218 286.933 136.02 286.918 135.824 286.883C135.797 286.879 135.771 286.868 135.75 286.851C135.728 286.834 135.711 286.812 135.701 286.786C135.688 286.76 135.681 286.731 135.681 286.702C135.681 286.673 135.688 286.644 135.701 286.618C135.754 286.557 136.946 285.117 138.076 285.02C138.396 284.995 138.713 285.097 138.959 285.303C139.304 285.603 139.286 285.868 139.198 286.036C138.977 286.636 137.449 286.927 136.416 286.927ZM136.186 286.601C137.175 286.654 138.756 286.327 138.959 285.894C138.959 285.894 139.03 285.753 138.8 285.559C138.709 285.479 138.602 285.419 138.487 285.383C138.371 285.347 138.25 285.334 138.129 285.347C137.368 285.559 136.69 286 136.186 286.61V286.601Z" fill="#263238"/>
<path d="M124.088 283.325L116.6 281.205C116.471 281.166 116.332 281.176 116.21 281.233C116.087 281.29 115.991 281.39 115.938 281.514L113.412 287.192C113.353 287.338 113.325 287.494 113.33 287.651C113.336 287.808 113.374 287.962 113.444 288.103C113.513 288.244 113.611 288.369 113.732 288.469C113.853 288.569 113.994 288.643 114.145 288.685C116.794 289.374 118.066 289.568 121.36 290.513C123.391 291.078 126.287 292.129 129.087 292.923C131.886 293.718 132.822 290.99 131.736 290.407C126.826 287.81 126.437 285.991 125.095 284.049C124.855 283.697 124.498 283.441 124.088 283.325Z" fill="#D7E9BB"/>
<path d="M135.939 285.815L129.546 281.399C129.437 281.32 129.304 281.284 129.17 281.297C129.037 281.31 128.913 281.372 128.822 281.47L124.583 286.027C124.48 286.144 124.403 286.283 124.357 286.433C124.311 286.583 124.298 286.74 124.318 286.896C124.338 287.051 124.391 287.2 124.473 287.334C124.555 287.467 124.665 287.581 124.795 287.669C127.047 289.179 128.212 289.789 131.029 291.74C132.795 292.941 136.213 295.608 138.597 297.268C140.981 298.928 142.756 296.65 141.909 295.749C138.111 291.696 137.281 289.153 136.654 286.848C136.546 286.43 136.292 286.064 135.939 285.815Z" fill="#D7E9BB"/>
<path d="M130.756 277.602L119.232 271.871L120.424 268.745L132.734 274.785L130.756 277.602Z" fill="#D7E9BB"/>
<path d="M115.77 169.586L114.799 172.129C114.701 172.323 114.931 172.526 115.258 172.526H144.47C144.726 172.526 144.938 172.402 144.955 172.244L145.203 169.718C145.203 169.55 144.999 169.4 144.726 169.4H116.229C116.143 169.392 116.057 169.405 115.977 169.437C115.897 169.469 115.826 169.52 115.77 169.586Z" fill="#D7E9BB"/>
<path opacity="0.4" d="M115.77 169.586L114.799 172.129C114.701 172.323 114.931 172.526 115.258 172.526H144.47C144.726 172.526 144.938 172.402 144.955 172.244L145.203 169.718C145.203 169.55 144.999 169.4 144.726 169.4H116.229C116.143 169.392 116.057 169.405 115.977 169.437C115.897 169.469 115.826 169.52 115.77 169.586Z" fill="white"/>
<path d="M120.371 172.773H119.602C119.452 172.773 119.337 172.694 119.346 172.597L119.708 169.321C119.708 169.232 119.85 169.153 120 169.153H120.768C120.918 169.153 121.033 169.232 121.024 169.321L120.662 172.597C120.653 172.694 120.521 172.773 120.371 172.773Z" fill="#D7E9BB"/>
<path d="M138.385 172.773H137.626C137.476 172.773 137.361 172.694 137.37 172.597L137.723 169.321C137.723 169.232 137.873 169.153 138.023 169.153H138.783C138.933 169.153 139.056 169.232 139.039 169.321L138.686 172.597C138.641 172.694 138.544 172.773 138.385 172.773Z" fill="#D7E9BB"/>
<g style="mix-blend-mode:multiply">
<path d="M119.7 322.321C132.765 322.321 143.357 321.554 143.357 320.607C143.357 319.661 132.765 318.894 119.7 318.894C106.634 318.894 96.0422 319.661 96.0422 320.607C96.0422 321.554 106.634 322.321 119.7 322.321Z" fill="#F5F5F5"/>
</g>
<path d="M134.111 318.188C129.926 316.969 125.281 315.406 122.472 313.773C122.393 313.72 122.305 313.693 122.225 313.649V294.698H130.694C131.337 294.66 131.941 294.378 132.382 293.91C132.824 293.441 133.07 292.821 133.07 292.177C133.07 291.533 132.824 290.914 132.382 290.445C131.941 289.976 131.337 289.694 130.694 289.656H122.269V203.275H117.183V289.656H108.767C108.424 289.636 108.079 289.686 107.756 289.803C107.432 289.921 107.136 290.103 106.886 290.339C106.635 290.576 106.436 290.86 106.299 291.176C106.163 291.492 106.092 291.833 106.092 292.177C106.092 292.522 106.163 292.862 106.299 293.178C106.436 293.494 106.635 293.779 106.886 294.015C107.136 294.251 107.432 294.434 107.756 294.551C108.079 294.669 108.424 294.719 108.767 294.698H117.183V313.623C117.103 313.623 117.024 313.693 116.944 313.746C114.092 315.406 109.483 316.969 105.297 318.162C105.014 318.247 104.771 318.431 104.612 318.68C104.454 318.929 104.389 319.227 104.431 319.519C104.472 319.812 104.617 320.079 104.839 320.274C105.061 320.469 105.346 320.578 105.641 320.581H133.767C134.049 320.562 134.316 320.446 134.524 320.254C134.731 320.062 134.866 319.804 134.906 319.524C134.947 319.244 134.89 318.958 134.745 318.715C134.6 318.472 134.377 318.286 134.111 318.188Z" fill="#E0E0E0"/>
<path d="M135.409 194.479H104.008C101.481 194.479 99.4332 196.527 99.4332 199.054V208.388C99.4332 210.914 101.481 212.962 104.008 212.962H135.409C137.936 212.962 139.984 210.914 139.984 208.388V199.054C139.984 196.527 137.936 194.479 135.409 194.479Z" fill="#D7E9BB"/>
<path d="M103.716 212.971V214.578C103.716 215.902 105.155 216.98 106.922 216.98H132.531C134.297 216.98 135.736 215.902 135.736 214.578V212.971H103.716Z" fill="#D7E9BB"/>
<path opacity="0.3" d="M103.716 212.971V214.578C103.716 215.902 105.155 216.98 106.922 216.98H132.531C134.297 216.98 135.736 215.902 135.736 214.578V212.971H103.716Z" fill="white"/>
</svg>
