<svg width="281" height="469" viewBox="0 0 281 469" fill="none" xmlns="http://www.w3.org/2000/svg">
<path fill-rule="evenodd" clip-rule="evenodd" d="M224.319 224.526L222.551 226.66L220.837 228.752L219.179 230.806L217.579 232.824L216.041 234.809L214.565 236.764L213.153 238.692L211.805 240.596L210.523 242.479L209.307 244.344L208.156 246.193L207.07 248.031L206.049 249.858L205.091 251.679L204.196 253.495L203.361 255.31L202.585 257.125L201.866 258.944L201.202 260.767L200.59 262.598L200.028 264.438L199.513 266.289L199.042 268.153L198.612 270.031L198.22 271.923L197.864 273.833L197.54 275.76L197.244 277.705L196.974 279.669L196.727 281.653L196.499 283.658L196.288 285.683L196.09 287.729L195.904 289.796L195.725 291.885L195.552 293.995L195.383 296.127L195.215 298.28L195.046 300.456L194.874 302.653L194.698 304.872L194.515 307.113L194.324 309.374L194.121 311.657L193.905 313.96L193.674 316.283L193.425 318.624L193.155 320.982L192.864 323.357L192.547 325.747L192.203 328.151L191.83 330.567L191.424 332.993L190.984 335.428L190.508 337.869L189.992 340.314L189.435 342.76L188.835 345.207L188.19 347.65L187.496 350.087L186.754 352.515L185.959 354.932L185.112 357.334L184.211 359.718L183.253 362.082L182.238 364.421L181.165 366.733L180.032 369.015L178.838 371.262L177.584 373.472L176.268 375.642L174.891 377.768L173.452 379.847L171.951 381.875L170.389 383.851L168.766 385.77L167.082 387.63L165.34 389.428L163.539 391.162L161.681 392.83L159.768 394.428L157.801 395.955L155.783 397.41L153.714 398.79L151.598 400.095L149.436 401.323L147.231 402.473L144.986 403.546L142.703 404.54L140.385 405.456L138.034 406.294L135.655 407.055L133.249 407.74L130.821 408.35L128.372 408.888L125.906 409.355L123.427 409.756L120.937 410.091L118.44 410.366L115.939 410.585L113.436 410.751L110.934 410.869L108.436 410.944L105.944 410.981L103.46 410.986L100.986 410.963L98.5247 410.919L96.0764 410.86L93.6428 410.79L91.2245 410.717L88.8223 410.646L86.4365 410.582L84.067 410.532L81.7137 410.5L79.3759 410.494L77.0528 410.517L74.7433 410.576L72.446 410.674L70.1592 410.816L67.8811 411.006L65.6095 411.248L63.3421 411.545L61.0765 411.9L58.8099 412.315L56.5396 412.791L54.2626 413.33L51.9761 413.933L49.6771 414.601L47.3625 415.334L45.0293 416.131L42.6744 416.993L40.2948 417.918L37.8874 418.906L35.4494 419.955L32.9779 421.063L30.47 422.23L27.923 423.451L25.3345 424.724L22.7019 426.048L20.0229 427.417L17.2954 428.829L14.5174 430.281L11.6871 431.767L8.80296 433.284L5.86357 434.828L2.86772 436.394L-0.185532 437.977L-3.29691 439.571L-6.4669 441.174L-9.69579 442.777L-12.9836 444.378L-16.33 445.97L-19.7347 447.548L-23.1969 449.107L-26.7157 450.641L-30.2899 452.144L-33.918 453.612L-37.5984 455.039L-41.3293 456.42L-45.1085 457.75L-48.9338 459.023L-52.8027 460.235L-56.7125 461.381L-60.6604 462.456L-64.6434 463.457L-68.6582 464.378L-72.7017 465.216L-76.7703 465.966L-80.8606 466.626L-84.9689 467.193L-89.0916 467.662L-93.2248 468.031L-97.3648 468.297L-101.508 468.459L-105.65 468.515L-109.787 468.461L-113.915 468.298L-118.031 468.023L-122.13 467.636L-126.209 467.136L-130.264 466.521L-134.29 465.791L-138.284 464.946L-142.24 463.984L-146.155 462.906L-150.023 461.71L-153.842 460.397L-157.606 458.967L-161.312 457.421L-164.954 455.757L-168.528 453.979L-172.031 452.085L-175.459 450.078L-178.807 447.958L-182.071 445.728L-185.248 443.389L-188.333 440.942L-191.325 438.391L-194.218 435.738L-197.011 432.984L-199.699 430.133L-202.281 427.187L-204.752 424.15L-207.111 421.024L-209.354 417.813L-211.48 414.52L-213.486 411.147L-215.369 407.7L-217.128 404.18L-218.76 400.591L-220.263 396.938L-221.636 393.223L-222.876 389.451L-223.983 385.625L-224.956 381.749L-225.793 377.829L-226.496 373.868L-227.063 369.87L-227.496 365.841L-227.796 361.785L-227.963 357.707L-228 353.611L-227.908 349.503L-227.69 345.386L-227.349 341.266L-226.887 337.147L-226.307 333.034L-225.614 328.931L-224.811 324.843L-223.903 320.773L-222.894 316.725L-221.789 312.704L-220.592 308.713L-219.309 304.756L-217.945 300.835L-216.506 296.954L-214.997 293.116L-213.424 289.323L-211.793 285.577L-210.11 281.881L-208.381 278.236L-206.611 274.643L-204.807 271.105L-202.975 267.621L-201.121 264.193L-199.25 260.82L-197.368 257.504L-195.481 254.244L-193.594 251.039L-191.712 247.89L-189.841 244.794L-187.986 241.752L-186.151 238.761L-184.34 235.821L-182.558 232.929L-180.809 230.084L-179.096 227.284L-177.422 224.526L-175.791 221.809L-174.205 219.129L-172.667 216.485L-171.178 213.874L-169.74 211.292L-168.355 208.738L-167.023 206.208L-165.744 203.701L-164.519 201.213L-163.345 198.742L-162.222 196.285L-161.147 193.84L-160.118 191.406L-159.131 188.98L-158.183 186.56L-157.271 184.146L-156.389 181.736L-155.535 179.329L-154.703 176.925L-153.888 174.523L-153.086 172.122L-152.291 169.724L-151.5 167.329L-150.706 164.936L-149.906 162.548L-149.095 160.164L-148.267 157.787L-147.42 155.417L-146.548 153.056L-145.648 150.706L-144.717 148.368L-143.751 146.045L-142.749 143.738L-141.706 141.449L-140.623 139.179L-139.497 136.93L-138.327 134.705L-137.114 132.503L-135.856 130.327L-134.555 128.178L-133.211 126.055L-131.826 123.961L-130.399 121.896L-128.931 119.86L-127.426 117.855L-125.882 115.88L-124.303 113.935L-122.69 112.021L-121.044 110.138L-119.367 108.285L-117.662 106.462L-115.929 104.669L-114.172 102.904L-112.391 101.169L-110.589 99.4606L-108.768 97.7791L-106.93 96.1233L-105.076 94.4919L-103.209 92.8839L-101.329 91.298L-99.4396 89.7327L-97.5413 88.1868L-95.6358 86.6587L-93.7244 85.1471L-91.8085 83.6504L-89.8891 82.1671L-87.9673 80.6958L-86.0441 79.2349L-84.1201 77.7831L-82.196 76.3389L-80.2723 74.9009L-78.3494 73.4679L-76.4275 72.0385L-74.5069 70.6116L-72.5873 69.1861L-70.6689 67.7611L-68.7513 66.3355L-66.8343 64.9086L-64.9173 63.4796L-62.9999 62.048L-61.0814 60.6132L-59.1612 59.175L-57.2386 57.7329L-55.3126 56.2869L-53.3825 54.8368L-51.4473 53.3829L-49.506 51.9251L-47.5578 50.4638L-45.6017 48.9993L-43.6365 47.5322L-41.6614 46.0628L-39.6752 44.592L-37.6772 43.1203L-35.6661 41.6488L-33.641 40.1783L-31.6009 38.71L-29.5448 37.2452L-27.4717 35.7853L-25.3808 34.3318L-23.2711 32.8861L-21.1418 31.45L-18.9921 30.0251L-16.8214 28.6132L-14.6292 27.2161L-12.4147 25.8355L-10.1776 24.4734L-7.91747 23.1314L-5.63408 21.8116L-3.32722 20.5156L-0.99678 19.2452L1.3573 18.0022L3.73494 16.7884L6.136 15.6053L8.5603 14.4546L11.0075 13.338L13.4773 12.2569L15.9693 11.2128L18.4828 10.2072L21.0175 9.24149L23.5727 8.31713L26.1477 7.43548L28.7418 6.59792L31.3542 5.80583L33.9841 5.06063L36.6306 4.36374L39.2927 3.71647L41.9695 3.11992L44.6598 2.57497L47.3625 2.08228L50.0767 1.64228L52.801 1.25518L55.5345 0.920969L58.276 0.639439L61.0244 0.410153L63.7787 0.232482L66.5379 0.1056L69.3011 0.0284992L72.0674 0L74.8361 0.0187626L77.6064 0.083301L80.3777 0.191997L83.1496 0.343117L85.9215 0.534824L88.6933 0.7652L91.4648 1.03226L94.2357 1.33396L97.0063 1.66824L99.7766 2.03302L102.547 2.42621L105.317 2.84576L108.089 3.28964L110.861 3.75591L113.636 4.24266L116.413 4.74808L119.194 5.27049L121.979 5.80829L124.769 6.36004L127.565 6.92441L130.368 7.50026L133.179 8.08659L135.999 8.68258L138.829 9.28759L141.67 9.90117L144.523 10.523L147.388 11.1531L150.266 11.7916L153.159 12.4387L156.067 13.095L158.99 13.7612L161.928 14.4382L164.883 15.127L167.854 15.8289L170.841 16.5454L173.844 17.278L176.863 18.0284L179.898 18.7985L182.947 19.5903L186.01 20.406L189.086 21.2476L192.173 22.118L195.27 23.0199L198.375 23.9565L201.485 24.9309L204.597 25.9467L207.709 27.0072L210.817 28.116L213.916 29.2767L217.004 30.4927L220.075 31.7675L223.126 33.1044L226.152 34.5065L229.147 35.977L232.107 37.5186L235.027 39.1338L237.9 40.825L240.723 42.5942L243.489 44.4433L246.193 46.3737L248.829 48.3865L251.393 50.4825L253.879 52.6623L256.281 54.9259L258.595 57.2733L260.815 59.7038L262.937 62.2166L264.956 64.8105L266.868 67.484L268.668 70.2352L270.352 73.0622L271.917 75.9624L273.36 78.9331L274.676 81.9715L275.864 85.0742L276.92 88.2378L277.843 91.4584L278.631 94.732L279.284 98.0545L279.799 101.421L280.177 104.828L280.418 108.27L280.523 111.742L280.492 115.24L280.327 118.758L280.03 122.291L279.602 125.835L279.047 129.385L278.368 132.935L277.568 136.48L276.651 140.017L275.621 143.539L274.483 147.044L273.241 150.525L271.901 153.98L270.468 157.404L268.948 160.793L267.346 164.144L265.669 167.454L263.923 170.719L262.114 173.936L260.249 177.104L258.334 180.22L256.376 183.282L254.381 186.288L252.356 189.238L250.308 192.13L248.243 194.963L246.168 197.737L244.089 200.452L242.012 203.109L239.943 205.707L237.887 208.247L235.851 210.731L233.84 213.159L231.858 215.533L229.911 217.855L228.002 220.126L226.137 222.349L224.319 224.526Z" fill="#FDD499"/>
</svg>
