<svg width="402" height="248" viewBox="0 0 402 248" fill="none" xmlns="http://www.w3.org/2000/svg">
<path fill-rule="evenodd" clip-rule="evenodd" d="M419.345 242.342L419.981 244.33L420.638 246.336L421.314 248.36L422.01 250.404L422.722 252.47L423.451 254.558L424.193 256.67L424.948 258.807L425.713 260.969L426.486 263.158L427.265 265.375L428.048 267.62L428.832 269.894L429.616 272.198L430.395 274.531L431.169 276.893L431.933 279.286L432.687 281.709L433.426 284.163L434.15 286.645L434.854 289.158L435.537 291.7L436.195 294.27L436.827 296.868L437.43 299.494L438.002 302.146L438.539 304.823L439.04 307.525L439.502 310.25L439.923 312.998L440.3 315.766L440.632 318.553L440.915 321.357L441.148 324.178L441.329 327.012L441.454 329.858L441.522 332.714L441.531 335.578L441.477 338.446L441.36 341.318L441.177 344.189L440.926 347.057L440.606 349.921L440.215 352.776L439.752 355.621L439.216 358.452L438.605 361.266L437.92 364.062L437.159 366.836L436.321 369.585L435.408 372.306L434.417 374.998L433.35 377.656L432.207 380.279L430.988 382.864L429.693 385.409L428.324 387.91L426.88 390.366L425.364 392.774L423.776 395.132L422.117 397.438L420.388 399.69L418.592 401.886L416.73 404.024L414.803 406.102L412.814 408.119L410.764 410.073L408.656 411.964L406.491 413.79L404.272 415.549L402.001 417.242L399.681 418.867L397.314 420.424L394.902 421.913L392.447 423.333L389.954 424.684L387.423 425.966L384.858 427.179L382.262 428.325L379.636 429.403L376.984 430.414L374.308 431.359L371.611 432.24L368.896 433.057L366.164 433.812L363.419 434.506L360.662 435.142L357.897 435.72L355.125 436.244L352.349 436.715L349.572 437.138L346.796 437.515L344.022 437.85L341.255 438.148L338.495 438.412L335.744 438.648L333.005 438.86L330.278 439.053L327.566 439.234L324.87 439.406L322.189 439.576L319.526 439.749L316.879 439.931L314.25 440.127L311.638 440.342L309.043 440.582L306.463 440.852L303.898 441.158L301.346 441.503L298.806 441.893L296.276 442.331L293.753 442.822L291.235 443.37L288.721 443.978L286.206 444.649L283.688 445.386L281.164 446.19L278.63 447.063L276.084 448.007L273.522 449.023L270.94 450.111L268.335 451.27L265.703 452.501L263.04 453.801L260.344 455.17L257.611 456.605L254.837 458.104L252.019 459.664L249.155 461.28L246.24 462.95L243.274 464.668L240.253 466.431L237.175 468.233L234.038 470.067L230.84 471.93L227.58 473.814L224.258 475.713L220.871 477.62L217.421 479.529L213.906 481.433L210.327 483.324L206.685 485.195L202.981 487.039L199.216 488.848L195.391 490.615L191.509 492.333L187.572 493.995L183.583 495.593L179.544 497.12L175.459 498.569L171.332 499.934L167.167 501.209L162.967 502.387L158.737 503.462L154.481 504.428L150.204 505.281L145.912 506.016L141.609 506.628L137.3 507.113L132.99 507.468L128.686 507.688L124.391 507.772L120.112 507.717L115.854 507.521L111.622 507.182L107.422 506.7L103.258 506.074L99.1348 505.304L95.0583 504.39L91.0327 503.333L87.0624 502.134L83.1519 500.795L79.3053 499.317L75.5266 497.702L71.8199 495.952L68.1887 494.07L64.6366 492.058L61.167 489.92L57.7828 487.659L54.4871 485.278L51.2823 482.78L48.1709 480.17L45.1549 477.451L42.2363 474.628L39.4166 471.705L36.6971 468.685L34.079 465.575L31.563 462.378L29.1498 459.099L26.8395 455.742L24.6322 452.313L22.5279 448.815L20.5261 445.255L18.6262 441.636L16.8276 437.962L15.1292 434.24L13.5301 430.472L12.029 426.663L10.6247 422.818L9.31592 418.94L8.1012 415.033L6.9792 411.101L5.94858 407.147L5.008 403.175L4.15598 399.188L3.39083 395.189L2.71063 391.181L2.11329 387.169L1.59648 383.153L1.15771 379.138L0.79426 375.127L0.503253 371.123L0.281626 367.127L0.126154 363.144L0.0334543 359.174L0 355.222L0.0221339 351.288L0.0960805 347.375L0.21796 343.485L0.383806 339.619L0.589576 335.78L0.831174 331.968L1.10447 328.185L1.40529 324.431L1.7295 320.707L2.07294 317.014L2.4315 313.353L2.80113 309.723L3.17786 306.124L3.55778 302.556L3.93713 299.019L4.31226 295.512L4.67966 292.034L5.03601 288.585L5.37817 285.162L5.70319 281.765L6.00836 278.392L6.29117 275.042L6.54939 271.712L6.78105 268.401L6.98444 265.107L7.15815 261.828L7.30106 258.562L7.41235 255.306L7.49154 252.059L7.53842 248.817L7.55315 245.579L7.5362 242.342L7.48835 239.105L7.41072 235.864L7.30477 232.619L7.17223 229.366L7.0152 226.104L6.83592 222.831L6.63675 219.546L6.42011 216.246L6.18851 212.931L5.94452 209.599L5.69084 206.248L5.43024 202.878L5.1656 199.487L4.89988 196.075L4.63617 192.642L4.37763 189.186L4.12753 185.707L3.88923 182.205L3.66618 178.68L3.46189 175.133L3.27996 171.563L3.12405 167.971L2.99785 164.358L2.90509 160.724L2.84954 157.072L2.83495 153.401L2.86506 149.714L2.94358 146.013L3.07419 142.299L3.26046 138.573L3.5059 134.839L3.81389 131.099L4.18767 127.355L4.63033 123.61L5.14477 119.867L5.73369 116.127L6.39956 112.395L7.1446 108.673L7.97082 104.964L8.8801 101.272L9.87416 97.5985L10.9546 93.9479L12.1229 90.3232L13.3804 86.7279L14.7281 83.1653L16.1671 79.639L17.698 76.1523L19.3216 72.7089L21.0382 69.3122L22.848 65.9657L24.7509 62.673L26.7469 59.4374L28.8355 56.2624L31.016 53.1512L33.2877 50.1072L35.6496 47.1335L38.1003 44.2333L40.6384 41.4093L43.2624 38.6646L45.9704 36.0018L48.7604 33.4234L51.6302 30.932L54.5774 28.5296L57.5994 26.2184L60.6937 24.0003L63.8573 21.877L67.0873 19.8499L70.3806 17.9204L73.734 16.0896L77.1441 14.3584L80.6075 12.7274L84.1208 11.1972L87.6804 9.7679L91.2827 8.43965L94.9241 7.21227L98.6008 6.08537L102.309 5.05838L106.046 4.13051L109.807 3.30079L113.588 2.56804L117.387 1.93092L121.199 1.38789L125.021 0.937265L128.85 0.577176L132.682 0.305618L136.514 0.120439L140.343 0.0193575L144.166 0L147.98 0.0600847L151.782 0.197519L155.57 0.410393L159.342 0.696977L163.096 1.0557L166.83 1.48515L170.543 1.98406L174.232 2.55128L177.896 3.18576L181.534 3.88656L185.144 4.65282L188.726 5.48374L192.277 6.37853L195.797 7.33647L199.284 8.35682L202.738 9.43881L206.156 10.5817L209.538 11.7846L212.884 13.0466L216.19 14.3667L219.457 15.7439L222.684 17.1768L225.868 18.6642L229.01 20.2045L232.108 21.796L235.161 23.4368L238.168 25.1248L241.128 26.8579L244.04 28.6333L246.904 30.4485L249.719 32.3004L252.484 34.1859L255.199 36.1013L257.863 38.0432L260.477 40.008L263.04 41.9922L265.553 43.9921L268.016 46.0044L270.429 48.0255L272.792 50.0522L275.107 52.0812L277.375 54.1092L279.596 56.1334L281.771 58.1506L283.902 60.1581L285.989 62.1533L288.035 64.1335L290.04 66.0965L292.007 68.04L293.936 69.962L295.83 71.8606L297.69 73.7341L299.518 75.581L301.316 77.4L303.085 79.1899L304.828 80.9497L306.546 82.6787L308.24 84.3762L309.914 86.0417L311.568 87.675L313.204 89.2759L314.824 90.8445L316.43 92.3809L318.023 93.8855L319.605 95.3587L321.177 96.8011L322.74 98.2134L324.297 99.5964L325.849 100.951L327.396 102.278L328.94 103.579L330.482 104.854L332.022 106.105L333.563 107.334L335.105 108.541L336.648 109.727L338.193 110.895L339.742 112.045L341.294 113.179L342.851 114.297L344.413 115.403L345.98 116.495L347.553 117.577L349.133 118.65L350.718 119.715L352.309 120.775L353.906 121.831L355.507 122.885L357.112 123.941L358.721 125L360.331 126.064L361.941 127.136L363.551 128.219L365.158 129.314L366.76 130.424L368.356 131.55L369.945 132.695L371.523 133.86L373.089 135.047L374.641 136.258L376.177 137.493L377.695 138.755L379.193 140.044L380.669 141.361L382.121 142.707L383.547 144.082L384.945 145.487L386.314 146.921L387.651 148.386L388.956 149.881L390.226 151.405L391.461 152.959L392.658 154.542L393.817 156.153L394.936 157.792L396.015 159.459L397.052 161.151L398.046 162.869L398.998 164.611L399.907 166.375L400.773 168.161L401.596 169.967L402.377 171.791L403.117 173.631L403.816 175.487L404.476 177.356L405.099 179.237L405.685 181.129L406.237 183.028L406.756 184.935L407.246 186.847L407.707 188.763L408.143 190.683L408.556 192.603L408.948 194.525L409.323 196.446L409.683 198.365L410.03 200.283L410.368 202.198L410.699 204.111L411.027 206.02L411.353 207.926L411.68 209.828L412.011 211.728L412.348 213.625L412.694 215.52L413.051 217.413L413.421 219.305L413.805 221.197L414.205 223.09L414.624 224.985L415.061 226.883L415.52 228.786L415.999 230.694L416.5 232.609L417.024 234.533L417.57 236.467L418.14 238.412L418.731 240.37L419.345 242.342Z" fill="#FEFCB0"/>
</svg>
