<svg width="314" height="175" viewBox="0 0 314 175" fill="none" xmlns="http://www.w3.org/2000/svg">
<path fill-rule="evenodd" clip-rule="evenodd" d="M92.4167 394.659L90.0611 392.159L87.68 389.646L85.2741 387.116L82.8447 384.567L80.3935 381.997L77.9225 379.402L75.4343 376.779L72.932 374.126L70.4192 371.44L67.8997 368.718L65.3779 365.957L62.8577 363.154L60.3427 360.309L57.8364 357.419L55.3418 354.482L52.8622 351.499L50.4005 348.466L47.9596 345.384L45.5426 342.252L43.1524 339.069L40.792 335.835L38.4646 332.549L36.1732 329.211L33.9211 325.822L31.7117 322.38L29.5483 318.886L27.4342 315.341L25.3728 311.745L23.3674 308.098L21.4212 304.402L19.5376 300.657L17.7201 296.864L15.9723 293.024L14.2982 289.14L12.7019 285.211L11.1872 281.241L9.75877 277.23L8.42068 273.181L7.17737 269.097L6.03311 264.979L4.99234 260.831L4.05925 256.655L3.23801 252.455L2.53266 248.233L1.94699 243.995L1.48463 239.742L1.14894 235.48L0.94304 231.212L0.869636 226.942L0.931172 222.675L1.12966 218.414L1.46672 214.166L1.94362 209.933L2.56117 205.721L3.31971 201.534L4.21923 197.376L5.2592 193.251L6.43869 189.165L7.75632 185.121L9.21038 181.123L10.7986 177.175L12.5185 173.28L14.367 169.443L16.3407 165.665L18.4362 161.951L20.6493 158.303L22.976 154.723L25.4116 151.214L27.9515 147.777L30.5908 144.415L33.3246 141.127L36.1478 137.916L39.0552 134.783L42.0417 131.727L45.1022 128.75L48.2316 125.851L51.4249 123.03L54.6773 120.287L57.9839 117.622L61.3403 115.034L64.742 112.523L68.1848 110.087L71.6648 107.726L75.1782 105.439L78.7215 103.225L82.2915 101.084L85.8847 99.0129L89.4978 97.0119L93.1268 95.0784L96.7677 93.2099L100.416 91.4037L104.068 89.6562L107.719 87.9638L111.364 86.3224L115 84.7278L118.623 83.1753L122.229 81.6599L125.814 80.1766L129.375 78.72L132.908 77.2846L136.412 75.8645L139.883 74.4539L143.318 73.0464L146.716 71.6358L150.075 70.2153L153.393 68.778L156.668 67.3174L159.901 65.8272L163.092 64.302L166.242 62.7369L169.352 61.1278L172.426 59.4714L175.465 57.7651L178.474 56.0072L181.456 54.1969L184.415 52.3342L187.356 50.4201L190.285 48.4564L193.205 46.4458L196.123 44.3919L199.043 42.2991L201.97 40.1726L204.911 38.0183L207.869 35.8431L210.849 33.6542L213.857 31.4597L216.896 29.2681L219.971 27.0885L223.083 24.9302L226.238 22.8032L229.437 20.7173L232.681 18.6828L235.974 16.7098L239.314 14.8088L242.703 12.9897L246.141 11.2627L249.626 9.63749L253.158 8.12347L256.733 6.72968L260.351 5.46472L264.006 4.33664L267.698 3.35287L271.42 2.52023L275.169 1.84483L278.941 1.33209L282.73 0.986598L286.53 0.812164L290.338 0.811772L294.146 0.98747L297.948 1.34049L301.74 1.87118L305.515 2.57903L309.268 3.46263L312.991 4.51973L316.681 5.74733L320.331 7.14154L323.937 8.69779L327.492 10.4107L330.994 12.2744L334.436 14.2822L337.817 16.4269L341.131 18.7008L344.377 21.0957L347.551 23.602L350.652 26.2097L353.679 28.9076L356.631 31.6843L359.509 34.5276L362.314 37.4252L365.046 40.3647L367.709 43.3334L370.306 46.3191L372.839 49.3096L375.314 52.293L377.735 55.2579L380.107 58.1934L382.436 61.0892L384.727 63.9357L386.988 66.7239L389.224 69.4458L391.444 72.0938L393.652 74.6615L395.858 77.1433L398.067 79.5345L400.287 81.8315L402.525 84.0315L404.787 86.1331L407.079 88.1354L409.408 90.0389L411.778 91.8448L414.196 93.5553L416.666 95.1734L419.191 96.703L421.776 98.1487L424.422 99.5159L427.133 100.811L429.909 102.039L432.752 103.209L435.661 104.327L438.637 105.402L441.678 106.442L444.781 107.455L447.946 108.449L451.167 109.434L454.441 110.419L457.765 111.411L461.132 112.419L464.538 113.451L467.977 114.516L471.442 115.621L474.926 116.774L478.423 117.981L481.926 119.249L485.426 120.584L488.917 121.991L492.391 123.475L495.84 125.041L499.257 126.692L502.634 128.431L505.964 130.261L509.239 132.185L512.453 134.202L515.599 136.315L518.671 138.523L521.662 140.826L524.568 143.223L527.383 145.713L530.103 148.295L532.723 150.965L535.24 153.721L537.651 156.561L539.952 159.481L542.143 162.477L544.221 165.545L546.186 168.683L548.036 171.885L549.771 175.147L551.393 178.465L552.9 181.834L554.294 185.251L555.574 188.712L556.74 192.214L557.79 195.751L558.722 199.323L559.536 202.924L560.23 206.552L560.802 210.203L561.25 213.874L561.572 217.562L561.765 221.263L561.827 224.973L561.757 228.69L561.552 232.408L561.21 236.125L560.729 239.837L560.108 243.538L559.344 247.226L558.435 250.895L557.382 254.542L556.183 258.162L554.839 261.75L553.349 265.301L551.716 268.812L549.942 272.277L548.028 275.692L545.978 279.053L543.796 282.354L541.487 285.593L539.055 288.766L536.507 291.868L533.849 294.896L531.087 297.849L528.23 300.722L525.284 303.514L522.259 306.224L519.163 308.85L516.004 311.39L512.793 313.846L509.538 316.217L506.25 318.503L502.938 320.706L499.612 322.828L496.282 324.871L492.956 326.837L489.646 328.73L486.361 330.553L483.108 332.31L479.898 334.006L476.739 335.646L473.639 337.234L470.605 338.777L467.645 340.281L464.765 341.751L461.971 343.193L459.269 344.614L456.662 346.022L454.155 347.421L451.752 348.819L449.453 350.222L447.263 351.636L445.18 353.069L443.206 354.525L441.34 356.011L439.581 357.532L437.927 359.093L436.375 360.699L434.922 362.354L433.564 364.062L432.296 365.827L431.113 367.65L430.01 369.535L428.98 371.482L428.017 373.493L427.113 375.569L426.262 377.708L425.457 379.911L424.692 382.177L423.96 384.506L423.254 386.897L422.57 389.35L421.902 391.864L421.245 394.437L420.592 397.069L419.939 399.757L419.282 402.501L418.614 405.298L417.932 408.147L417.232 411.046L416.508 413.993L415.757 416.985L414.975 420.021L414.159 423.099L413.305 426.217L412.411 429.373L411.473 432.565L410.49 435.791L409.457 439.049L408.372 442.336L407.233 445.649L406.036 448.985L404.779 452.34L403.459 455.712L402.074 459.095L400.62 462.486L399.097 465.88L397.501 469.272L395.831 472.658L394.084 476.033L392.26 479.391L390.356 482.727L388.372 486.035L386.307 489.31L384.159 492.546L381.928 495.737L379.615 498.878L377.219 501.963L374.741 504.987L372.18 507.942L369.539 510.825L366.819 513.629L364.02 516.349L361.144 518.98L358.194 521.517L355.172 523.954L352.079 526.288L348.92 528.514L345.696 530.628L342.411 532.625L339.068 534.502L335.671 536.257L332.223 537.885L328.728 539.384L325.191 540.753L321.614 541.988L318.003 543.089L314.361 544.054L310.693 544.883L307.003 545.574L303.295 546.128L299.574 546.545L295.843 546.825L292.108 546.97L288.371 546.98L284.638 546.858L280.911 546.604L277.196 546.223L273.495 545.715L269.812 545.084L266.15 544.333L262.513 543.465L258.903 542.484L255.323 541.394L251.777 540.199L248.265 538.904L244.79 537.512L241.353 536.03L237.957 534.462L234.602 532.813L231.289 531.087L228.02 529.29L224.794 527.426L221.613 525.501L218.475 523.518L215.382 521.483L212.332 519.399L209.326 517.271L206.363 515.102L203.443 512.897L200.564 510.657L197.727 508.386L194.931 506.087L192.175 503.762L189.457 501.414L186.778 499.045L184.137 496.656L181.533 494.249L178.964 491.826L176.43 489.389L173.93 486.939L171.464 484.477L169.029 482.004L166.626 479.522L164.252 477.032L161.908 474.534L159.591 472.03L157.302 469.52L155.037 467.006L152.797 464.489L150.58 461.968L148.384 459.445L146.207 456.922L144.049 454.398L141.907 451.874L139.78 449.351L137.666 446.831L135.563 444.312L133.468 441.797L131.38 439.286L129.296 436.778L127.215 434.275L125.134 431.777L123.05 429.284L120.961 426.796L118.865 424.313L116.76 421.834L114.643 419.36L112.512 416.89L110.365 414.423L108.201 411.959L106.016 409.495L103.81 407.032L101.581 404.567L99.328 402.099L97.05 399.627L94.7464 397.147L92.4167 394.659Z" fill="#DEEAEB"/>
</svg>
