<svg width="267" height="538" viewBox="0 0 267 538" fill="none" xmlns="http://www.w3.org/2000/svg">
<path fill-rule="evenodd" clip-rule="evenodd" d="M-232.471 341.248L-234.192 338.275L-235.934 335.283L-237.696 332.269L-239.477 329.232L-241.274 326.168L-243.085 323.076L-244.906 319.954L-246.734 316.798L-248.565 313.608L-250.394 310.38L-252.216 307.115L-254.027 303.81L-255.824 300.464L-257.601 297.077L-259.357 293.647L-261.087 290.174L-262.789 286.659L-264.459 283.1L-266.094 279.497L-267.692 275.851L-269.248 272.163L-270.761 268.431L-272.227 264.657L-273.643 260.842L-275.005 256.985L-276.311 253.089L-277.556 249.154L-278.739 245.181L-279.856 241.172L-280.904 237.128L-281.879 233.051L-282.78 228.943L-283.601 224.805L-284.341 220.64L-284.995 216.45L-285.56 212.238L-286.032 208.007L-286.407 203.759L-286.681 199.499L-286.852 195.228L-286.915 190.952L-286.866 186.673L-286.704 182.397L-286.423 178.126L-286.022 173.866L-285.498 169.621L-284.849 165.395L-284.071 161.193L-283.165 157.02L-282.127 152.88L-280.958 148.779L-279.657 144.72L-278.223 140.709L-276.657 136.751L-274.959 132.848L-273.131 129.007L-271.174 125.231L-269.09 121.523L-266.881 117.888L-264.55 114.33L-262.099 110.85L-259.533 107.453L-256.855 104.141L-254.068 100.917L-251.178 97.7814L-248.188 94.7372L-245.103 91.7855L-241.928 88.9276L-238.669 86.1639L-235.329 83.4952L-231.915 80.9215L-228.431 78.4427L-224.883 76.0585L-221.276 73.7682L-217.615 71.5711L-213.905 69.466L-210.15 67.4517L-206.356 65.527L-202.527 63.6903L-198.667 61.9401L-194.781 60.2746L-190.871 58.6922L-186.943 57.1912L-182.999 55.7698L-179.043 54.4265L-175.077 53.1595L-171.105 51.9671L-167.13 50.8469L-163.154 49.7961L-159.182 48.8114L-155.217 47.8889L-151.262 47.0244L-147.321 46.2133L-143.396 45.4507L-139.491 44.7314L-135.609 44.0501L-131.752 43.401L-127.923 42.7783L-124.123 42.1762L-120.354 41.5883L-116.619 41.0086L-112.917 40.4305L-109.251 39.8475L-105.62 39.2528L-102.025 38.6394L-98.4665 38.0004L-94.9435 37.3289L-91.4551 36.6189L-87.9997 35.8652L-84.5751 35.0633L-81.1787 34.2095L-77.8075 33.3012L-74.4581 32.3365L-71.1267 31.3145L-67.8095 30.2355L-64.5021 29.1002L-61.2004 27.9108L-57.9001 26.6701L-54.5968 25.3819L-51.2863 24.051L-47.9647 22.6827L-44.6278 21.2833L-41.2722 19.8599L-37.8945 18.4201L-34.4916 16.9722L-31.0611 15.5251L-27.6008 14.0879L-24.109 12.6705L-20.5844 11.2828L-17.0265 9.93486L-13.4351 8.63718L-9.81058 7.40001L-6.15396 6.2337L-2.46668 5.14843L1.24916 4.15415L4.99104 3.26053L8.75589 2.4769L12.5402 1.81208L16.3399 1.2744L20.1507 0.871688L23.9678 0.611067L27.7861 0.498992L31.6003 0.541184L35.4046 0.742606L39.1934 1.10748L42.9606 1.63907L46.7002 2.33993L50.4063 3.21167L54.0727 4.25498L57.6935 5.46974L61.263 6.85493L64.7755 8.40871L68.2256 10.1284L71.6082 12.0104L74.9186 14.0505L78.1523 16.2438L81.3054 18.5846L84.3741 21.0665L87.3555 23.6826L90.2468 26.4257L93.046 29.2877L95.7515 32.2605L98.3621 35.3351L100.878 38.502L103.299 41.7507L105.628 45.0702L107.865 48.4493L110.015 51.8762L112.081 55.3392L114.068 58.8265L115.98 62.3263L117.823 65.8274L119.605 69.3188L121.33 72.7898L123.008 76.2304L124.644 79.6312L126.247 82.9834L127.826 86.2791L129.388 89.5111L130.942 92.6729L132.495 95.7589L134.057 98.7643L135.635 101.685L137.238 104.519L138.873 107.263L140.547 109.918L142.267 112.481L144.04 114.956L145.871 117.342L147.765 119.643L149.727 121.862L151.76 124.002L153.867 126.07L156.052 128.069L158.315 130.006L160.657 131.887L163.078 133.719L165.577 135.509L168.153 137.264L170.804 138.992L173.525 140.701L176.314 142.398L179.167 144.091L182.076 145.788L185.039 147.496L188.047 149.223L191.094 150.975L194.172 152.761L197.276 154.585L200.395 156.454L203.523 158.375L206.651 160.351L209.769 162.387L212.871 164.488L215.947 166.658L218.988 168.898L221.987 171.212L224.935 173.602L227.824 176.069L230.645 178.613L233.393 181.235L236.059 183.936L238.638 186.713L241.122 189.566L243.507 192.493L245.786 195.492L247.956 198.561L250.012 201.696L251.951 204.896L253.769 208.155L255.465 211.472L257.037 214.841L258.483 218.259L259.803 221.723L260.997 225.227L262.064 228.767L263.006 232.34L263.824 235.941L264.52 239.567L265.094 243.212L265.548 246.874L265.88 250.549L266.091 254.234L266.181 257.923L266.149 261.615L265.993 265.306L265.713 268.991L265.308 272.667L264.777 276.331L264.117 279.977L263.328 283.603L262.408 287.205L261.357 290.778L260.172 294.318L258.854 297.82L257.401 301.281L255.813 304.695L254.088 308.059L252.227 311.368L250.231 314.616L248.101 317.801L245.837 320.917L243.443 323.96L240.922 326.927L238.277 329.812L235.512 332.614L232.632 335.328L229.642 337.952L226.548 340.483L223.357 342.919L220.076 345.258L216.711 347.499L213.272 349.642L209.765 351.685L206.199 353.63L202.584 355.476L198.927 357.226L195.239 358.88L191.528 360.443L187.803 361.915L184.075 363.301L180.351 364.604L176.641 365.83L172.954 366.982L169.298 368.066L165.682 369.088L162.114 370.053L158.601 370.969L155.15 371.841L151.768 372.678L148.462 373.485L145.236 374.27L142.096 375.041L139.046 375.805L136.09 376.57L133.23 377.342L130.469 378.13L127.809 378.94L125.251 379.78L122.794 380.655L120.439 381.572L118.184 382.537L116.027 383.556L113.967 384.634L111.999 385.775L110.12 386.982L108.327 388.261L106.613 389.612L104.975 391.039L103.406 392.543L101.9 394.125L100.452 395.785L99.0533 397.522L97.6985 399.335L96.3803 401.222L95.0921 403.182L93.8278 405.213L92.5814 407.312L91.3471 409.479L90.1195 411.71L88.8934 414.003L87.6638 416.358L86.4258 418.77L85.1746 421.237L83.906 423.757L82.6155 426.327L81.2991 428.944L79.9529 431.605L78.5733 434.308L77.1568 437.049L75.7003 439.825L74.2008 442.634L72.6555 445.474L71.0622 448.341L69.4184 451.233L67.7218 454.148L65.9702 457.083L64.1614 460.034L62.2934 462.998L60.3642 465.971L58.3719 468.949L56.3147 471.929L54.1912 474.905L51.9998 477.872L49.7394 480.827L47.4088 483.764L45.0073 486.677L42.5343 489.562L39.9892 492.413L37.372 495.224L34.6829 497.989L31.922 500.704L29.09 503.362L26.1878 505.958L23.2165 508.485L20.1775 510.94L17.0725 513.315L13.9034 515.605L10.6722 517.806L7.38147 519.912L4.03381 521.919L0.632028 523.821L-2.82073 525.615L-6.32126 527.295L-9.86605 528.859L-13.4515 530.302L-17.0737 531.62L-20.7289 532.812L-24.4129 533.874L-28.1216 534.803L-31.8506 535.598L-35.5959 536.257L-39.3529 536.779L-43.1172 537.162L-46.8846 537.407L-50.6506 537.512L-54.4109 537.478L-58.1612 537.306L-61.8974 536.996L-65.6152 536.549L-69.3108 535.967L-72.9802 535.252L-76.6198 534.407L-80.2259 533.432L-83.7952 532.332L-87.3245 531.109L-90.8108 529.767L-94.2514 528.309L-97.6437 526.739L-100.985 525.061L-104.274 523.28L-107.509 521.399L-110.688 519.423L-113.81 517.358L-116.874 515.207L-119.879 512.977L-122.826 510.673L-125.714 508.299L-128.543 505.86L-131.314 503.362L-134.027 500.809L-136.683 498.206L-139.283 495.557L-141.828 492.868L-144.319 490.141L-146.758 487.381L-149.145 484.591L-151.482 481.775L-153.771 478.935L-156.013 476.075L-158.208 473.196L-160.359 470.302L-162.466 467.394L-164.53 464.474L-166.554 461.543L-168.538 458.604L-170.484 455.657L-172.392 452.704L-174.264 449.747L-176.101 446.785L-177.904 443.82L-179.675 440.854L-181.415 437.886L-183.125 434.918L-184.806 431.95L-186.46 428.982L-188.089 426.016L-189.692 423.052L-191.274 420.091L-192.833 417.132L-194.374 414.177L-195.896 411.226L-197.403 408.279L-198.896 405.336L-200.376 402.398L-201.847 399.465L-203.31 396.536L-204.767 393.613L-206.22 390.695L-207.673 387.782L-209.127 384.874L-210.584 381.969L-212.048 379.069L-213.519 376.172L-215 373.277L-216.494 370.384L-218.003 367.491L-219.527 364.598L-221.07 361.703L-222.632 358.805L-224.215 355.902L-225.82 352.992L-227.448 350.074L-229.099 347.145L-230.774 344.204L-232.471 341.248Z" fill="#DEEAEB"/>
</svg>
