<svg width="247" height="488" viewBox="0 0 247 488" fill="none" xmlns="http://www.w3.org/2000/svg">
<path fill-rule="evenodd" clip-rule="evenodd" d="M238.241 241.571L236.332 244.748L234.257 247.87L232.024 250.933L229.642 253.932L227.12 256.863L224.47 259.721L221.7 262.503L218.822 265.207L215.846 267.83L212.783 270.371L209.644 272.827L206.439 275.199L203.18 277.487L199.877 279.689L196.541 281.808L193.181 283.844L189.807 285.799L186.431 287.675L183.061 289.474L179.709 291.201L176.384 292.859L173.098 294.453L169.863 295.987L166.692 297.469L163.596 298.906L160.587 300.304L157.676 301.672L154.872 303.018L152.187 304.351L149.629 305.68L147.205 307.014L144.921 308.363L142.784 309.736L140.796 311.142L138.961 312.589L137.279 314.086L135.749 315.641L134.37 317.261L133.139 318.952L132.049 320.719L131.095 322.568L130.269 324.501L129.562 326.521L128.963 328.629L128.462 330.826L128.047 333.109L127.704 335.477L127.421 337.925L127.183 340.449L126.975 343.043L126.784 345.7L126.596 348.411L126.395 351.167L126.169 353.958L125.903 356.775L125.586 359.604L125.206 362.435L124.752 365.257L124.213 368.055L123.582 370.82L122.85 373.539L122.013 376.2L121.064 378.793L120 381.307L118.821 383.733L117.523 386.063L116.11 388.29L114.581 390.406L112.941 392.409L111.194 394.293L109.345 396.058L107.4 397.703L105.367 399.229L103.253 400.638L101.066 401.934L98.8146 403.124L96.5081 404.212L94.1552 405.208L91.7646 406.12L89.3449 406.957L86.9042 407.731L84.4502 408.451L81.9899 409.13L79.5297 409.779L77.0751 410.409L74.6306 411.031L72.2001 411.655L69.7862 412.291L67.3908 412.947L65.0147 413.632L62.658 414.35L60.3197 415.108L57.9984 415.908L55.6917 416.752L53.397 417.64L51.1109 418.572L48.8301 419.545L46.551 420.554L44.2705 421.598L41.9862 422.676L39.696 423.788L37.3983 424.937L35.0915 426.127L32.7741 427.362L30.4445 428.649L28.1006 429.992L25.7402 431.397L23.3607 432.87L20.9592 434.413L18.5323 436.031L16.0764 437.727L13.5878 439.5L11.0626 441.35L8.4966 443.276L5.88589 445.275L3.22661 447.341L0.51506 449.469L-2.25218 451.651L-5.07814 453.878L-7.9653 456.141L-10.9157 458.427L-13.9308 460.725L-17.0113 463.021L-20.1573 465.303L-23.368 467.555L-26.642 469.763L-29.9771 471.911L-33.3701 473.985L-36.8174 475.969L-40.3142 477.849L-43.8554 479.609L-47.4349 481.235L-51.0461 482.715L-54.6817 484.035L-58.334 485.183L-61.9948 486.148L-65.6555 486.92L-69.3071 487.491L-72.9406 487.853L-76.5467 488L-80.1161 487.926L-83.6396 487.628L-87.108 487.103L-90.5123 486.351L-93.8438 485.371L-97.0942 484.165L-100.256 482.736L-103.321 481.088L-106.282 479.225L-109.135 477.154L-111.871 474.881L-114.487 472.415L-116.978 469.764L-119.341 466.937L-121.571 463.945L-123.668 460.797L-125.628 457.504L-127.451 454.076L-129.136 450.526L-130.682 446.863L-132.091 443.099L-133.364 439.244L-134.501 435.309L-135.504 431.305L-136.375 427.241L-137.116 423.126L-137.731 418.971L-138.221 414.783L-138.59 410.573L-138.842 406.347L-138.98 402.115L-139.008 397.884L-138.932 393.663L-138.757 389.461L-138.489 385.284L-138.137 381.144L-137.709 377.049L-137.214 373.007L-136.661 369.027L-136.06 365.115L-135.421 361.281L-134.754 357.53L-134.074 353.871L-133.391 350.311L-132.72 346.855L-132.076 343.512L-131.473 340.286L-130.927 337.183L-130.453 334.208L-130.066 331.363L-129.784 328.652L-129.62 326.077L-129.591 323.637L-129.711 321.333L-129.992 319.162L-130.449 317.122L-131.092 315.207L-131.931 313.414L-132.975 311.735L-134.232 310.162L-135.707 308.687L-137.403 307.301L-139.323 305.992L-141.466 304.751L-143.829 303.564L-146.408 302.419L-149.198 301.304L-152.189 300.206L-155.37 299.112L-158.73 298.009L-162.254 296.885L-165.926 295.725L-169.727 294.52L-173.639 293.257L-177.64 291.926L-181.707 290.518L-185.819 289.023L-189.949 287.434L-194.074 285.744L-198.167 283.948L-202.203 282.042L-206.156 280.024L-210 277.891L-213.709 275.645L-217.259 273.286L-220.625 270.818L-223.784 268.244L-226.714 265.57L-229.394 262.802L-231.807 259.948L-233.933 257.017L-235.759 254.018L-237.272 250.963L-238.459 247.862L-239.313 244.728L-239.828 241.571L-240 238.406L-239.828 235.244L-239.314 232.097L-238.463 228.98L-237.28 225.902L-235.775 222.877L-233.961 219.914L-231.851 217.023L-229.462 214.215L-226.811 211.496L-223.919 208.873L-220.808 206.353L-217.5 203.94L-214.019 201.636L-210.39 199.443L-206.637 197.362L-202.785 195.392L-198.857 193.532L-194.875 191.778L-190.861 190.128L-186.834 188.576L-182.812 187.119L-178.812 185.75L-174.847 184.465L-170.931 183.258L-167.074 182.123L-163.287 181.055L-159.578 180.046L-155.954 179.092L-152.422 178.185L-148.987 177.32L-145.655 176.491L-142.428 175.691L-139.31 174.914L-136.304 174.155L-133.41 173.408L-130.63 172.666L-127.964 171.926L-125.411 171.181L-122.971 170.427L-120.642 169.66L-118.421 168.874L-116.306 168.067L-114.294 167.234L-112.381 166.373L-110.563 165.481L-108.835 164.555L-107.193 163.595L-105.631 162.597L-104.145 161.563L-102.728 160.49L-101.375 159.379L-100.081 158.23L-98.8394 157.043L-97.6452 155.819L-96.493 154.559L-95.3776 153.264L-94.294 151.934L-93.2375 150.572L-92.204 149.178L-91.1895 147.753L-90.1906 146.298L-89.2041 144.814L-88.2275 143.3L-87.2587 141.757L-86.2959 140.184L-85.3378 138.58L-84.3836 136.943L-83.4327 135.271L-82.485 133.561L-81.5404 131.81L-80.5994 130.014L-79.6623 128.169L-78.7296 126.268L-77.8018 124.308L-76.8793 122.282L-75.9623 120.183L-75.0509 118.007L-74.1446 115.745L-73.2429 113.392L-72.3444 110.941L-71.4476 108.387L-70.5501 105.725L-69.649 102.95L-68.7409 100.058L-67.8216 97.0477L-66.8862 93.9168L-65.9295 90.666L-64.9453 87.2973L-63.9272 83.8142L-62.8682 80.2223L-61.7612 76.5292L-60.5985 72.7446L-59.3726 68.8801L-58.0758 64.9498L-56.7007 60.9698L-55.2402 56.958L-53.6877 52.9344L-52.0373 48.9195L-50.2847 44.9339L-48.4263 40.9973L-46.46 37.1296L-44.3841 33.3516L-42.1981 29.6845L-39.9026 26.1498L-37.4992 22.7684L-34.9906 19.5606L-32.3808 16.5459L-29.6748 13.7422L-26.8785 11.1661L-23.9991 8.83222L-21.0444 6.75355L-18.023 4.94097L-14.944 3.40335L-11.8173 2.14742L-8.65288 1.17776L-5.46104 0.496787L-2.25218 0.104798L0.963257 0L4.17509 0.178592L7.37337 0.63485L10.5485 1.36123L13.6914 2.3485L16.7935 3.58583L19.8471 5.06097L22.8451 6.76038L25.781 8.66939L28.6494 10.7723L31.4459 13.0526L34.1668 15.4931L36.8093 18.0762L39.3718 20.7836L41.8535 23.5971L44.2545 26.4982L46.576 29.4686L48.8199 32.4902L50.9892 35.545L53.0876 38.6156L55.1195 41.6851L57.0902 44.7373L59.0056 47.7566L60.8722 50.7285L62.697 53.6391L64.4874 56.4759L66.2514 59.2271L67.9971 61.8822L69.7328 64.4319L71.467 66.8682L73.2083 69.1843L74.9649 71.3747L76.7451 73.4354L78.5571 75.3635L80.4083 77.1577L82.3059 78.8181L84.2566 80.346L86.2661 81.7441L88.3399 83.0165L90.4822 84.1687L92.6965 85.2071L94.9854 86.1396L97.3501 86.9751L99.7911 87.7235L102.307 88.3957L104.897 89.0033L107.557 89.5589L110.283 90.0753L113.069 90.5659L115.909 91.0443L118.795 91.5241L121.718 92.0188L124.669 92.5412L127.639 93.1039L130.618 93.7183L133.594 94.395L136.558 95.1431L139.502 95.97L142.415 96.8815L145.292 97.8815L148.127 98.9717L150.915 100.152L153.655 101.421L156.345 102.775L158.987 104.21L161.582 105.721L164.136 107.301L166.65 108.945L169.131 110.647L171.584 112.402L174.013 114.203L176.425 116.047L178.825 117.928L181.218 119.843L183.609 121.789L186.002 123.764L188.4 125.766L190.807 127.795L193.223 129.85L195.651 131.932L198.09 134.041L200.54 136.179L202.999 138.348L205.463 140.55L207.93 142.788L210.395 145.065L212.852 147.383L215.295 149.745L217.716 152.154L220.108 154.613L222.461 157.124L224.768 159.69L227.017 162.312L229.199 164.992L231.303 167.73L233.32 170.528L235.237 173.386L237.045 176.302L238.733 179.277L240.29 182.307L241.707 185.392L242.974 188.528L244.083 191.712L245.025 194.939L245.793 198.206L246.379 201.507L246.779 204.837L246.987 208.19L247 211.561L246.815 214.942L246.43 218.327L245.845 221.71L245.06 225.083L244.078 228.44L242.901 231.774L241.532 235.078L239.977 238.346L238.241 241.571Z" fill="#D7E9BB"/>
</svg>
