<svg width="250" height="504" viewBox="0 0 250 504" fill="none" xmlns="http://www.w3.org/2000/svg">
<path fill-rule="evenodd" clip-rule="evenodd" d="M506.315 242.853L507.142 246.187L507.984 249.546L508.84 252.93L509.707 256.343L510.582 259.785L511.463 263.259L512.344 266.764L513.224 270.304L514.096 273.877L514.956 277.485L515.799 281.128L516.621 284.807L517.417 288.52L518.183 292.268L518.917 296.05L519.614 299.867L520.272 303.717L520.887 307.6L521.457 311.515L521.979 315.461L522.449 319.437L522.866 323.442L523.225 327.475L523.525 331.533L523.762 335.616L523.934 339.722L524.037 343.848L524.07 347.993L524.029 352.155L523.911 356.331L523.716 360.518L523.439 364.715L523.079 368.918L522.632 373.124L522.096 377.331L521.469 381.534L520.746 385.73L519.926 389.914L519.006 394.083L517.984 398.233L516.856 402.358L515.621 406.455L514.276 410.518L512.82 414.543L511.251 418.524L509.568 422.456L507.77 426.336L505.856 430.156L503.826 433.913L501.679 437.601L499.416 441.216L497.039 444.753L494.547 448.208L491.942 451.576L489.228 454.853L486.404 458.035L483.475 461.119L480.443 464.101L477.311 466.979L474.082 469.75L470.762 472.411L467.353 474.961L463.86 477.399L460.287 479.722L456.639 481.931L452.921 484.025L449.137 486.003L445.294 487.866L441.394 489.615L437.445 491.251L433.45 492.775L429.415 494.188L425.344 495.493L421.243 496.691L417.115 497.784L412.966 498.775L408.8 499.667L404.62 500.462L400.432 501.162L396.237 501.771L392.041 502.291L387.846 502.725L383.655 503.076L379.472 503.345L375.298 503.536L371.137 503.652L366.99 503.694L362.86 503.665L358.749 503.57L354.66 503.412L350.594 503.197L346.555 502.928L342.543 502.612L338.561 502.254L334.61 501.86L330.692 501.436L326.806 500.988L322.955 500.522L319.137 500.045L315.354 499.563L311.604 499.082L307.888 498.609L304.204 498.15L300.55 497.712L296.927 497.303L293.331 496.928L289.76 496.594L286.211 496.307L282.683 496.071L279.17 495.89L275.67 495.766L272.179 495.702L268.694 495.698L265.21 495.754L261.723 495.869L258.231 496.041L254.729 496.266L251.213 496.541L247.682 496.86L244.132 497.219L240.561 497.611L236.967 498.028L233.348 498.463L229.703 498.907L226.032 499.353L222.335 499.79L218.611 500.209L214.863 500.6L211.092 500.954L207.299 501.26L203.489 501.509L199.663 501.69L195.827 501.795L191.983 501.813L188.137 501.736L184.294 501.554L180.46 501.261L176.64 500.848L172.84 500.309L169.068 499.637L165.329 498.827L161.629 497.874L157.977 496.773L154.379 495.523L150.84 494.12L147.369 492.562L143.972 490.85L140.654 488.983L137.422 486.962L134.281 484.789L131.237 482.466L128.294 479.998L125.458 477.387L122.731 474.64L120.118 471.76L117.621 468.755L115.243 465.63L112.984 462.393L110.847 459.052L108.832 455.613L106.938 452.086L105.165 448.479L103.512 444.8L101.975 441.059L100.551 437.265L99.2371 433.429L98.0264 429.562L96.9132 425.672L95.8907 421.772L94.9513 417.87L94.0869 413.976L93.2887 410.101L92.5477 406.252L91.8544 402.438L91.1992 398.667L90.572 394.946L89.9631 391.28L89.3624 387.675L88.76 384.137L88.1461 380.668L87.5112 377.271L86.8459 373.95L86.1413 370.706L85.3889 367.538L84.581 364.448L83.7102 361.433L82.77 358.492L81.7546 355.623L80.6589 352.822L79.4788 350.085L78.2108 347.409L76.8525 344.787L75.4022 342.216L73.8591 339.688L72.2235 337.199L70.4964 334.741L68.6797 332.308L66.7761 329.895L64.7892 327.493L62.7233 325.096L60.5835 322.699L58.3757 320.294L56.1063 317.875L53.7824 315.437L51.4115 312.973L49.0018 310.478L46.5617 307.948L44.1001 305.377L41.626 302.763L39.1487 300.1L36.6776 297.386L34.2222 294.619L31.792 291.796L29.3963 288.916L27.0443 285.977L24.745 282.98L22.5074 279.924L20.3397 276.809L18.2501 273.637L16.2463 270.409L14.3354 267.126L12.5242 263.792L10.819 260.407L9.22519 256.977L7.74792 253.502L6.39157 249.988L5.15989 246.437L4.05604 242.853L3.08252 239.241L2.24122 235.605L1.5334 231.948L0.959734 228.274L0.520297 224.589L0.214615 220.895L0.0416833 217.198L0 213.5L0.0876048 209.806L0.302127 206.119L0.6411 202.443L1.10247 198.782L1.68467 195.138L2.3865 191.515L3.20715 187.917L4.14606 184.348L5.20295 180.81L6.37769 177.308L7.67029 173.846L9.08088 170.427L10.6096 167.056L12.2567 163.736L14.0222 160.472L15.9063 157.268L17.909 154.128L20.0302 151.056L22.2697 148.058L24.627 145.137L27.1017 142.298L29.693 139.546L32.3996 136.885L35.2198 134.319L38.1514 131.851L41.1914 129.487L44.3366 127.229L47.5828 125.08L50.9258 123.043L54.3604 121.12L57.8813 119.313L61.4824 117.623L65.1574 116.051L68.8995 114.598L72.7016 113.262L76.5563 112.044L80.4559 110.942L84.3924 109.953L88.3579 109.076L92.344 108.307L96.3426 107.642L100.345 107.077L104.344 106.607L108.331 106.228L112.298 105.933L116.238 105.715L120.142 105.569L124.004 105.486L127.817 105.461L131.574 105.484L135.271 105.548L138.9 105.644L142.457 105.765L145.938 105.901L149.338 106.045L152.655 106.186L155.886 106.318L159.028 106.432L162.081 106.519L165.042 106.571L167.913 106.581L170.694 106.542L173.384 106.447L175.987 106.289L178.505 106.062L180.939 105.761L183.294 105.381L185.573 104.919L187.78 104.37L189.921 103.732L191.999 103.002L194.02 102.18L195.991 101.264L197.916 100.255L199.802 99.1539L201.654 97.9621L203.48 96.682L205.286 95.3168L207.076 93.87L208.858 92.3451L210.637 90.7457L212.418 89.0753L214.205 87.3372L216.004 85.535L217.819 83.6723L219.655 81.7526L221.514 79.7795L223.402 77.757L225.321 75.6886L227.274 73.5783L229.266 71.43L231.299 69.2475L233.375 67.0346L235.497 64.7952L237.668 62.5328L239.889 60.251L242.162 57.9529L244.489 55.6414L246.872 53.3197L249.312 50.9909L251.81 48.6585L254.367 46.3262L256.985 43.9979L259.664 41.6779L262.406 39.3703L265.21 37.0798L268.077 34.8111L271.006 32.5691L273.999 30.3588L277.053 28.1853L280.17 26.0538L283.347 23.9697L286.584 21.9384L289.879 19.9653L293.231 18.0556L296.637 16.2149L300.096 14.4484L303.605 12.7613L307.162 11.1587L310.763 9.6456L314.406 8.22679L318.087 6.90689L321.802 5.69034L325.548 4.58135L329.322 3.58388L333.118 2.70166L336.933 1.93811L340.763 1.2964L344.603 0.779367L348.448 0.389546L352.294 0.129136L356.136 0L359.97 0.00365032L363.791 0.141244L367.594 0.413576L371.375 0.82108L375.129 1.36382L378.852 2.04152L382.539 2.85351L386.186 3.79881L389.788 4.8761L393.343 6.08373L396.846 7.41972L400.293 8.88181L403.682 10.4674L407.008 12.1737L410.269 13.9975L413.463 15.9354L416.586 17.9839L419.636 20.1392L422.613 22.3971L425.513 24.7536L428.335 27.2043L431.079 29.7446L433.743 32.3701L436.328 35.0758L438.833 37.8569L441.258 40.7084L443.604 43.6252L445.872 46.6024L448.062 49.6349L450.176 52.7179L452.217 55.8466L454.184 59.0163L456.081 62.2226L457.909 65.4611L459.671 68.7277L461.368 72.0187L463.004 75.3304L464.579 78.6595L466.098 82.0027L467.561 85.3575L468.97 88.7211L470.329 92.0915L471.638 95.4665L472.9 98.8445L474.116 102.224L475.288 105.603L476.418 108.98L477.507 112.355L478.557 115.726L479.57 119.093L480.546 122.454L481.488 125.81L482.397 129.158L483.274 132.5L484.12 135.835L484.938 139.161L485.729 142.48L486.493 145.79L487.233 149.091L487.95 152.384L488.646 155.668L489.323 158.944L489.981 162.21L490.624 165.469L491.252 168.718L491.869 171.96L492.474 175.194L493.072 178.42L493.664 181.639L494.251 184.852L494.837 188.059L495.423 191.261L496.012 194.459L496.605 197.654L497.205 200.847L497.813 204.039L498.432 207.231L499.063 210.426L499.708 213.623L500.369 216.826L501.047 220.036L501.742 223.254L502.456 226.483L503.19 229.724L503.942 232.979L504.715 236.252L505.506 239.542L506.315 242.853Z" fill="#D7E9BB"/>
</svg>
